<?xml version="1.0" standalone="no"?>
<!DOCTYPE svg PUBLIC "-//W3C//DTD SVG 1.1//EN" "http://www.w3.org/Graphics/SVG/1.1/DTD/svg11.dtd" >
<svg>
<metadata>
Created by FontForge 20090914 at Thu Mar 19 15:38:28 2020
 By www-data
Copyright &#194;&#169; 2013-2018 by Colophon Foundry. All rights reserved.
</metadata>
<defs>
<font id="VisueltPro-Medium" horiz-adv-x="602" >
  <font-face 
    font-family="Visuelt Pro Medium"
    font-weight="500"
    font-stretch="normal"
    units-per-em="1000"
    panose-1="2 11 6 3 5 2 2 4 1 4"
    ascent="740"
    descent="-260"
    x-height="500"
    cap-height="700"
    bbox="-613 -315.001 1212 933"
    underline-thickness="60"
    underline-position="-110"
    unicode-range="U+000D-U+FB02"
  />
<missing-glyph horiz-adv-x="637" 
d="M68 700h501v-700h-501v700zM466 95v510h-295v-510h295z" />
    <glyph glyph-name="f_f" unicode="ff" horiz-adv-x="660" 
d="M112 402h-85v98h85v88c0 50.667 14.833 88.667 44.5 114s67.167 38 112.5 38c22 0 44.333 -3.33301 67 -10v-94l-3 -2c-18 6 -35 9 -51 9c-17.333 0 -30.833 -4.66699 -40.5 -14s-14.5 -23.333 -14.5 -42v-87h182v88c0 50.667 14.833 88.667 44.5 114s67.167 38 112.5 38
c22 0 44.333 -3.33301 67 -10v-94l-4 -2c-18 6 -35 9 -51 9c-16.667 0 -30 -4.66699 -40 -14s-15 -23.333 -15 -42v-87h108v-98h-108v-402h-114v402h-182v-402h-115v402z" />
    <glyph glyph-name="f_f_i" unicode="ffi" horiz-adv-x="882" 
d="M112 402h-85v98h85v88c0 50.667 14.833 88.667 44.5 114s67.167 38 112.5 38c22 0 44.333 -3.33301 67 -10v-94l-3 -2c-18 6 -35 9 -51 9c-17.333 0 -30.833 -4.66699 -40.5 -14s-14.5 -23.333 -14.5 -42v-87h182v88c0 50.667 14.833 88.667 44.5 114s67.167 38 112.5 38
c22 0 44.333 -3.33301 67 -10v-94l-4 -2c-18 6 -35 9 -51 9c-16.667 0 -30 -4.66699 -40 -14s-15 -23.333 -15 -42v-87h297v-500h-114v402h-183v-402h-114v402h-182v-402h-115v402zM713 586c-14 14 -21 30.667 -21 50s7 36 21 50s30.667 21 50 21s36 -7 50 -21
s21 -30.667 21 -50s-7 -36 -21 -50s-30.667 -21 -50 -21s-36 7 -50 21z" />
    <glyph glyph-name="f_f_l" unicode="ffl" horiz-adv-x="884" 
d="M112 402h-85.001v98h85v88c0 50.667 14.833 88.667 44.5 114s67.167 38 112.5 38c22 0 44.333 -3.33301 67 -10v-94l-3 -2c-18 6 -35 9 -51 9c-17.333 0 -30.833 -4.66699 -40.5 -14s-14.5 -23.333 -14.5 -42v-87h182v88c0 50.667 14.833 88.667 44.5 114
s67.834 38 114.501 38h252v-740h-114v643h-128c-36.667 0 -55 -18.667 -55 -56v-87h108v-98h-108v-402h-114v402h-182v-402h-115v402z" />
    <glyph glyph-name="f_i" unicode="fi" horiz-adv-x="585" 
d="M112 402h-85v98h85v88c0 50.667 14.833 88.667 44.5 114s67.167 38 112.5 38c22 0 44.333 -3.33301 67 -10v-94l-3 -2c-18 6 -35 9 -51 9c-17.333 0 -30.833 -4.66699 -40.5 -14s-14.5 -23.333 -14.5 -42v-87h296v-500h-114v402h-182v-402h-115v402zM416 586
c-14 14 -21 30.667 -21 50s7 36 21 50s30.667 21 50 21s36 -7 50 -21s21 -30.667 21 -50s-7 -36 -21 -50s-30.667 -21 -50 -21s-36 7 -50 21z" />
    <glyph glyph-name="f_l" unicode="fl" horiz-adv-x="587" 
d="M112 402h-85.001v98h85v88c0 50.667 14.833 88.667 44.5 114s67.834 38 114.501 38h252v-740h-114v643h-127c-36.667 0 -55 -18.667 -55 -56v-87h107v-98h-107v-402h-115v402z" />
    <glyph glyph-name=".notdef" horiz-adv-x="637" 
d="M68 700h501v-700h-501v700zM466 95v510h-295v-510h295z" />
    <glyph glyph-name="nonmarkingreturn" unicode="&#xd;" horiz-adv-x="294" 
 />
    <glyph glyph-name="space" unicode=" " horiz-adv-x="210" 
 />
    <glyph glyph-name="exclam" unicode="!" horiz-adv-x="293" 
d="M77 700h139l-19 -475h-100zM91.5 23.5c-15.667 15.667 -23.5 34.167 -23.5 55.5s7.83301 39.666 23.5 54.999s34.167 23 55.5 23s39.666 -7.66699 54.999 -23s23 -33.666 23 -54.999s-7.66699 -39.833 -23 -55.5s-33.666 -23.5 -54.999 -23.5s-39.833 7.83301 -55.5 23.5
z" />
    <glyph glyph-name="quotedbl" unicode="&#x22;" horiz-adv-x="386" 
d="M47 700h112l-13 -254h-87zM228 700h112l-13 -254h-87z" />
    <glyph glyph-name="numbersign" unicode="#" horiz-adv-x="725" 
d="M163 187h-115l17 91h114l25 141h-115l16 91h115l33 190h98l-33 -190h145l34 190h98l-34 -190h116l-16 -91h-116l-24 -141h116l-17 -91h-115l-33 -187h-98l33 187h-146l-32 -187h-98zM423 278l24 141h-145l-25 -141h146z" />
    <glyph glyph-name="dollar" unicode="$" horiz-adv-x="623" 
d="M272 -7c-64.667 7.33301 -118.169 30.999 -160.502 70.999s-65.833 90.333 -70.5 151l4 5l117 11c2.66699 -34 14 -62 34 -84s45.333 -36.667 76 -44v235l-15 4c-55.333 12.667 -99.166 35 -131.499 67s-48.5 72.333 -48.5 121c0 50 17.833 91 53.5 123
s82.834 50.667 141.501 56v91h79v-93c58.667 -6.66699 105.5 -27 140.5 -61s55.5 -78 61.5 -132l-4 -6l-110 -6c-6.66699 54 -36 87.667 -88 101v-176c76.667 -16 132.5 -40.167 167.5 -72.5s52.5 -78.166 52.5 -137.499c0 -41.333 -9.5 -78.166 -28.5 -110.499
s-45.167 -58.333 -78.5 -78s-71 -31.834 -113 -36.501v-92h-79v93zM271.998 606.999c-25.333 -3.33301 -45 -11.498 -59 -24.498s-21 -29.167 -21 -48.5c0 -18.667 6.16699 -34.834 18.5 -48.501s32.833 -25.834 61.5 -36.501v158zM421.498 137.001
c17 18.667 25.501 43.001 25.501 73.001c0 29.333 -6.83301 52.166 -20.5 68.499s-38.834 29.833 -75.501 40.5v-218c30 5.33301 53.5 17.333 70.5 36z" />
    <glyph glyph-name="percent" unicode="%" horiz-adv-x="820" 
d="M119.5 388c-25.667 14.667 -45.667 35.167 -60 61.5s-21.5 55.833 -21.5 88.5s7.16699 62.167 21.5 88.5s34.333 46.833 60 61.5s55.167 22 88.5 22s62.833 -7.33301 88.5 -22s45.667 -35.167 60 -61.5s21.5 -55.833 21.5 -88.5s-7.16699 -62.167 -21.5 -88.5
s-34.333 -46.833 -60 -61.5s-55.167 -22 -88.5 -22s-62.833 7.33301 -88.5 22zM114 58l527 637l64 -53l-527 -637zM272 468.5c16.667 16.333 25 39.5 25 69.5s-8.33301 53.167 -25 69.5s-38 24.5 -64 24.5s-47.333 -8.16699 -64 -24.5s-25 -39.5 -25 -69.5
s8.33301 -53.167 25 -69.5s38 -24.5 64 -24.5s47.333 8.16699 64 24.5zM523.5 12c-25.667 14.667 -45.667 35.167 -60 61.5s-21.5 55.833 -21.5 88.5s7.16699 62.167 21.5 88.5s34.333 46.833 60 61.5s55.167 22 88.5 22s62.833 -7.33301 88.5 -22s45.667 -35.167 60 -61.5
s21.5 -55.833 21.5 -88.5s-7.16699 -62.167 -21.5 -88.5s-34.333 -46.833 -60 -61.5s-55.167 -22 -88.5 -22s-62.833 7.33301 -88.5 22zM676 92.5c16.667 16.333 25 39.5 25 69.5s-8.33301 53.167 -25 69.5s-38 24.5 -64 24.5s-47.333 -8.16699 -64 -24.5
s-25 -39.5 -25 -69.5s8.33301 -53.167 25 -69.5s38 -24.5 64 -24.5s47.333 8.16699 64 24.5z" />
    <glyph glyph-name="ampersand" unicode="&#x26;" horiz-adv-x="675" 
d="M166.5 17.5c-37 18.333 -66 44.501 -87 78.501s-31.5 73.333 -31.5 118c0 46 12.167 86.5 36.5 121.5s58.166 64.167 101.499 87.5c-28 43.333 -42 86 -42 128c0 31.333 7.5 59 22.5 83s35.333 42.667 61 56s53.834 20 84.501 20c32 0 60 -6 84 -18
s42.333 -28.333 55 -49s19 -43.334 19 -68.001c0 -41.333 -11.5 -75.833 -34.5 -103.5s-56.833 -52.167 -101.5 -73.5l134 -166c8.66699 33.333 13 72.333 13 117v22h105v-39c0 -74 -14.333 -138.333 -43 -193l114 -139h-136l-45 55c-48.667 -43.333 -110.667 -65 -186 -65
c-45.333 0 -86.5 9.16699 -123.5 27.5zM347 510.001c14 16 20.999 34.666 20.999 55.999c0 15.333 -5.16699 28.333 -15.5 39s-24.166 16 -41.499 16c-16 0 -30 -6 -42 -18s-18 -27.667 -18 -47c0 -18 2.33301 -33.667 7 -47s12 -27.666 22 -42.999
c30.667 13.333 53 28 67 44zM413.999 132l-174 218.001c-28 -16 -48 -34.833 -60 -56.5s-18 -46.834 -18 -75.501c0 -38.667 12.833 -69.5 38.5 -92.5s57.5 -34.5 95.5 -34.5c50 0 89.333 13.667 118 41z" />
    <glyph glyph-name="quotesingle" unicode="'" horiz-adv-x="205" 
d="M47 700h112l-13 -254h-87z" />
    <glyph glyph-name="parenleft" unicode="(" horiz-adv-x="355" 
d="M98.5 93.5c-33.667 73 -50.5 158.502 -50.5 256.502s16.833 183.5 50.5 256.5s80.167 138.167 139.5 195.5l77 -77c-49.333 -54 -86.166 -110.833 -110.499 -170.5s-36.5 -127.834 -36.5 -204.501s12.167 -144.834 36.5 -204.501s61.166 -116.5 110.499 -170.5l-77 -77
c-59.333 57.333 -105.833 122.5 -139.5 195.5z" />
    <glyph glyph-name="parenright" unicode=")" horiz-adv-x="355" 
d="M40 -25c49.333 54 86.166 110.831 110.499 170.498s36.5 127.834 36.5 204.501s-12.167 144.834 -36.5 204.501s-61.166 116.5 -110.499 170.5l77 77c59.333 -57.333 105.833 -122.5 139.5 -195.5s50.5 -158.5 50.5 -256.5s-16.833 -183.5 -50.5 -256.5
s-80.167 -138.167 -139.5 -195.5z" />
    <glyph glyph-name="asterisk" unicode="*" horiz-adv-x="429" 
d="M81 441l80 82l-114 20l31 93l103 -50l-16 114h99l-16 -114l103 50l30 -93l-113 -20l79 -82l-79 -59l-54 101l-53 -101z" />
    <glyph glyph-name="plus" unicode="+" horiz-adv-x="508" 
d="M205 272h-158v96h158v158h96v-158h159v-96h-159v-159h-96v159z" />
    <glyph glyph-name="comma" unicode="," horiz-adv-x="253" 
d="M46 -125c24 20.667 42.834 40.665 56.501 59.998s21.167 41 22.5 65c-23.333 0.666992 -42 8.66699 -56 24s-21 33 -21 53c0 22 7.5 40.833 22.5 56.5s33.833 23.5 56.5 23.5c23.333 0 42.166 -7.83301 56.499 -23.5s21.5 -35.5 21.5 -59.5
c0 -45.333 -11 -85.166 -33 -119.499s-56.333 -68.166 -103 -101.499z" />
    <glyph glyph-name="hyphen" unicode="-" horiz-adv-x="446" 
d="M47 363h353v-96h-353v96z" />
    <glyph glyph-name="period" unicode="." horiz-adv-x="253" 
d="M71.5 23.5c-15.667 15.667 -23.5 34.167 -23.5 55.5s7.83301 39.666 23.5 54.999s34.167 23 55.5 23s39.666 -7.66699 54.999 -23s23 -33.666 23 -54.999s-7.66699 -39.833 -23 -55.5s-33.666 -23.5 -54.999 -23.5s-39.833 7.83301 -55.5 23.5z" />
    <glyph glyph-name="slash" unicode="/" horiz-adv-x="550" 
d="M405 700h120l-380 -700h-120z" />
    <glyph glyph-name="zero" unicode="0" horiz-adv-x="684" 
d="M186 35.5c-44.667 30.333 -78.834 72.833 -102.501 127.5s-35.5 117 -35.5 187s11.833 132.333 35.5 187s57.834 97.167 102.501 127.5s96.667 45.5 156 45.5s111.166 -15.167 155.499 -45.5s78.5 -72.833 102.5 -127.5s36 -117 36 -187s-12 -132.333 -36 -187
s-58.167 -97.167 -102.5 -127.5s-96.166 -45.5 -155.499 -45.5s-111.333 15.167 -156 45.5zM470.5 166.5c29.667 44.333 44.5 105.5 44.5 183.5s-14.833 139.167 -44.5 183.5s-72.5 66.5 -128.5 66.5s-98.833 -22.167 -128.5 -66.5s-44.5 -105.5 -44.5 -183.5
s14.833 -139.167 44.5 -183.5s72.5 -66.5 128.5 -66.5s98.833 22.167 128.5 66.5z" />
    <glyph glyph-name="one" unicode="1" horiz-adv-x="348" 
d="M161 545c-15.333 -14 -33.167 -23.499 -53.5 -28.499s-47.833 -7.5 -82.5 -7.5v101h14c37.333 0 66 7.16699 86 21.5s32 37.166 36 68.499h119v-700h-119v545z" />
    <glyph glyph-name="two" unicode="2" horiz-adv-x="583" 
d="M41 101l284.001 254.999c26 23.333 45.667 45.833 59 67.5s20 46.834 20 75.501c0 32 -10.333 57.5 -31 76.5s-47.667 28.5 -81 28.5c-38.667 0 -69.667 -11.5 -93 -34.5s-36 -54.167 -38 -93.5l-113 9l-3 7c3.33301 40.667 15.666 77.667 36.999 111s50 59.5 86 78.5
s77 28.5 123 28.5c44 0 83.5 -8.5 118.5 -25.5s62.333 -41 82 -72s29.5 -66.833 29.5 -107.5c0 -43.333 -9.66699 -82 -29 -116s-48.333 -67.667 -87 -101l-202 -178h330v-110h-492v101z" />
    <glyph glyph-name="three" unicode="3" horiz-adv-x="607" 
d="M161.5 22.5c-39.667 21.667 -70.498 51 -92.498 88s-34.333 78.167 -37 123.5l6 4l106 10c3.33301 -45.333 18.666 -82 45.999 -110s64 -42 110 -42c42 0 75.5 13 100.5 39s37.5 62 37.5 108s-15.333 81.5 -46 106.5s-69 37.5 -115 37.5h-29v95l125 114h-312v104h462
v-103l-146 -126c52 -12.667 95.333 -38 130 -76s52 -88.333 52 -151c0 -48 -11.333 -91.333 -34 -130s-53.667 -69 -93 -91s-83.333 -33 -132 -33c-52.667 0 -98.834 10.833 -138.501 32.5z" />
    <glyph glyph-name="four" unicode="4" horiz-adv-x="603" 
d="M364 137h-326v110l332 453h113v-453h84v-110h-84v-137h-119v137zM364 247v270l-197 -270h197z" />
    <glyph glyph-name="five" unicode="5" horiz-adv-x="614" 
d="M172 18c-38 18.667 -68.832 44.668 -92.499 78.001s-37.5 71.666 -41.5 114.999l4 8l114 11c4.66699 -37.333 19.167 -69 43.5 -95s57.5 -39 99.5 -39c45.333 0 81 13.333 107 40s39 63.667 39 111s-13.5 84 -40.5 110s-61.5 39 -103.5 39
c-58.667 0 -112 -18.333 -160 -55l-85 42l45 317h412v-102h-321l-26 -147c20 12.667 43.667 23.167 71 31.5s55.666 12.5 84.999 12.5c74.667 0 134 -21.833 178 -65.5s66 -103.167 66 -178.5c0 -47.333 -10.667 -91 -32 -131s-52.333 -71.667 -93 -95s-88 -35 -142 -35
c-46.667 0 -89 9.33301 -127 28z" />
    <glyph glyph-name="six" unicode="6" horiz-adv-x="609" 
d="M201 16c-36 17.333 -65.3301 41.001 -87.9971 71.001c-22.667 29.333 -39.167 63.5 -49.5 102.5s-15.5 84.5 -15.5 136.5c0 76.667 11 144 33 202s54 102.833 96 134.5s91.667 47.5 149 47.5c61.333 0 111.666 -15.833 150.999 -47.5s63.666 -74.834 72.999 -129.501
l-4 -7l-105 -11c-9.33301 31.333 -23.5 54.166 -42.5 68.499s-43.5 21.5 -73.5 21.5c-28.667 0 -54.5 -8.16699 -77.5 -24.5s-41.167 -40 -54.5 -71s-20.333 -67.5 -21 -109.5c21.333 22.667 46.333 40 75 52s59.667 18 93 18c43.333 0 82.666 -10 117.999 -30
s63 -47.833 83 -83.5s30 -76.167 30 -121.5c0 -46 -10.833 -87.667 -32.5 -125s-52 -66.666 -91 -87.999s-83.833 -32 -134.5 -32c-38.667 0 -76 8.66699 -112 26zM389.503 111.501c21 13 36.999 30.167 47.999 51.5s16.5 44.333 16.5 69s-5.5 47.667 -16.5 69
s-27 38.5 -48 51.5s-45.5 19.5 -73.5 19.5s-52.5 -6.5 -73.5 -19.5s-37 -30.167 -48 -51.5s-16.5 -44.333 -16.5 -69c0 -39.333 12.333 -72.5 37 -99.5s58.334 -40.5 101.001 -40.5c28 0 52.5 6.5 73.5 19.5z" />
    <glyph glyph-name="seven" unicode="7" horiz-adv-x="547" 
d="M373 592h-333v108h462v-89l-262 -611h-123z" />
    <glyph glyph-name="eight" unicode="8" horiz-adv-x="579" 
d="M161 19c-36.667 19.333 -64.666 45.666 -83.999 78.999s-29 71 -29 113c0 38.667 9.5 73.5 28.5 104.5s44.167 55.5 75.5 73.5c-22 16.667 -39.167 37.167 -51.5 61.5s-18.5 50.5 -18.5 78.5c0 34.667 8.83301 65.667 26.5 93s42.334 48.833 74.001 64.5
s67.167 23.5 106.5 23.5c40 0 75.833 -7.83301 107.5 -23.5s56.334 -37.167 74.001 -64.5s26.5 -58.333 26.5 -93c0 -28 -6.16699 -54.167 -18.5 -78.5s-29.5 -44.833 -51.5 -61.5c31.333 -18 56.5 -42.5 75.5 -73.5s28.5 -65.833 28.5 -104.5
c0 -42 -9.83301 -79.667 -29.5 -113s-47.834 -59.666 -84.501 -78.999s-79.334 -29 -128.001 -29s-91.334 9.66699 -128.001 29zM361.001 455.5c18.667 17.667 28 40.5 28 68.5s-9.33301 50.833 -28 68.5s-42.667 26.5 -72 26.5s-53.166 -8.66699 -71.499 -26
s-27.5 -40.333 -27.5 -69c0 -28 9.16699 -50.833 27.5 -68.5s42.166 -26.5 71.499 -26.5s53.333 8.83301 72 26.5zM378.001 126.5c24 23 36 52.5 36 88.5s-12 65.667 -36 89s-53.667 35 -89 35c-34.667 0 -64 -11.667 -88 -35s-36 -53 -36 -89s11.833 -65.5 35.5 -88.5
s53.167 -34.5 88.5 -34.5s65 11.5 89 34.5z" />
    <glyph glyph-name="nine" unicode="9" horiz-adv-x="609" 
d="M133.5 37.5c-39 31.667 -63.502 74.832 -73.502 129.499l3 7l105 11c9.33301 -31.333 23.5 -54.166 42.5 -68.499s43.833 -21.5 74.5 -21.5c28.667 0 54.5 8.33301 77.5 25s41.167 40.667 54.5 72s20 68.333 20 111c-40 -44 -95.667 -66 -167 -66
c-43.333 0 -82.666 9.33301 -117.999 28s-63.166 45.334 -83.499 80.001s-30.5 74.667 -30.5 120c0 46 10.833 87.667 32.5 125s52.167 66.666 91.5 87.999s84.333 32 135 32c38 0 75 -8.66699 111 -26s65.667 -41 89 -71c22 -29.333 38.167 -63.5 48.5 -102.5
s15.5 -84.5 15.5 -136.5c0 -76.667 -11 -144 -33 -202s-53.833 -102.833 -95.5 -134.5s-91.167 -47.5 -148.5 -47.5c-61.333 0 -111.5 15.833 -150.5 47.5zM366.498 347.498c21 13 37.001 30.167 48.001 51.5s16.5 44.333 16.5 69c0 39.333 -12.333 72.5 -37 99.5
s-58.334 40.5 -101.001 40.5c-28 0 -52.333 -6.5 -73 -19.5s-36.5 -30.167 -47.5 -51.5s-16.5 -44.333 -16.5 -69s5.5 -47.667 16.5 -69s26.833 -38.5 47.5 -51.5s45 -19.5 73 -19.5s52.5 6.5 73.5 19.5z" />
    <glyph glyph-name="colon" unicode=":" horiz-adv-x="253" 
d="M71.5 23.5c-15.667 15.667 -23.5 34.167 -23.5 55.5s7.83301 39.666 23.5 54.999s34.167 23 55.5 23s39.666 -7.66699 54.999 -23s23 -33.666 23 -54.999s-7.66699 -39.833 -23 -55.5s-33.666 -23.5 -54.999 -23.5s-39.833 7.83301 -55.5 23.5zM71.5 376.5
c-15.667 15.667 -23.5 34.167 -23.5 55.5s7.83301 39.666 23.5 54.999s34.167 23 55.5 23s39.666 -7.66699 54.999 -23s23 -33.666 23 -54.999s-7.66699 -39.833 -23 -55.5s-33.666 -23.5 -54.999 -23.5s-39.833 7.83301 -55.5 23.5z" />
    <glyph glyph-name="semicolon" unicode=";" horiz-adv-x="255" 
d="M73.5 376c-15.667 15.333 -23.5 33.668 -23.5 55.001s7.83301 39.833 23.5 55.5s34.167 23.5 55.5 23.5s39.666 -7.83301 54.999 -23.5s23 -34.167 23 -55.5c0 -20.667 -7.66699 -38.834 -23 -54.501s-33.666 -23.5 -54.999 -23.5s-39.833 7.66699 -55.5 23zM48 -124.998
c21.333 18 37.501 37.1699 48.501 57.5029s17.167 43.166 18.5 68.499c-18.667 2.66699 -34.167 11.5 -46.5 26.5s-18.5 32.167 -18.5 51.5c0 21.333 7.83301 39.666 23.5 54.999s34.167 23 55.5 23s39.666 -7.83301 54.999 -23.5s23 -34.834 23 -57.501
c0 -46 -11.5 -87 -34.5 -123s-56.833 -69.333 -101.5 -100z" />
    <glyph glyph-name="less" unicode="&#x3c;" horiz-adv-x="511" 
d="M61 255v90l374 206v-116l-251 -135l251 -135v-116z" />
    <glyph glyph-name="equal" unicode="=" horiz-adv-x="508" 
d="M47 272h413v-96h-413v96zM47 465h413v-96h-413v96z" />
    <glyph glyph-name="greater" unicode="&#x3e;" horiz-adv-x="511" 
d="M75 165l252 135l-252 135v116l374 -206v-90l-374 -206v116z" />
    <glyph glyph-name="question" unicode="?" horiz-adv-x="528" 
d="M218 252c-1.33301 32.667 2.00098 59.999 10.001 81.999s18.5 39.833 31.5 53.5s30.167 28.5 51.5 44.5c23.333 18 39.666 34.333 48.999 49s14 31.334 14 50.001c0 22 -9.33301 40.5 -28 55.5s-44 22.5 -76 22.5c-34 0 -62.167 -9.66699 -84.5 -29
s-34.833 -44.333 -37.5 -75l-102 8l-4 7c2.66699 36.667 14 69.334 34 98.001s46.667 51.167 80 67.5s71 24.5 113 24.5c72 0 126.667 -15.833 164 -47.5s56 -73.167 56 -124.5c0 -34.667 -8 -65.334 -24 -92.001s-41 -52 -75 -76
c-25.333 -17.333 -43.833 -34.333 -55.5 -51s-18.167 -37 -19.5 -61l-2 -33h-94zM210.501 23.499c-15.667 15.667 -23.5 34.167 -23.5 55.5s7.83301 39.666 23.5 54.999s34.167 23 55.5 23s39.833 -7.66699 55.5 -23s23.5 -33.666 23.5 -54.999
s-7.83301 -39.833 -23.5 -55.5s-34.167 -23.5 -55.5 -23.5s-39.833 7.83301 -55.5 23.5z" />
    <glyph glyph-name="at" unicode="@" horiz-adv-x="785" 
d="M244.5 -164c-57 30.667 -103.997 80.5029 -140.997 149.503s-55.5 157.167 -55.5 264.5c0 96 16.667 178.667 50 248s78.166 122 134.499 158s118.833 54 187.5 54c96 0 169.5 -23.333 220.5 -70s76.5 -110 76.5 -190v-450h-102v53
c-17.333 -18.667 -39.166 -33.834 -65.499 -45.501s-56.5 -17.5 -90.5 -17.5c-42.667 0 -81.667 10.333 -117 31s-63.5 50.667 -84.5 90s-31.5 85.666 -31.5 138.999s10.667 99.666 32 138.999s50 69.333 86 90s75.667 31 119 31c31.333 0 60.166 -5.16699 86.499 -15.5
s48.166 -24.5 65.499 -42.5c0 49.333 -16.5 89.5 -49.5 120.5s-81.5 46.5 -145.5 46.5c-43.333 0 -85.5 -11.833 -126.5 -35.5s-75.167 -63.167 -102.5 -118.5s-41 -127 -41 -215c0 -82 12.833 -150.667 38.5 -206s59.5 -96.333 101.5 -123s87.333 -40 136 -40
c37.333 0 68.666 4.5 93.999 13.5s48.333 24.833 69 47.5l93 -13l1 -5c-28 -47.333 -61.833 -81.5 -101.5 -102.5s-92.167 -31.5 -157.5 -31.5c-62.667 0 -122.5 15.333 -179.5 46zM545.503 98.0029c21 11.333 37.833 26.666 50.5 45.999s19 40 19 62v86
c0 22 -6.33301 42.833 -19 62.5s-29.5 35.334 -50.5 47.001s-43.833 17.5 -68.5 17.5c-43.333 0 -78.833 -14 -106.5 -42s-41.5 -70.333 -41.5 -127s13.833 -99 41.5 -127s63.167 -42 106.5 -42c24.667 0 47.5 5.66699 68.5 17z" />
    <glyph glyph-name="A" unicode="A" horiz-adv-x="672" 
d="M277 700h118l259 -700h-131l-45 127h-285l-43 -127h-132zM440 236l-91 264l-11 76h-3l-12 -76l-92 -264h209z" />
    <glyph glyph-name="B" unicode="B" horiz-adv-x="646" 
d="M68 700l282 -0.000976562c44.667 0 83.834 -7.66699 117.501 -23s59.5 -36.5 77.5 -63.5s27 -57.167 27 -90.5c0 -34.667 -7.33301 -63.667 -22 -87s-35.667 -43 -63 -59v-4c35.333 -11.333 65 -31.666 89 -60.999s36 -65 36 -107c0 -40.667 -10.167 -76.5 -30.5 -107.5
s-49.333 -55 -87 -72s-81.834 -25.5 -132.501 -25.5h-294v700zM353 412.999c68 0 102 29.667 102 89c0 58.667 -34 88 -102 88h-160v-177h160zM382 109.999c33.333 0 59.666 8.16797 78.999 24.501s29 40.166 29 71.499s-9.66699 55.333 -29 72s-45.666 25 -78.999 25h-189
v-193h189z" />
    <glyph glyph-name="C" unicode="C" horiz-adv-x="767" 
d="M224 35c-54 30 -96.832 72.332 -128.499 126.999s-47.5 117.334 -47.5 188.001s15.833 133.334 47.5 188.001s74.5 97 128.5 127s113.333 45 178 45c56 0 106.167 -9.83301 150.5 -29.5s80.666 -47.334 108.999 -83.001s47.5 -76.5 57.5 -122.5l-4 -8l-117 -9
c-12.667 44 -36.334 78.333 -71.001 103s-77 37 -127 37c-45.333 0 -85.166 -10.5 -119.499 -31.5s-60.666 -50.333 -78.999 -88s-27.5 -80.5 -27.5 -128.5s9.33301 -90.833 28 -128.5s45.167 -67 79.5 -88s74.5 -31.5 120.5 -31.5c49.333 0 91 12.333 125 37
s57.667 59 71 103l116 -9l5 -8c-18.667 -73.333 -55.834 -130.833 -111.501 -172.5s-124.167 -62.5 -205.5 -62.5c-64.667 0 -124 15 -178 45z" />
    <glyph glyph-name="D" unicode="D" horiz-adv-x="712" 
d="M68 700h226c75.333 0 140.833 -14.167 196.5 -42.5s98.5 -68.833 128.5 -121.5s45 -114.667 45 -186s-15 -133.333 -45 -186s-72.833 -93.167 -128.5 -121.5s-121.167 -42.5 -196.5 -42.5h-226v700zM290 110c78.667 0 139.834 20.1689 183.501 60.502
s65.5 100.166 65.5 179.499s-21.833 139.166 -65.5 179.499s-104.834 60.5 -183.501 60.5h-97v-480h97z" />
    <glyph glyph-name="E" unicode="E" horiz-adv-x="576" 
d="M68 700h442v-110h-317v-185h290v-110h-290v-185h328v-110h-453v700z" />
    <glyph glyph-name="F" unicode="F" horiz-adv-x="564" 
d="M68 700h454v-110h-329v-194h303v-109h-303v-287h-125v700z" />
    <glyph glyph-name="G" unicode="G" horiz-adv-x="772" 
d="M223.5 36c-54.333 30.667 -97.168 73.333 -128.501 128s-47 116.667 -47 186s15.5 131.333 46.5 186s73.5 97.334 127.5 128.001s114 46 180 46c80 0 148 -20.333 204 -61s92 -96 108 -166l-4 -7l-116 -9c-14 42.667 -37.167 75.5 -69.5 98.5s-73.5 34.5 -123.5 34.5
c-44.667 0 -84.334 -10.667 -119.001 -32s-61.334 -50.833 -80.001 -88.5s-28 -80.834 -28 -129.501s9.33301 -91.834 28 -129.501s45.334 -67 80.001 -88s75 -31.5 121 -31.5c58 0 104 15.5 138 46.5s54.333 74.5 61 130.5h-261v102h383v-57
c0 -64.667 -13.167 -122.167 -39.5 -172.5s-63.666 -89.666 -111.999 -117.999s-104.833 -42.5 -169.5 -42.5c-65.333 0 -125.166 15.333 -179.499 46z" />
    <glyph glyph-name="H" unicode="H" horiz-adv-x="681" 
d="M68 700h125v-295h295v295h125v-700h-125v295h-295v-295h-125v700z" />
    <glyph glyph-name="I" unicode="I" horiz-adv-x="261" 
d="M68 700h125v-700h-125v700z" />
    <glyph glyph-name="J" unicode="J" horiz-adv-x="542" 
d="M133.5 18.5c-33 19 -58.334 44.832 -76.001 77.499s-27.167 69.334 -28.5 110.001l5 6l114 9c0.666992 -41.333 9.66699 -72.5 27 -93.5s42.333 -31.5 75 -31.5s57.334 10 74.001 30s25 49 25 87v487h125v-477c0 -72.667 -19.5 -129.667 -58.5 -171
s-94.167 -62 -165.5 -62c-44.667 0 -83.5 9.5 -116.5 28.5z" />
    <glyph glyph-name="K" unicode="K" horiz-adv-x="630" 
d="M68 700h125v-290h3l249 290h145l-284 -328l296 -372h-157l-249 318h-3v-318h-125v700z" />
    <glyph glyph-name="L" unicode="L" horiz-adv-x="590" 
d="M68 700h125v-590h343v-110h-468v700z" />
    <glyph glyph-name="M" unicode="M" horiz-adv-x="819" 
d="M68 700h125l216 -546l217 546h125v-700h-120v439h-4l-5 -44l-155 -395h-115l-155 395l-5 44h-4v-439h-120v700z" />
    <glyph glyph-name="N" unicode="N" horiz-adv-x="696" 
d="M68 700h137l289 -487l6 -28h3v515h125v-700h-137l-289 487l-6 28h-3v-515h-125v700z" />
    <glyph glyph-name="O" unicode="O" horiz-adv-x="803" 
d="M221.5 35.5c-53.667 30.333 -96 72.833 -127 127.5s-46.5 117 -46.5 187s15.5 132.333 46.5 187s73.333 97.167 127 127.5s113.5 45.5 179.5 45.5c66.667 0 126.834 -15.167 180.501 -45.5s96 -72.833 127 -127.5s46.5 -117 46.5 -187s-15.5 -132.333 -46.5 -187
s-73.333 -97.167 -127 -127.5s-113.834 -45.5 -180.501 -45.5c-66 0 -125.833 15.167 -179.5 45.5zM520.5 133.5c34.333 21 60.833 50.167 79.5 87.5s28 80.333 28 129s-9.33301 91.667 -28 129s-45.167 66.5 -79.5 87.5s-74.166 31.5 -119.499 31.5
s-85.166 -10.5 -119.499 -31.5s-60.833 -50.167 -79.5 -87.5s-28 -80.333 -28 -129s9.33301 -91.667 28 -129s45.167 -66.5 79.5 -87.5s74.166 -31.5 119.499 -31.5s85.166 10.5 119.499 31.5z" />
    <glyph glyph-name="P" unicode="P" horiz-adv-x="644" 
d="M68 700h260c53.333 0 100.166 -9.33301 140.499 -28s71.666 -45.667 93.999 -81s33.5 -77 33.5 -125c0 -48.667 -11.167 -90.667 -33.5 -126s-53.666 -62.333 -93.999 -81s-87.166 -28 -140.499 -28h-135v-231h-125v700zM324 341c98 0 147 41.667 147 125
c0 82.667 -49 124 -147 124h-131v-249h131z" />
    <glyph glyph-name="Q" unicode="Q" horiz-adv-x="803" 
d="M475.5 -150c-31.667 16 -58.6699 36.499 -81.0029 61.499s-36.833 52.5 -43.5 82.5c-58 6.66699 -110 25.834 -156 57.501s-82 73.167 -108 124.5s-39 109.333 -39 174c0 70 15.5 132.333 46.5 187s73.333 97.167 127 127.5s113.5 45.5 179.5 45.5
c66.667 0 126.834 -15.167 180.501 -45.5s96 -72.833 127 -127.5s46.5 -117 46.5 -187c0 -58 -12.667 -113.167 -38 -165.5s-59.5 -95.333 -102.5 -129s-89.5 -52.834 -139.5 -57.501v-5c8.66699 -19.333 26.334 -36.666 53.001 -51.999s55.334 -25 86.001 -29v-5l-40 -87
c-34 4 -66.833 14 -98.5 30zM520.497 133.499c34.333 21 60.833 50.167 79.5 87.5s28 80.333 28 129s-9.33301 91.667 -28 129s-45.167 66.5 -79.5 87.5s-74.166 31.5 -119.499 31.5s-85.166 -10.5 -119.499 -31.5s-60.833 -50.167 -79.5 -87.5s-28 -80.333 -28 -129
s9.33301 -91.667 28 -129s45.167 -66.5 79.5 -87.5s74.166 -31.5 119.499 -31.5s85.166 10.5 119.499 31.5z" />
    <glyph glyph-name="R" unicode="R" horiz-adv-x="643" 
d="M68 700h242.999c53.333 0 99.833 -9.33301 139.5 -28s70.334 -45.167 92.001 -79.5s32.5 -74.5 32.5 -120.5c0 -44.667 -10.333 -83 -31 -115s-50.667 -59.667 -90 -83v-5l157 -269h-140l-141 247h-137v-247h-125v700zM319.999 357c40 0 71.667 10.168 95 30.501
s35 49.166 35 86.499c0 36.667 -11.5 65.167 -34.5 85.5s-54.833 30.5 -95.5 30.5h-127v-233h127z" />
    <glyph glyph-name="S" unicode="S" horiz-adv-x="623" 
d="M180 18c-40 18.667 -72.3301 45 -96.9971 79s-38.667 73.333 -42 118l4 5l117 11c4 -42 20.167 -74.667 48.5 -98s63.166 -35 104.499 -35c38.667 0 70.334 9.83301 95.001 29.5s37 47.5 37 83.5c0 37.333 -13.333 65.333 -40 84s-70.334 34.667 -131.001 48
c-66.667 15.333 -118.167 37.5 -154.5 66.5s-54.5 69.5 -54.5 121.5c0 36 10 67.5 30 94.5s47.333 47.833 82 62.5s73.667 22 117 22c71.333 0 128.166 -17.667 170.499 -53s66.833 -83 73.5 -143l-5 -6l-110 -6c-4.66699 35.333 -18 62.166 -40 80.499s-52 27.5 -90 27.5
c-32 0 -58 -6.66699 -78 -20s-30 -30.666 -30 -51.999c0 -27.333 12.833 -48 38.5 -62s68.834 -28.333 129.501 -43c68 -16 121 -40.667 159 -74s57 -80.333 57 -141c0 -46 -11.333 -86.167 -34 -120.5s-53.834 -60.833 -93.501 -79.5s-83.834 -28 -132.501 -28
c-47.333 0 -91 9.33301 -131 28z" />
    <glyph glyph-name="T" unicode="T" horiz-adv-x="547" 
d="M211 590h-177v110h479v-110h-177v-590h-125v590z" />
    <glyph glyph-name="U" unicode="U" horiz-adv-x="676" 
d="M193 24c-40.667 22.667 -71.667 54.5 -93 95.5s-32 88.167 -32 141.5v439h125v-437c0 -52 12.167 -91.833 36.5 -119.5s60.5 -41.5 108.5 -41.5s84.167 13.833 108.5 41.5s36.5 67.5 36.5 119.5v437h125v-439c0 -53.333 -10.667 -100.5 -32 -141.5
s-52.333 -72.833 -93 -95.5s-89 -34 -145 -34s-104.333 11.333 -145 34z" />
    <glyph glyph-name="V" unicode="V" horiz-adv-x="642" 
d="M14 700h136l154 -474l16 -87h2l16 87l154 474h136l-239 -700h-136z" />
    <glyph glyph-name="W" unicode="W" horiz-adv-x="988" 
d="M14 700h133l122 -464l16 -90h3l14 90l130 464h124l129 -464l15 -90h3l15 90l123 464h133l-203 -700h-133l-144 531l-144 -531h-133z" />
    <glyph glyph-name="X" unicode="X" horiz-adv-x="630" 
d="M248 384l-185 316h134l118 -213l118 213h135l-185 -316l233 -384h-137l-164 278l-163 -278h-138z" />
    <glyph glyph-name="Y" unicode="Y" horiz-adv-x="578" 
d="M226 252l-211 448h134l125 -271l13 -76h4l13 76l125 271h134l-212 -448v-252h-125v252z" />
    <glyph glyph-name="Z" unicode="Z" horiz-adv-x="596" 
d="M40 109l349 481h-331v110h480v-89l-361 -501h373v-110h-510v109z" />
    <glyph glyph-name="bracketleft" unicode="[" horiz-adv-x="294" 
d="M48 700h216v-100h-105v-700h105v-100h-216v900z" />
    <glyph glyph-name="backslash" unicode="\" horiz-adv-x="551" 
d="M25 700h120l380 -700h-120z" />
    <glyph glyph-name="bracketright" unicode="]" horiz-adv-x="294" 
d="M30 -200v100h105v700h-105v100h216v-900h-216z" />
    <glyph glyph-name="asciicircum" unicode="^" horiz-adv-x="562" 
d="M232 700h97l192 -290h-124l-116 185l-116 -185h-124z" />
    <glyph glyph-name="underscore" unicode="_" horiz-adv-x="504" 
d="M23 -10h459v-96h-459v96z" />
    <glyph glyph-name="grave" unicode="`" horiz-adv-x="272" 
d="M30 703h133l79 -139h-101z" />
    <glyph glyph-name="a" unicode="a" horiz-adv-x="562" 
d="M85.5 30.5c-30.333 27 -45.5 63.168 -45.5 108.501c0 46 15.833 82.5 47.5 109.5s73.5 43.167 125.5 48.5l145 15v27c0 26 -8.66699 45.833 -26 59.5s-40.666 20.5 -69.999 20.5c-26 0 -47.167 -6.33301 -63.5 -19s-26.833 -31.334 -31.5 -56.001l-99 5l-5 4
c9.33301 50.667 32.666 89.5 69.999 116.5s81.666 40.5 132.999 40.5c60.667 0 109.667 -15.167 147 -45.5s56 -71.833 56 -124.5v-205c0 -33.333 13.333 -50 40 -50c6 0 13.333 1 22 3l3 -2v-82c-20.667 -6.66699 -41.667 -10 -63 -10c-24 0 -45.5 5.66699 -64.5 17
s-32.833 30 -41.5 56h-3c-21.333 -23.333 -45.833 -42 -73.5 -56s-57.5 -21 -89.5 -21c-45.333 0 -83.166 13.5 -113.499 40.5zM293 102.501c22 13 43.667 31.833 65 56.5v73l-130 -15c-26 -3.33301 -45.667 -11.5 -59 -24.5s-20 -28.833 -20 -47.5
c0 -20 6.66699 -35.333 20 -46s30.333 -16 51 -16c26.667 0 51 6.5 73 19.5z" />
    <glyph glyph-name="b" unicode="b" horiz-adv-x="608" 
d="M178 55l0.000976562 -55.0029h-114v730h114v-280c20 18.667 43.5 33.334 70.5 44.001s56.833 16 89.5 16c42.667 0 81.5 -10.167 116.5 -30.5s63 -50.166 84 -89.499s31.5 -86 31.5 -140s-10.833 -100.667 -32.5 -140s-50.334 -69.166 -86.001 -89.499
s-73.5 -30.5 -113.5 -30.5c-64.667 0 -118 21.667 -160 65zM415.001 129.497c26.667 27.667 40 67.8311 40 120.498s-13.333 92.834 -40 120.501s-61 41.5 -103 41.5c-24 0 -46.333 -5.5 -67 -16.5s-37 -26.167 -49 -45.5s-18 -40.666 -18 -63.999v-73
c0 -23.333 6.16699 -44.5 18.5 -63.5s28.833 -34 49.5 -45s42.667 -16.5 66 -16.5c42 0 76.333 13.833 103 41.5z" />
    <glyph glyph-name="c" unicode="c" horiz-adv-x="572" 
d="M163.5 23c-39 22 -69.6699 52.665 -92.0029 91.998s-33.5 84.333 -33.5 135s11.167 95.667 33.5 135s53 70 92 92s82.5 33 130.5 33c65.333 0 119.333 -16.667 162 -50s68.667 -79.666 78 -138.999l-3 -5l-100 -6c-7.33301 30.667 -22.666 54.834 -45.999 72.501
s-53.333 26.5 -90 26.5c-42.667 0 -77.5 -14 -104.5 -42s-40.5 -67 -40.5 -117s13.5 -89 40.5 -117s61.833 -42 104.5 -42c36.667 0 66.334 8.5 89.001 25.5s38.334 41.5 47.001 73.5l100 -6l3 -5c-12 -60 -39 -106.5 -81 -139.5s-95 -49.5 -159 -49.5
c-48 0 -91.5 11 -130.5 33z" />
    <glyph glyph-name="d" unicode="d" horiz-adv-x="608" 
d="M159 21c-36 20.667 -65.1641 50.6689 -87.4971 90.002s-33.5 85.666 -33.5 138.999c0 54 10.667 100.667 32 140s50.166 69.166 86.499 89.499s76.166 30.5 119.499 30.5c30.667 0 59.167 -5 85.5 -15s49.166 -24 68.499 -42v277h114v-730h-114v54
c-40 -42.667 -92.333 -64 -157 -64c-40 0 -78 10.333 -114 31zM390.503 124.002c26.333 24 39.499 53.6699 39.499 89.0029v73c0 35.333 -13.167 65.166 -39.5 89.499s-58.166 36.5 -95.499 36.5c-41.333 0 -75.333 -13.833 -102 -41.5s-40 -67.834 -40 -120.501
s13.333 -92.834 40 -120.501s61 -41.5 103 -41.5c36.667 0 68.167 12 94.5 36z" />
    <glyph glyph-name="e" unicode="e" horiz-adv-x="564" 
d="M157 22.5c-38 21.667 -67.334 52.1699 -88.001 91.5029s-31 84.666 -31 135.999c0 50.667 11.5 95.667 34.5 135s53.5 70 91.5 92s79.333 33 124 33c47.333 0 89.5 -10.167 126.5 -30.5s65.833 -49.833 86.5 -88.5s31 -84.334 31 -137.001v-35h-383
c2.66699 -40.667 16.834 -72.834 42.501 -96.501s58.5 -35.5 98.5 -35.5c34 0 62 7.83301 84 23.5s37.667 37.167 47 64.5l100 -6l3 -5c-16 -56 -44.167 -99 -84.5 -129s-90.833 -45 -151.5 -45c-49.333 0 -93 10.833 -131 32.5zM423.999 302.003
c-3.33301 36 -17.5 64.167 -42.5 84.5s-56.167 30.5 -93.5 30.5c-34.667 0 -64.5 -10.167 -89.5 -30.5s-40.833 -48.5 -47.5 -84.5h273z" />
    <glyph glyph-name="f" unicode="f" horiz-adv-x="363" 
d="M112 402h-85v98h85v88c0 50.667 14.833 88.667 44.5 114s67.167 38 112.5 38c22 0 44.333 -3.33301 67 -10v-94l-3 -2c-18 6 -35 9 -51 9c-17.333 0 -30.833 -4.66699 -40.5 -14s-14.5 -23.333 -14.5 -42v-87h107v-98h-107v-402h-115v402z" />
    <glyph glyph-name="g" unicode="g" horiz-adv-x="598" 
d="M137.5 -167c-37.667 28.667 -60.498 65.3301 -68.498 109.997l5 5l112 7c5.33301 -21.333 16.666 -38.166 33.999 -50.499s41.666 -18.5 72.999 -18.5c44 0 76.667 11.333 98 34s32 53.334 32 92.001v46c-22 -20 -44.5 -34.667 -67.5 -44s-50.833 -14 -83.5 -14
c-43.333 0 -82.833 10.333 -118.5 31s-63.834 50.167 -84.501 88.5s-31 83.5 -31 135.5c0 51.333 10.833 96.333 32.5 135s50.334 68.334 86.001 89.001s74.5 31 116.5 31c60.667 0 110.667 -19.667 150 -59v49h111v-489c0 -68.667 -21.167 -122.667 -63.5 -162
s-101.833 -59 -178.5 -59c-65.333 0 -116.833 14.333 -154.5 43zM386.502 131.996c24.333 24 36.5 55 36.5 93v58c0 38 -12.833 69.333 -38.5 94s-57.167 37 -94.5 37c-41.333 0 -75.166 -13 -101.499 -39s-39.5 -66 -39.5 -120s13.167 -94 39.5 -120
s60.166 -39 101.499 -39c40 0 72.167 12 96.5 36z" />
    <glyph glyph-name="h" unicode="h" horiz-adv-x="591" 
d="M64 730h113.999v-293c20 20.667 45.833 38 77.5 52s64.834 21 99.501 21c53.333 0 96 -15.167 128 -45.5s48 -71.5 48 -123.5v-341h-114v315c0 30.667 -9 54.167 -27 70.5s-41.667 24.5 -71 24.5c-26.667 0 -52.5 -7.16699 -77.5 -21.5s-46.167 -33.5 -63.5 -57.5v-331
h-114v730z" />
    <glyph glyph-name="i" unicode="i" horiz-adv-x="238" 
d="M69 586c-14 14 -21 30.667 -21 50s7 36 21 50s30.667 21 50 21s36 -7 50 -21s21 -30.667 21 -50s-7 -36 -21 -50s-30.667 -21 -50 -21s-36 7 -50 21zM62 500h114v-500h-114v500z" />
    <glyph glyph-name="j" unicode="j" horiz-adv-x="240" 
d="M71 586c-14 14 -21 30.667 -21 50s7 36 21 50s30.667 21 50 21s36 -7 50 -21s21 -30.667 21 -50s-7 -36 -21 -50s-30.667 -21 -50 -21s-36 7 -50 21zM-36 -200l0.000976562 99l5 3c7.33301 -2.66699 15.166 -5 23.499 -7s16.833 -3 25.5 -3c30.667 0 46 17 46 51v557h114
v-568c0 -47.333 -12.5 -82.833 -37.5 -106.5s-59.5 -35.5 -103.5 -35.5c-24 0 -48.333 3.33301 -73 10z" />
    <glyph glyph-name="k" unicode="k" horiz-adv-x="515" 
d="M64 730h114v-402h4l159 172h140l-207 -222l223 -278h-139l-176 217h-4v-217h-114v730z" />
    <glyph glyph-name="l" unicode="l" horiz-adv-x="242" 
d="M64 730h114v-730h-114v730z" />
    <glyph glyph-name="m" unicode="m" horiz-adv-x="830" 
d="M64 500h113.999v-59c42 46 92 69 150 69c31.333 0 57 -6 77 -18s36 -29.667 48 -53c48.667 47.333 103 71 163 71c50 0 88.167 -13.333 114.5 -40s39.5 -62.667 39.5 -108v-362h-114v333c0 24 -6 42.833 -18 56.5s-30.333 20.5 -55 20.5
c-43.333 0 -79.666 -22.333 -108.999 -67v-343h-114v331c0 24.667 -5.83301 44 -17.5 58s-29.5 21 -53.5 21c-21.333 0 -41.5 -6.83301 -60.5 -20.5s-35.833 -31.5 -50.5 -53.5v-336h-114v500z" />
    <glyph glyph-name="n" unicode="n" horiz-adv-x="578" 
d="M64 500l114 0.00195312v-65c20.667 21.333 45.834 39.166 75.501 53.499s61.5 21.5 95.5 21.5c53.333 0 94.833 -15.167 124.5 -45.5s44.5 -70.5 44.5 -120.5v-344h-114v315c0 30.667 -7.83301 54.167 -23.5 70.5s-38.5 24.5 -68.5 24.5
c-25.333 0 -49.833 -7.83301 -73.5 -23.5s-43.834 -35.834 -60.501 -60.501v-326h-114v500z" />
    <glyph glyph-name="o" unicode="o" horiz-adv-x="605" 
d="M165.5 24c-40.333 22.667 -71.666 53.667 -93.999 93s-33.5 83.666 -33.5 132.999s11.167 93.666 33.5 132.999s53.666 70.333 93.999 93s86.166 34 137.499 34s97 -11.333 137 -34s71.167 -53.667 93.5 -93s33.5 -83.666 33.5 -132.999s-11.167 -93.666 -33.5 -132.999
s-53.5 -70.333 -93.5 -93s-85.667 -34 -137 -34s-97.166 11.333 -137.499 34zM411 133.5c28 28.333 42 67.166 42 116.499s-14 88.166 -42 116.499s-64 42.5 -108 42.5s-80.167 -14.167 -108.5 -42.5s-42.5 -67.166 -42.5 -116.499s14.167 -88.166 42.5 -116.499
s64.5 -42.5 108.5 -42.5s80 14.167 108 42.5z" />
    <glyph glyph-name="p" unicode="p" horiz-adv-x="608" 
d="M64 500l113.998 -0.00195312v-55c42 43.333 95.333 65 160 65c40 0 77.833 -10.167 113.5 -30.5s64.334 -50.166 86.001 -89.499s32.5 -86 32.5 -140s-10.833 -100.667 -32.5 -140s-50.667 -69.166 -87 -89.499s-76.166 -30.5 -119.499 -30.5c-30 0 -58.5 5 -85.5 15
s-49.5 24 -67.5 42v-247h-114v700zM414.998 129.498c26.667 27.667 40 67.8311 40 120.498s-13.333 92.834 -40 120.501s-61 41.5 -103 41.5c-36.667 0 -68.167 -12 -94.5 -36s-39.5 -53.667 -39.5 -89v-73c0 -23.333 6 -44.666 18 -63.999s28.333 -34.5 49 -45.5
s43 -16.5 67 -16.5c42 0 76.333 13.833 103 41.5z" />
    <glyph glyph-name="q" unicode="q" horiz-adv-x="608" 
d="M430 47c-19.333 -18 -42.333 -31.998 -69 -41.998s-55.334 -15 -86.001 -15c-43.333 0 -83 10.167 -119 30.5s-64.667 50.166 -86 89.499s-32 86 -32 140c0 53.333 11 99.666 33 138.999s51 69.333 87 90s74 31 114 31c35.333 0 66.333 -6 93 -18
s48.334 -27.333 65.001 -46v54h114v-700h-114v247zM390.5 124.502c26.333 24.333 39.501 54.1689 39.501 89.502v73c0 35.333 -13.167 65 -39.5 89s-57.833 36 -94.5 36c-42 0 -76.333 -13.833 -103 -41.5s-40 -67.834 -40 -120.501s13.333 -92.834 40 -120.501
s60.667 -41.5 102 -41.5c37.333 0 69.166 12.167 95.499 36.5z" />
    <glyph glyph-name="r" unicode="r" horiz-adv-x="393" 
d="M64 500h113.999v-62c42 48 90 72 144 72c18 0 32.333 -2.66699 43 -8l-15 -92l-4 -3c-8 2 -19 3 -33 3c-28 0 -53.667 -8 -77 -24s-42.666 -39 -57.999 -69v-317h-114v500z" />
    <glyph glyph-name="s" unicode="s" horiz-adv-x="473" 
d="M99 31.5c-36.667 27.667 -59.668 66.166 -69.001 115.499l2 6l95 16c6.66699 -27.333 19 -48.333 37 -63s44.667 -22 80 -22c24 0 44.167 5.33301 60.5 16s24.5 25.334 24.5 44.001s-9.33301 33.5 -28 44.5s-51.667 22.5 -99 34.5
c-51.333 12.667 -89.666 30.834 -114.999 54.501s-38 54.834 -38 93.501c0 25.333 7.33301 48.666 22 69.999s35.334 38.166 62.001 50.499s57 18.5 91 18.5c54 0 97.667 -12.5 131 -37.5s53.333 -60.833 60 -107.5l-2 -5l-97 -13c-4.66699 24.667 -15.167 43.5 -31.5 56.5
s-36.833 19.5 -61.5 19.5c-19.333 0 -36.166 -4 -50.499 -12s-21.5 -19.667 -21.5 -35c0 -16 9.66699 -29.333 29 -40s53.333 -22.667 102 -36c52.667 -14 91.667 -32.333 117 -55s38 -53 38 -91c0 -30.667 -8 -58.5 -24 -83.5s-38.833 -44.667 -68.5 -59
s-63.834 -21.5 -102.501 -21.5c-58.667 0 -106.334 13.833 -143.001 41.5z" />
    <glyph glyph-name="t" unicode="t" horiz-adv-x="380" 
d="M153 25.5c-24.667 23.667 -37 58.167 -37 103.5v273h-93v98h93v147h9l106 -37v-110h112v-98h-112v-263c0 -16.667 4.83301 -29.5 14.5 -38.5s23.834 -13.5 42.501 -13.5c15.333 0 31 2 47 6l3 -2v-91c-27.333 -6.66699 -55.333 -10 -84 -10
c-42.667 0 -76.334 11.833 -101.001 35.5z" />
    <glyph glyph-name="u" unicode="u" horiz-adv-x="578" 
d="M104.5 36.5c-29.667 31 -44.501 73.168 -44.501 126.501v337h114v-315c0 -30.667 8.16699 -54.167 24.5 -70.5s39.5 -24.5 69.5 -24.5c26 0 50.333 7.66699 73 23s42.334 35.666 59.001 60.999v326h114v-500h-114v64c-20 -22 -44.667 -39.833 -74 -53.5
s-61.333 -20.5 -96 -20.5c-54 0 -95.833 15.5 -125.5 46.5z" />
    <glyph glyph-name="v" unicode="v" horiz-adv-x="550" 
d="M20 500h123l114 -306l16 -86h4l16 86l114 306h123l-192 -500h-125z" />
    <glyph glyph-name="w" unicode="w" horiz-adv-x="780" 
d="M20 500h119l81 -289l13 -84h2l14 84l87 289h109l85 -289l15 -84h2l13 84l82 289h118l-149 -500h-123l-98 362l-97 -362h-123z" />
    <glyph glyph-name="x" unicode="x" horiz-adv-x="512" 
d="M189 274l-155 226h130l92 -140l92 140h130l-155 -226l175 -274h-129l-113 184l-113 -184h-128z" />
    <glyph glyph-name="y" unicode="y" horiz-adv-x="553" 
d="M222 17l-202 483h126l119 -283l8 -67h5l136 350h119l-281 -700h-117z" />
    <glyph glyph-name="z" unicode="z" horiz-adv-x="460" 
d="M37 83l247 320h-235v97h373v-79l-248 -324h248v-97h-385v83z" />
    <glyph glyph-name="braceleft" unicode="{" horiz-adv-x="368" 
d="M128 -65v174c0 34.667 -6.16699 58.667 -18.5 72s-31.833 20 -58.5 20h-17v98h17c26.667 0 46.167 6.66699 58.5 20s18.5 37.333 18.5 72v174c0 90 44.667 135 134 135h58v-100h-20c-21.333 0 -36.833 -5.5 -46.5 -16.5s-14.5 -27.5 -14.5 -49.5v-182
c0 -53.333 -22 -87.333 -66 -102c44 -14.667 66 -48.667 66 -102v-182c0 -22 4.83301 -38.5 14.5 -49.5s25.167 -16.5 46.5 -16.5h20v-100h-58c-89.333 0 -134 45 -134 135z" />
    <glyph glyph-name="bar" unicode="|" horiz-adv-x="244" 
d="M68 700h108v-820h-108v820z" />
    <glyph glyph-name="braceright" unicode="}" horiz-adv-x="368" 
d="M48 -200v100h21c40.667 0 61 22 61 66v182c0 54 22 88 66 102c-44 14 -66 48 -66 102v182c0 44 -20.333 66 -61 66h-21v100h58c90 0 135 -45 135 -135v-174c0 -34.667 6 -58.667 18 -72s31.333 -20 58 -20h17v-98h-17c-26.667 0 -46 -6.66699 -58 -20
s-18 -37.333 -18 -72v-174c0 -90 -45 -135 -135 -135h-58z" />
    <glyph glyph-name="asciitilde" unicode="~" horiz-adv-x="498" 
d="M279 275.5c-14 5.66699 -30 13.834 -48 24.501c-12 7.33301 -22.167 12.833 -30.5 16.5s-17.166 5.5 -26.499 5.5c-12.667 0 -22.334 -4.5 -29.001 -13.5s-10.667 -20.5 -12 -34.5h-86c0.666992 43.333 12 77.166 34 101.499s50.333 36.5 85 36.5
c21.333 0 39 -2.83301 53 -8.5s30 -13.834 48 -24.501c12 -7.33301 22.167 -12.833 30.5 -16.5s17.166 -5.5 26.499 -5.5c12.667 0 22.334 4.5 29.001 13.5s10.667 20.5 12 34.5h86c-0.666992 -43.333 -12 -77.166 -34 -101.499s-50.333 -36.5 -85 -36.5
c-21.333 0 -39 2.83301 -53 8.5z" />
    <glyph glyph-name="uni00A0" unicode="&#xa0;" horiz-adv-x="99" 
 />
    <glyph glyph-name="exclamdown" unicode="&#xa1;" horiz-adv-x="293" 
d="M202 476.5c15.333 -15.667 23 -34.165 23 -55.498c0 -20.667 -7.66699 -38.834 -23 -54.501s-33.666 -23.5 -54.999 -23.5s-39.833 7.66699 -55.5 23s-23.5 33.666 -23.5 54.999s7.83301 39.833 23.5 55.5s34.167 23.5 55.5 23.5s39.666 -7.83301 54.999 -23.5z
M216 -199.998h-139l20 475h100z" />
    <glyph glyph-name="cent" unicode="&#xa2;" horiz-adv-x="572" 
d="M531 184l3 -4.99707c-10.667 -54 -33.334 -97 -68.001 -129s-79 -51.333 -133 -58v-92h-79v93c-41.333 5.33301 -78.333 19.666 -111 42.999s-58.334 53.333 -77.001 90s-28 78 -28 124s9.33301 87.333 28 124s44.334 66.667 77.001 90s69.667 37.666 111 42.999v103h79
v-102c55.333 -6.66699 100.5 -26.334 135.5 -59.001s56.833 -75.334 65.5 -128.001l-3 -5l-100 -6c-5.33301 24.667 -16.5 45.334 -33.5 62.001s-38.5 27.667 -64.5 33v-310c50.667 10 83.334 41.667 98.001 95zM178 148.003c18.667 -26.667 44 -44 76 -52v308
c-32 -8 -57.333 -25.333 -76 -52s-28 -60.667 -28 -102s9.33301 -75.333 28 -102z" />
    <glyph glyph-name="sterling" unicode="&#xa3;" horiz-adv-x="593" 
d="M65 94c30 25.333 52.167 48.833 66.5 70.5s21.5 47.5 21.5 77.5c0 13.333 -1.66699 27.333 -5 42h-96v96h58c-12.667 24.667 -22.167 46.667 -28.5 66s-9.5 41 -9.5 65c0 38 9.66699 72.167 29 102.5s46.333 54 81 71s74 25.5 118 25.5
c72.667 0 130.167 -17.167 172.5 -51.5s65.833 -82.833 70.5 -145.5l-6 -7l-108 -6c-4 33.333 -18 58.833 -42 76.5s-52.667 26.5 -86 26.5c-35.333 0 -63.333 -9.5 -84 -28.5s-31 -43.167 -31 -72.5c0 -20 3.16699 -37.833 9.5 -53.5s17.5 -38.5 33.5 -68.5h213v-96h-177
c2 -10 3 -20.333 3 -31c0 -56.667 -21.333 -104.667 -64 -144h328v-109h-467v94z" />
    <glyph glyph-name="currency" unicode="&#xa4;" horiz-adv-x="567" 
d="M56 133l67 68c-17.333 28.667 -26 61.667 -26 99s8.66699 70.333 26 99l-67 68l60 60l67 -66c31.333 17.333 64.666 26 99.999 26c36.667 0 70 -8.66699 100 -26l67 66l61 -60l-68 -68c18 -28 27 -61 27 -99s-9 -71 -27 -99l68 -68l-61 -60l-67 66
c-30 -17.333 -63.333 -26 -100 -26c-35.333 0 -68.666 8.66699 -99.999 26l-67 -66zM355 223c19.333 18 29 43.667 29 77s-9.66699 59 -29 77s-43.333 27 -72 27s-52.5 -9 -71.5 -27s-28.5 -43.667 -28.5 -77s9.5 -59 28.5 -77s42.833 -27 71.5 -27s52.667 9 72 27z" />
    <glyph glyph-name="yen" unicode="&#xa5;" horiz-adv-x="598" 
d="M236 154h-141v90h141v52h-141v90h93l-173 314h134l135 -257l13 -57h4l13 57l135 257h134l-174 -314h94v-90h-142v-52h142v-90h-142v-154h-125v154z" />
    <glyph glyph-name="brokenbar" unicode="&#xa6;" horiz-adv-x="244" 
d="M68 700h108v-352h-108v352zM68 232h108v-352h-108v352z" />
    <glyph glyph-name="section" unicode="&#xa7;" 
d="M146 -162.5c-37.333 31.667 -59.002 74.167 -65.002 127.5l5 5l105 7c2.66699 -28 13.834 -49.833 33.501 -65.5s44.834 -23.5 75.501 -23.5c28.667 0 51.667 6.16699 69 18.5s26 28.5 26 48.5c0 18 -5 32.5 -15 43.5s-26 20.5 -48 28.5s-53.333 15.667 -94 23
c-60.667 10.667 -109.167 33.834 -145.5 69.501s-54.5 80.167 -54.5 133.5c0 40.667 10.833 76 32.5 106s50.5 52 86.5 66c-42 28 -63 66.667 -63 116c0 33.333 9.5 62.833 28.5 88.5s44.167 45.5 75.5 59.5s65.333 21 102 21c66.667 0 118.667 -15.833 156 -47.5
s59 -74.167 65 -127.5l-5 -5l-106 -7c-2 28 -13 49.833 -33 65.5s-45.333 23.5 -76 23.5c-28 0 -50.667 -6.16699 -68 -18.5s-26 -28.5 -26 -48.5c0 -24 11.5 -42.833 34.5 -56.5s63.833 -26.5 122.5 -38.5c133.333 -27.333 200 -95 200 -203
c0 -40 -11.167 -74.833 -33.5 -104.5s-50.833 -51.834 -85.5 -66.501c42 -29.333 63 -69 63 -119c0 -32.667 -9.5 -61.667 -28.5 -87s-44.167 -45 -75.5 -59s-65.333 -21 -102 -21c-66.667 0 -118.667 15.833 -156 47.5zM411.998 161
c23.333 19.333 35.001 46.999 35.001 82.999c0 38 -16.167 68.167 -48.5 90.5s-72.5 33.5 -120.5 33.5c-34.667 0 -63.834 -9.66699 -87.501 -29s-35.5 -45.666 -35.5 -78.999c0 -40 15.667 -71.333 47 -94s71.333 -34 120 -34c36.667 0 66.667 9.66699 90 29z" />
    <glyph glyph-name="dieresis" unicode="&#xa8;" horiz-adv-x="364" 
d="M49 591c-12.667 12.667 -19 27.334 -19 44.001c0 17.333 6.33301 32.166 19 44.499s27.334 18.5 44.001 18.5c17.333 0 32.166 -6.16699 44.499 -18.5s18.5 -27.166 18.5 -44.499c0 -16.667 -6.16699 -31.334 -18.5 -44.001s-27.166 -19 -44.499 -19
c-16.667 0 -31.334 6.33301 -44.001 19zM227 591c-12.667 12.667 -19 27.334 -19 44.001c0 17.333 6.33301 32.166 19 44.499s27.334 18.5 44.001 18.5c17.333 0 32.166 -6.16699 44.499 -18.5s18.5 -27.166 18.5 -44.499c0 -16.667 -6.16699 -31.334 -18.5 -44.001
s-27.166 -19 -44.499 -19c-16.667 0 -31.334 6.33301 -44.001 19z" />
    <glyph glyph-name="copyright" unicode="&#xa9;" horiz-adv-x="816" 
d="M225.5 38.5c-55 32.333 -98.333 76 -130 131s-47.5 115.167 -47.5 180.5s15.833 125.5 47.5 180.5s75 98.667 130 131s115.833 48.5 182.5 48.5s127.5 -16.167 182.5 -48.5s98.333 -76 130 -131s47.5 -115.167 47.5 -180.5s-15.833 -125.5 -47.5 -180.5
s-75 -98.667 -130 -131s-115.833 -48.5 -182.5 -48.5s-127.5 16.167 -182.5 48.5zM549.5 104c43 25.333 76.833 59.833 101.5 103.5s37 91.167 37 142.5s-12.333 98.833 -37 142.5s-58.5 78.167 -101.5 103.5s-90.167 38 -141.5 38s-98.5 -12.667 -141.5 -38
s-76.833 -59.833 -101.5 -103.5s-37 -91.167 -37 -142.5s12.333 -98.833 37 -142.5s58.5 -78.167 101.5 -103.5s90.167 -38 141.5 -38s98.5 12.667 141.5 38zM307 173.5c-30 17 -53.5 40.833 -70.5 71.5s-25.5 65.667 -25.5 105s8.5 74.333 25.5 105s40.5 54.5 70.5 71.5
s63.667 25.5 101 25.5c48.667 0 89.5 -12.5 122.5 -37.5s53.167 -59.167 60.5 -102.5l-2 -2l-69 -7c-7.33301 25.333 -20.333 44.833 -39 58.5s-42.667 20.5 -72 20.5c-36 0 -65.5 -12 -88.5 -36s-34.5 -56 -34.5 -96s11.5 -72 34.5 -96s52.5 -36 88.5 -36
c29.333 0 53 6.5 71 19.5s31.667 33.167 41 60.5l68 -8l1 -3c-11.333 -45.333 -32.5 -79.833 -63.5 -103.5s-70.5 -35.5 -118.5 -35.5c-37.333 0 -71 8.5 -101 25.5z" />
    <glyph glyph-name="ordfeminine" unicode="&#xaa;" horiz-adv-x="456" 
d="M73.5 332c-23.667 21.333 -35.501 49.665 -35.501 84.998c0 36 12.5 64.833 37.5 86.5s57.833 34.5 98.5 38.5l115 12v22c0 20.667 -6.83301 36.334 -20.5 47.001s-32.167 16 -55.5 16c-20.667 0 -37.5 -5.16699 -50.5 -15.5s-21.167 -25.166 -24.5 -44.499l-75 4l-7 3
c7.33301 40 25.833 70.667 55.5 92s64.5 32 104.5 32c48 0 86.667 -12 116 -36s44 -56.333 44 -97v-163c0 -26 10.667 -39 32 -39c4.66699 0 10.334 1 17.001 3l2 -9v-58c-16.667 -5.33301 -33 -8 -49 -8c-43.333 0 -71 19.333 -83 58h-3c-36 -40.667 -79 -61 -129 -61
c-36 0 -65.833 10.667 -89.5 32zM288.999 432.999v58l-103 -12c-20 -2.66699 -35.333 -9.16699 -46 -19.5s-16 -22.833 -16 -37.5c0 -15.333 5.16699 -27.333 15.5 -36s23.833 -13 40.5 -13c38.667 0 75 20 109 60z" />
    <glyph glyph-name="guillemotleft" unicode="&#xab;" horiz-adv-x="480" 
d="M42 280l105 223h104l-93 -223l93 -223h-104zM223 280l105 223h104l-94 -223l94 -223h-104z" />
    <glyph glyph-name="logicalnot" unicode="&#xac;" horiz-adv-x="445" 
d="M294 313h-247v92h351v-214h-104v122z" />
    <glyph glyph-name="uni00AD" unicode="&#xad;" horiz-adv-x="446" 
d="M47 363h353v-96h-353v96z" />
    <glyph glyph-name="registered" unicode="&#xae;" horiz-adv-x="816" 
d="M225.5 38.5c-55 32.333 -98.333 76 -130 131s-47.5 115.167 -47.5 180.5s15.833 125.5 47.5 180.5s75 98.667 130 131s115.833 48.5 182.5 48.5s127.5 -16.167 182.5 -48.5s98.333 -76 130 -131s47.5 -115.167 47.5 -180.5s-15.833 -125.5 -47.5 -180.5
s-75 -98.667 -130 -131s-115.833 -48.5 -182.5 -48.5s-127.5 16.167 -182.5 48.5zM549.5 104c43 25.333 76.833 59.833 101.5 103.5s37 91.167 37 142.5s-12.333 98.833 -37 142.5s-58.5 78.167 -101.5 103.5s-90.167 38 -141.5 38s-98.5 -12.667 -141.5 -38
s-76.833 -59.833 -101.5 -103.5s-37 -91.167 -37 -142.5s12.333 -98.833 37 -142.5s58.5 -78.167 101.5 -103.5s90.167 -38 141.5 -38s98.5 12.667 141.5 38zM274 554h131c48.667 0 86.167 -11.833 112.5 -35.5s39.5 -55.5 39.5 -95.5c0 -26 -6.33301 -48.333 -19 -67
s-31 -34.667 -55 -48v-3l81 -159h-76l-74 148h-69v-148h-71v408zM407 357c52.667 0 79 22.333 79 67s-26.333 67 -79 67h-62v-134h62z" />
    <glyph glyph-name="macron" unicode="&#xaf;" horiz-adv-x="309" 
d="M30 675h249v-84h-249v84z" />
    <glyph glyph-name="degree" unicode="&#xb0;" horiz-adv-x="340" 
d="M103.5 463.5c-20.333 11.667 -36.333 27.667 -48 48s-17.5 42.5 -17.5 66.5s5.83301 46.167 17.5 66.5s27.667 36.333 48 48s42.5 17.5 66.5 17.5s46.167 -5.83301 66.5 -17.5s36.333 -27.667 48 -48s17.5 -42.5 17.5 -66.5s-5.83301 -46.167 -17.5 -66.5
s-27.667 -36.333 -48 -48s-42.5 -17.5 -66.5 -17.5s-46.167 5.83301 -66.5 17.5zM214.5 534c12.333 12.667 18.5 27.334 18.5 44.001c0 17.333 -6.16699 32.166 -18.5 44.499s-27.166 18.5 -44.499 18.5c-16.667 0 -31.334 -6.16699 -44.001 -18.5s-19 -27.166 -19 -44.499
c0 -16.667 6.33301 -31.334 19 -44.001s27.334 -19 44.001 -19c17.333 0 32.166 6.33301 44.499 19z" />
    <glyph glyph-name="plusminus" unicode="&#xb1;" horiz-adv-x="508" 
d="M205 329h-158v96h158v158h96v-158h159v-96h-159v-159h-96v159zM47 96h413v-96h-413v96z" />
    <glyph glyph-name="uni00B2" unicode="&#xb2;" horiz-adv-x="333" 
d="M36 533l145.001 136c11.333 10.667 19.666 20.5 24.999 29.5s8 19.5 8 31.5c0 13.333 -4.66699 24.166 -14 32.499s-21.333 12.5 -36 12.5c-15.333 0 -27.666 -5.16699 -36.999 -15.5s-14.666 -23.833 -15.999 -40.5l-74 4l-2 4c1.33301 34 13.666 62.167 36.999 84.5
s54 33.5 92 33.5c39.333 0 70.833 -9.66699 94.5 -29s35.5 -46 35.5 -80c0 -22 -5.33301 -42.167 -16 -60.5s-27.334 -38.166 -50.001 -59.499l-82 -76h153v-70h-263v63z" />
    <glyph glyph-name="uni00B3" unicode="&#xb3;" horiz-adv-x="351" 
d="M75.5 502c-25.667 24.667 -39.498 55.333 -41.498 92l3 4l74 4c1.33301 -20.667 7.66602 -37 18.999 -49s27 -18 47 -18c19.333 0 34.5 6 45.5 18s16.5 27.333 16.5 46c0 20 -6.83301 35.833 -20.5 47.5s-31.834 17.5 -54.501 17.5h-27v59l67 53h-152v64h245v-63l-76 -59
c28.667 -6.66699 51.834 -19.667 69.501 -39s26.5 -46 26.5 -80c0 -38 -13.333 -69.833 -40 -95.5s-59.667 -38.5 -99 -38.5c-42.667 0 -76.834 12.333 -102.501 37z" />
    <glyph glyph-name="acute" unicode="&#xb4;" horiz-adv-x="272" 
d="M109 703h133l-112 -139h-100z" />
    <glyph glyph-name="uni00B5" unicode="&#xb5;" horiz-adv-x="582" 
d="M64 500l113.999 0.000976562v-315c0 -30.667 8.16699 -54.167 24.5 -70.5s39.5 -24.5 69.5 -24.5c26 0 50.333 7.66699 73 23s42.334 35.666 59.001 60.999v326h114v-500h-114v64c-20 -22 -44.667 -39.833 -74 -53.5s-61.333 -20.5 -96 -20.5
c-21.333 0 -40 4.66699 -56 14v-204h-114v700z" />
    <glyph glyph-name="paragraph" unicode="&#xb6;" horiz-adv-x="631" 
d="M274 320h-10c-66 0 -118.5 16.833 -157.5 50.5s-58.5 80.167 -58.5 139.5s19.5 105.833 58.5 139.5s91.5 50.5 157.5 50.5h299v-900h-112v802h-64v-802h-113v520z" />
    <glyph glyph-name="periodcentered" unicode="&#xb7;" horiz-adv-x="253" 
d="M71.5 294.5c-15.667 15.667 -23.5 34.167 -23.5 55.5s7.83301 39.666 23.5 54.999s34.167 23 55.5 23s39.666 -7.66699 54.999 -23s23 -33.666 23 -54.999s-7.66699 -39.833 -23 -55.5s-33.666 -23.5 -54.999 -23.5s-39.833 7.83301 -55.5 23.5z" />
    <glyph glyph-name="cedilla" unicode="&#xb8;" horiz-adv-x="266" 
d="M62.5 -183c-17.667 13.333 -28.5 29.999 -32.5 49.999l2 5l67 3c6 -10.667 17 -16 33 -16c9.33301 0 16.5 2.33301 21.5 7s7.5 11.334 7.5 20.001s-2.66699 15.334 -8 20.001s-12.666 7 -21.999 7c-14.667 0 -27.667 -5.66699 -39 -17l-58 10l-1 4l52 115h78l-49 -78
c14.667 6.66699 29.334 10 44.001 10c23.333 0 42.166 -6.33301 56.499 -19s21.5 -30.334 21.5 -53.001c0 -28 -9.5 -49.667 -28.5 -65s-44.167 -23 -75.5 -23c-28.667 0 -51.834 6.66699 -69.501 20z" />
    <glyph glyph-name="uni00B9" unicode="&#xb9;" horiz-adv-x="232" 
d="M111 735c-16 -12.667 -41.667 -19 -77 -19v77h8c41.333 0 64.333 15.667 69 47h83v-370h-83v265z" />
    <glyph glyph-name="ordmasculine" unicode="&#xba;" horiz-adv-x="494" 
d="M138.5 326.5c-31.667 17.667 -56.3359 42.167 -74.0029 73.5s-26.5 66.333 -26.5 105c0 39.333 8.83301 74.5 26.5 105.5s42.334 55.333 74.001 73s67.834 26.5 108.501 26.5s76.834 -8.83301 108.501 -26.5s56.334 -42.167 74.001 -73.5s26.5 -66.333 26.5 -105
s-8.83301 -73.667 -26.5 -105s-42.5 -55.833 -74.5 -73.5s-68 -26.5 -108 -26.5c-40.667 0 -76.834 8.83301 -108.501 26.5zM331.998 413c22 22 33 52.667 33 92s-11 70 -33 92s-50.333 33 -85 33s-63.167 -11 -85.5 -33s-33.5 -52.667 -33.5 -92s11.167 -70 33.5 -92
s50.833 -33 85.5 -33s63 11 85 33z" />
    <glyph glyph-name="guillemotright" unicode="&#xbb;" horiz-adv-x="480" 
d="M48 57l93 223l-93 223h104l105 -223l-105 -223h-104zM229 57l93 223l-93 223h103l106 -223l-106 -223h-103z" />
    <glyph glyph-name="onequarter" unicode="&#xbc;" horiz-adv-x="782" 
d="M111 595c-16 -12.667 -41.667 -19 -77 -19v77h8c41.333 0 64.333 15.667 69 47h83v-370h-83v265zM72 58l527 637l64 -53l-527 -637zM630 65h-173v71l176 234h77v-234h45v-71h-45v-65h-80v65zM630 136v125l-93 -125h93z" />
    <glyph glyph-name="onehalf" unicode="&#xbd;" horiz-adv-x="806" 
d="M111 595c-16 -12.667 -41.667 -19 -77 -19v77h8c41.333 0 64.333 15.667 69 47h83v-370h-83v265zM72 58l527 637l64 -53l-527 -637zM509 63l145.001 136c11.333 10.667 19.666 20.5 24.999 29.5s8 19.5 8 31.5c0 13.333 -4.66699 24.166 -14 32.499
s-21.333 12.5 -36 12.5c-15.333 0 -27.666 -5.16699 -36.999 -15.5s-14.666 -23.833 -15.999 -40.5l-74 4l-2 4c1.33301 34 13.666 62.167 36.999 84.5s54 33.5 92 33.5c39.333 0 70.833 -9.66699 94.5 -29s35.5 -46 35.5 -80c0 -22 -5.33301 -42.167 -16 -60.5
s-27.334 -38.166 -50.001 -59.499l-82 -76h153v-70h-263v63z" />
    <glyph glyph-name="threequarters" unicode="&#xbe;" horiz-adv-x="881" 
d="M75.5 362c-25.667 24.667 -39.498 55.333 -41.498 92l3 4l74 4c1.33301 -20.667 7.66602 -37 18.999 -49s27 -18 47 -18c19.333 0 34.5 6 45.5 18s16.5 27.333 16.5 46c0 20 -6.83301 35.833 -20.5 47.5s-31.834 17.5 -54.501 17.5h-27v59l67 53h-152v64h245v-63l-76 -59
c28.667 -6.66699 51.834 -19.667 69.501 -39s26.5 -46 26.5 -80c0 -38 -13.333 -69.833 -40 -95.5s-59.667 -38.5 -99 -38.5c-42.667 0 -76.834 12.333 -102.501 37zM171.002 57.999l527 637l64 -53l-527 -637zM728.002 64.999h-173v71l176 234h77v-234h45v-71h-45v-65h-80
v65zM728.002 135.999v125l-93 -125h93z" />
    <glyph glyph-name="questiondown" unicode="&#xbf;" horiz-adv-x="528" 
d="M317 476.5c15.333 -15.667 23 -34.165 23 -55.498c0 -20.667 -7.66699 -38.834 -23 -54.501s-33.666 -23.5 -54.999 -23.5s-39.833 7.66699 -55.5 23s-23.5 33.666 -23.5 54.999s7.83301 39.833 23.5 55.5s34.167 23.5 55.5 23.5s39.666 -7.83301 54.999 -23.5z
M310 248.002c1.33301 -32.667 -2.00195 -59.999 -10.002 -81.999s-18.5 -39.833 -31.5 -53.5s-30.167 -28.5 -51.5 -44.5c-23.333 -18 -39.666 -34.333 -48.999 -49s-14 -31.334 -14 -50.001c0 -22 9.33301 -40.5 28 -55.5s44 -22.5 76 -22.5c34 0 62.167 9.66699 84.5 29
s34.833 44.333 37.5 75l101 -8l5 -7c-2.66699 -36.667 -14 -69.334 -34 -98.001s-46.833 -51.167 -80.5 -67.5s-71.5 -24.5 -113.5 -24.5c-71.333 0 -125.666 15.833 -162.999 47.5s-56 73.167 -56 124.5c0 34.667 8 65.334 24 92.001s41 52 75 76
c25.333 17.333 43.833 34.333 55.5 51s18.167 37 19.5 61l1 33h95z" />
    <glyph glyph-name="Agrave" unicode="&#xc0;" horiz-adv-x="672" 
d="M277 700h118l259 -700h-131l-45 127h-285l-43 -127h-132zM440 236l-91 264l-11 76h-3l-12 -76l-92 -264h209zM173 903h133l79 -139h-101z" />
    <glyph glyph-name="Aacute" unicode="&#xc1;" horiz-adv-x="672" 
d="M277 700h118l259 -700h-131l-45 127h-285l-43 -127h-132zM440 236l-91 264l-11 76h-3l-12 -76l-92 -264h209zM360 903h133l-112 -139h-100z" />
    <glyph glyph-name="Acircumflex" unicode="&#xc2;" horiz-adv-x="672" 
d="M277 700h118l259 -700h-131l-45 127h-285l-43 -127h-132zM440 236l-91 264l-11 76h-3l-12 -76l-92 -264h209zM294 903h83l111 -139h-94l-59 60l-59 -60h-93z" />
    <glyph glyph-name="Atilde" unicode="&#xc3;" horiz-adv-x="672" 
d="M277 700h118l259 -700h-131l-45 127h-285l-43 -127h-132zM440 236l-91 264l-11 76h-3l-12 -76l-92 -264h209zM356.5 775.5c-12.333 5.66699 -24.833 13.834 -37.5 24.501c-8 6.66699 -15.5 11.834 -22.5 15.501s-14.833 5.5 -23.5 5.5c-23.333 0 -38 -16.333 -44 -49h-78
c2.66699 43.333 15.167 75.833 37.5 97.5s48.166 32.5 77.499 32.5c20.667 0 37.167 -2.83301 49.5 -8.5s24.833 -13.834 37.5 -24.501c8 -6.66699 15.5 -11.834 22.5 -15.501s14.833 -5.5 23.5 -5.5c23.333 0 38 16.333 44 49h78
c-2.66699 -43.333 -15.167 -75.833 -37.5 -97.5s-48.166 -32.5 -77.499 -32.5c-20.667 0 -37.167 2.83301 -49.5 8.5z" />
    <glyph glyph-name="Adieresis" unicode="&#xc4;" horiz-adv-x="672" 
d="M277 700h118l259 -700h-131l-45 127h-285l-43 -127h-132zM440 236l-91 264l-11 76h-3l-12 -76l-92 -264h209zM195.5 790.5c-13 13 -19.5 28.167 -19.5 45.5s6.5 32.5 19.5 45.5s28.5 19.5 46.5 19.5c17.333 0 32.666 -6.5 45.999 -19.5s20 -28.167 20 -45.5
s-6.66699 -32.5 -20 -45.5s-28.666 -19.5 -45.999 -19.5c-18 0 -33.5 6.5 -46.5 19.5zM383.5 790.5c-13 13 -19.5 28.167 -19.5 45.5s6.5 32.5 19.5 45.5s28.5 19.5 46.5 19.5c17.333 0 32.666 -6.5 45.999 -19.5s20 -28.167 20 -45.5s-6.66699 -32.5 -20 -45.5
s-28.666 -19.5 -45.999 -19.5c-18 0 -33.5 6.5 -46.5 19.5z" />
    <glyph glyph-name="Aring" unicode="&#xc5;" horiz-adv-x="672" 
d="M277 700h118l259 -700h-131l-45 127h-285l-43 -127h-132zM440 236l-91 264l-11 76h-3l-12 -76l-92 -264h209zM269.5 761c-18.333 18.667 -27.5 41 -27.5 67s9.16699 48.333 27.5 67s40.833 28 67.5 28c26 0 48.167 -9.33301 66.5 -28s27.5 -41 27.5 -67
s-9.16699 -48.333 -27.5 -67s-40.5 -28 -66.5 -28c-26.667 0 -49.167 9.33301 -67.5 28zM362.5 802c7 6.66699 10.5 15.334 10.5 26.001s-3.5 19.334 -10.5 26.001s-15.5 10 -25.5 10c-10.667 0 -19.334 -3.33301 -26.001 -10s-10 -15.334 -10 -26.001
s3.33301 -19.334 10 -26.001s15.334 -10 26.001 -10c10 0 18.5 3.33301 25.5 10z" />
    <glyph glyph-name="AE" unicode="&#xc6;" horiz-adv-x="968" 
d="M393 700h509v-110h-317v-185h290v-110h-290v-183h328v-112h-453v127h-235l-67 -127h-140zM460 236v356h-4l-22 -72l-151 -284h177z" />
    <glyph glyph-name="Ccedilla" unicode="&#xc7;" horiz-adv-x="767" 
d="M714 233l5 -8.00293c-18 -71.333 -53.667 -127.666 -107 -168.999s-119 -63.333 -197 -66l-27 -43c14.667 6.66699 29.334 10 44.001 10c23.333 0 42.333 -6.33301 57 -19s22 -30.334 22 -53.001c0 -28 -9.5 -49.667 -28.5 -65s-44.167 -23 -75.5 -23
c-28.667 0 -51.834 6.5 -69.501 19.5s-28.5 29.833 -32.5 50.5l2 5l66 3c6 -10.667 17.333 -16 34 -16c8.66699 0 15.667 2.33301 21 7s8 11.334 8 20.001s-2.66699 15.334 -8 20.001s-13 7 -23 7c-14 0 -26.667 -5.66699 -38 -17l-58 10l-2 4l38 84
c-56 8.66699 -106.5 28.834 -151.5 60.501s-80.5 73 -106.5 124s-39 108.167 -39 171.5c0 70.667 15.833 133.334 47.5 188.001s74.5 97 128.5 127s113.333 45 178 45c56 0 106.167 -9.83301 150.5 -29.5s80.666 -47.334 108.999 -83.001s47.5 -76.5 57.5 -122.5l-4 -8
l-117 -9c-12.667 44 -36.334 78.333 -71.001 103s-77 37 -127 37c-45.333 0 -85.166 -10.5 -119.499 -31.5s-60.666 -50.333 -78.999 -88s-27.5 -80.5 -27.5 -128.5s9.33301 -90.833 28 -128.5s45.167 -67 79.5 -88s74.5 -31.5 120.5 -31.5c49.333 0 91 12.333 125 37
s57.667 59 71 103z" />
    <glyph glyph-name="Egrave" unicode="&#xc8;" horiz-adv-x="576" 
d="M68 700h442v-110h-317v-185h290v-110h-290v-185h328v-110h-453v700zM131 903h133l79 -139h-101z" />
    <glyph glyph-name="Eacute" unicode="&#xc9;" horiz-adv-x="576" 
d="M68 700h442v-110h-317v-185h290v-110h-290v-185h328v-110h-453v700zM318 903h133l-112 -139h-100z" />
    <glyph glyph-name="Ecircumflex" unicode="&#xca;" horiz-adv-x="576" 
d="M68 700h442v-110h-317v-185h290v-110h-290v-185h328v-110h-453v700zM253 903h83l111 -139h-94l-59 60l-59 -60h-93z" />
    <glyph glyph-name="Edieresis" unicode="&#xcb;" horiz-adv-x="576" 
d="M68 700h442v-110h-317v-185h290v-110h-290v-185h328v-110h-453v700zM153.5 790.5c-13 13 -19.5 28.167 -19.5 45.5s6.5 32.5 19.5 45.5s28.5 19.5 46.5 19.5c17.333 0 32.666 -6.5 45.999 -19.5s20 -28.167 20 -45.5s-6.66699 -32.5 -20 -45.5
s-28.666 -19.5 -45.999 -19.5c-18 0 -33.5 6.5 -46.5 19.5zM341.5 790.5c-13 13 -19.5 28.167 -19.5 45.5s6.5 32.5 19.5 45.5s28.5 19.5 46.5 19.5c17.333 0 32.666 -6.5 45.999 -19.5s20 -28.167 20 -45.5s-6.66699 -32.5 -20 -45.5s-28.666 -19.5 -45.999 -19.5
c-18 0 -33.5 6.5 -46.5 19.5z" />
    <glyph glyph-name="Igrave" unicode="&#xcc;" horiz-adv-x="261" 
d="M68 700h125v-700h-125v700zM-33 903h133l79 -139h-101z" />
    <glyph glyph-name="Iacute" unicode="&#xcd;" horiz-adv-x="261" 
d="M68 700h125v-700h-125v700zM154 903h133l-112 -139h-100z" />
    <glyph glyph-name="Icircumflex" unicode="&#xce;" horiz-adv-x="261" 
d="M68 700h125v-700h-125v700zM89 903h83l111 -139h-94l-59 60l-59 -60h-93z" />
    <glyph glyph-name="Idieresis" unicode="&#xcf;" horiz-adv-x="261" 
d="M68 700h125v-700h-125v700zM-10.5 790.5c-13 13 -19.5 28.167 -19.5 45.5s6.5 32.5 19.5 45.5s28.5 19.5 46.5 19.5c17.333 0 32.666 -6.5 45.999 -19.5s20 -28.167 20 -45.5s-6.66699 -32.5 -20 -45.5s-28.666 -19.5 -45.999 -19.5c-18 0 -33.5 6.5 -46.5 19.5z
M177.5 790.5c-13 13 -19.5 28.167 -19.5 45.5s6.5 32.5 19.5 45.5s28.5 19.5 46.5 19.5c17.333 0 32.666 -6.5 45.999 -19.5s20 -28.167 20 -45.5s-6.66699 -32.5 -20 -45.5s-28.666 -19.5 -45.999 -19.5c-18 0 -33.5 6.5 -46.5 19.5z" />
    <glyph glyph-name="Eth" unicode="&#xd0;" horiz-adv-x="741" 
d="M97 302h-78v96h78v302h226c75.333 0 140.833 -14.167 196.5 -42.5s98.5 -68.833 128.5 -121.5s45 -114.667 45 -186s-15 -133.333 -45 -186s-72.833 -93.167 -128.5 -121.5s-121.167 -42.5 -196.5 -42.5h-226v302zM319 112c78.667 0 139.834 19.833 183.501 59.5
s65.5 99.167 65.5 178.5s-21.833 138.833 -65.5 178.5s-104.834 59.5 -183.501 59.5h-97v-190h150v-96h-150v-190h97z" />
    <glyph glyph-name="Ntilde" unicode="&#xd1;" horiz-adv-x="696" 
d="M68 700h137l289 -487l6 -28h3v515h125v-700h-137l-289 487l-6 28h-3v-515h-125v700zM368.5 775.5c-12.333 5.66699 -24.833 13.834 -37.5 24.501c-8 6.66699 -15.5 11.834 -22.5 15.501s-14.833 5.5 -23.5 5.5c-23.333 0 -38 -16.333 -44 -49h-78
c2.66699 43.333 15.167 75.833 37.5 97.5s48.166 32.5 77.499 32.5c20.667 0 37.167 -2.83301 49.5 -8.5s24.833 -13.834 37.5 -24.501c8 -6.66699 15.5 -11.834 22.5 -15.501s14.833 -5.5 23.5 -5.5c23.333 0 38 16.333 44 49h78
c-2.66699 -43.333 -15.167 -75.833 -37.5 -97.5s-48.166 -32.5 -77.499 -32.5c-20.667 0 -37.167 2.83301 -49.5 8.5z" />
    <glyph glyph-name="Ograve" unicode="&#xd2;" horiz-adv-x="803" 
d="M221.5 35.5c-53.667 30.333 -96 72.833 -127 127.5s-46.5 117 -46.5 187s15.5 132.333 46.5 187s73.333 97.167 127 127.5s113.5 45.5 179.5 45.5c66.667 0 126.834 -15.167 180.501 -45.5s96 -72.833 127 -127.5s46.5 -117 46.5 -187s-15.5 -132.333 -46.5 -187
s-73.333 -97.167 -127 -127.5s-113.834 -45.5 -180.501 -45.5c-66 0 -125.833 15.167 -179.5 45.5zM520.5 133.5c34.333 21 60.833 50.167 79.5 87.5s28 80.333 28 129s-9.33301 91.667 -28 129s-45.167 66.5 -79.5 87.5s-74.166 31.5 -119.499 31.5
s-85.166 -10.5 -119.499 -31.5s-60.833 -50.167 -79.5 -87.5s-28 -80.333 -28 -129s9.33301 -91.667 28 -129s45.167 -66.5 79.5 -87.5s74.166 -31.5 119.499 -31.5s85.166 10.5 119.499 31.5zM238 903h133l79 -139h-101z" />
    <glyph glyph-name="Oacute" unicode="&#xd3;" horiz-adv-x="803" 
d="M221.5 35.5c-53.667 30.333 -96 72.833 -127 127.5s-46.5 117 -46.5 187s15.5 132.333 46.5 187s73.333 97.167 127 127.5s113.5 45.5 179.5 45.5c66.667 0 126.834 -15.167 180.501 -45.5s96 -72.833 127 -127.5s46.5 -117 46.5 -187s-15.5 -132.333 -46.5 -187
s-73.333 -97.167 -127 -127.5s-113.834 -45.5 -180.501 -45.5c-66 0 -125.833 15.167 -179.5 45.5zM520.5 133.5c34.333 21 60.833 50.167 79.5 87.5s28 80.333 28 129s-9.33301 91.667 -28 129s-45.167 66.5 -79.5 87.5s-74.166 31.5 -119.499 31.5
s-85.166 -10.5 -119.499 -31.5s-60.833 -50.167 -79.5 -87.5s-28 -80.333 -28 -129s9.33301 -91.667 28 -129s45.167 -66.5 79.5 -87.5s74.166 -31.5 119.499 -31.5s85.166 10.5 119.499 31.5zM425 903h133l-112 -139h-100z" />
    <glyph glyph-name="Ocircumflex" unicode="&#xd4;" horiz-adv-x="803" 
d="M221.5 35.5c-53.667 30.333 -96 72.833 -127 127.5s-46.5 117 -46.5 187s15.5 132.333 46.5 187s73.333 97.167 127 127.5s113.5 45.5 179.5 45.5c66.667 0 126.834 -15.167 180.501 -45.5s96 -72.833 127 -127.5s46.5 -117 46.5 -187s-15.5 -132.333 -46.5 -187
s-73.333 -97.167 -127 -127.5s-113.834 -45.5 -180.501 -45.5c-66 0 -125.833 15.167 -179.5 45.5zM520.5 133.5c34.333 21 60.833 50.167 79.5 87.5s28 80.333 28 129s-9.33301 91.667 -28 129s-45.167 66.5 -79.5 87.5s-74.166 31.5 -119.499 31.5
s-85.166 -10.5 -119.499 -31.5s-60.833 -50.167 -79.5 -87.5s-28 -80.333 -28 -129s9.33301 -91.667 28 -129s45.167 -66.5 79.5 -87.5s74.166 -31.5 119.499 -31.5s85.166 10.5 119.499 31.5zM359 903h83l111 -139h-94l-59 60l-59 -60h-93z" />
    <glyph glyph-name="Otilde" unicode="&#xd5;" horiz-adv-x="803" 
d="M221.5 35.5c-53.667 30.333 -96 72.833 -127 127.5s-46.5 117 -46.5 187s15.5 132.333 46.5 187s73.333 97.167 127 127.5s113.5 45.5 179.5 45.5c66.667 0 126.834 -15.167 180.501 -45.5s96 -72.833 127 -127.5s46.5 -117 46.5 -187s-15.5 -132.333 -46.5 -187
s-73.333 -97.167 -127 -127.5s-113.834 -45.5 -180.501 -45.5c-66 0 -125.833 15.167 -179.5 45.5zM520.5 133.5c34.333 21 60.833 50.167 79.5 87.5s28 80.333 28 129s-9.33301 91.667 -28 129s-45.167 66.5 -79.5 87.5s-74.166 31.5 -119.499 31.5
s-85.166 -10.5 -119.499 -31.5s-60.833 -50.167 -79.5 -87.5s-28 -80.333 -28 -129s9.33301 -91.667 28 -129s45.167 -66.5 79.5 -87.5s74.166 -31.5 119.499 -31.5s85.166 10.5 119.499 31.5zM421.5 775.5c-12.333 5.66699 -24.833 13.834 -37.5 24.501
c-8 6.66699 -15.5 11.834 -22.5 15.501s-14.833 5.5 -23.5 5.5c-23.333 0 -38 -16.333 -44 -49h-78c2.66699 43.333 15.167 75.833 37.5 97.5s48.166 32.5 77.499 32.5c20.667 0 37.167 -2.83301 49.5 -8.5s24.833 -13.834 37.5 -24.501
c8 -6.66699 15.5 -11.834 22.5 -15.501s14.833 -5.5 23.5 -5.5c23.333 0 38 16.333 44 49h78c-2.66699 -43.333 -15.167 -75.833 -37.5 -97.5s-48.166 -32.5 -77.499 -32.5c-20.667 0 -37.167 2.83301 -49.5 8.5z" />
    <glyph glyph-name="Odieresis" unicode="&#xd6;" horiz-adv-x="803" 
d="M221.5 35.5c-53.667 30.333 -96 72.833 -127 127.5s-46.5 117 -46.5 187s15.5 132.333 46.5 187s73.333 97.167 127 127.5s113.5 45.5 179.5 45.5c66.667 0 126.834 -15.167 180.501 -45.5s96 -72.833 127 -127.5s46.5 -117 46.5 -187s-15.5 -132.333 -46.5 -187
s-73.333 -97.167 -127 -127.5s-113.834 -45.5 -180.501 -45.5c-66 0 -125.833 15.167 -179.5 45.5zM520.5 133.5c34.333 21 60.833 50.167 79.5 87.5s28 80.333 28 129s-9.33301 91.667 -28 129s-45.167 66.5 -79.5 87.5s-74.166 31.5 -119.499 31.5
s-85.166 -10.5 -119.499 -31.5s-60.833 -50.167 -79.5 -87.5s-28 -80.333 -28 -129s9.33301 -91.667 28 -129s45.167 -66.5 79.5 -87.5s74.166 -31.5 119.499 -31.5s85.166 10.5 119.499 31.5zM260.5 790.5c-13 13 -19.5 28.167 -19.5 45.5s6.5 32.5 19.5 45.5
s28.5 19.5 46.5 19.5c17.333 0 32.666 -6.5 45.999 -19.5s20 -28.167 20 -45.5s-6.66699 -32.5 -20 -45.5s-28.666 -19.5 -45.999 -19.5c-18 0 -33.5 6.5 -46.5 19.5zM448.5 790.5c-13 13 -19.5 28.167 -19.5 45.5s6.5 32.5 19.5 45.5s28.5 19.5 46.5 19.5
c17.333 0 32.666 -6.5 45.999 -19.5s20 -28.167 20 -45.5s-6.66699 -32.5 -20 -45.5s-28.666 -19.5 -45.999 -19.5c-18 0 -33.5 6.5 -46.5 19.5z" />
    <glyph glyph-name="multiply" unicode="&#xd7;" horiz-adv-x="465" 
d="M53 208l111 111l-111 112l67 68l112 -112l112 112l69 -67l-113 -113l113 -112l-69 -67l-112 112l-112 -112z" />
    <glyph glyph-name="Oslash" unicode="&#xd8;" horiz-adv-x="803" 
d="M718.5 518c24.333 -50 36.501 -106 36.501 -168c0 -70 -15.5 -132.333 -46.5 -187s-73.333 -97.167 -127 -127.5s-113.834 -45.5 -180.501 -45.5c-44.667 0 -86.667 7 -126 21l-29 -54l-92 47l30 56c-42.667 32 -76 72.833 -100 122.5s-36 105.5 -36 167.5
c0 70 15.5 132.333 46.5 187s73.333 97.167 127 127.5s113.5 45.5 179.5 45.5c45.333 0 87.333 -7 126 -21l29 54l92 -47l-30 -55c42.667 -32 76.167 -73 100.5 -123zM191.501 245c11.667 -31.333 28.5 -58 50.5 -80l230 423c-20.667 6.66699 -44.334 10 -71.001 10
c-45.333 0 -85.166 -10.5 -119.499 -31.5s-60.833 -50.167 -79.5 -87.5s-28 -80.333 -28 -129c0 -38.667 5.83301 -73.667 17.5 -105zM520.501 133.5c34.333 21 60.833 50.167 79.5 87.5s28 80.333 28 129c0 38 -5.83301 72.833 -17.5 104.5s-28.167 58.5 -49.5 80.5
l-231 -423c20.667 -6.66699 44.334 -10 71.001 -10c45.333 0 85.166 10.5 119.499 31.5z" />
    <glyph glyph-name="Ugrave" unicode="&#xd9;" horiz-adv-x="676" 
d="M193 24c-40.667 22.667 -71.667 54.5 -93 95.5s-32 88.167 -32 141.5v439h125v-437c0 -52 12.167 -91.833 36.5 -119.5s60.5 -41.5 108.5 -41.5s84.167 13.833 108.5 41.5s36.5 67.5 36.5 119.5v437h125v-439c0 -53.333 -10.667 -100.5 -32 -141.5
s-52.333 -72.833 -93 -95.5s-89 -34 -145 -34s-104.333 11.333 -145 34zM175 903h133l79 -139h-101z" />
    <glyph glyph-name="Uacute" unicode="&#xda;" horiz-adv-x="676" 
d="M193 24c-40.667 22.667 -71.667 54.5 -93 95.5s-32 88.167 -32 141.5v439h125v-437c0 -52 12.167 -91.833 36.5 -119.5s60.5 -41.5 108.5 -41.5s84.167 13.833 108.5 41.5s36.5 67.5 36.5 119.5v437h125v-439c0 -53.333 -10.667 -100.5 -32 -141.5
s-52.333 -72.833 -93 -95.5s-89 -34 -145 -34s-104.333 11.333 -145 34zM362 903h133l-112 -139h-100z" />
    <glyph glyph-name="Ucircumflex" unicode="&#xdb;" horiz-adv-x="676" 
d="M193 24c-40.667 22.667 -71.667 54.5 -93 95.5s-32 88.167 -32 141.5v439h125v-437c0 -52 12.167 -91.833 36.5 -119.5s60.5 -41.5 108.5 -41.5s84.167 13.833 108.5 41.5s36.5 67.5 36.5 119.5v437h125v-439c0 -53.333 -10.667 -100.5 -32 -141.5
s-52.333 -72.833 -93 -95.5s-89 -34 -145 -34s-104.333 11.333 -145 34zM296 903h83l111 -139h-94l-59 60l-59 -60h-93z" />
    <glyph glyph-name="Udieresis" unicode="&#xdc;" horiz-adv-x="676" 
d="M193 24c-40.667 22.667 -71.667 54.5 -93 95.5s-32 88.167 -32 141.5v439h125v-437c0 -52 12.167 -91.833 36.5 -119.5s60.5 -41.5 108.5 -41.5s84.167 13.833 108.5 41.5s36.5 67.5 36.5 119.5v437h125v-439c0 -53.333 -10.667 -100.5 -32 -141.5
s-52.333 -72.833 -93 -95.5s-89 -34 -145 -34s-104.333 11.333 -145 34zM197.5 790.5c-13 13 -19.5 28.167 -19.5 45.5s6.5 32.5 19.5 45.5s28.5 19.5 46.5 19.5c17.333 0 32.666 -6.5 45.999 -19.5s20 -28.167 20 -45.5s-6.66699 -32.5 -20 -45.5
s-28.666 -19.5 -45.999 -19.5c-18 0 -33.5 6.5 -46.5 19.5zM385.5 790.5c-13 13 -19.5 28.167 -19.5 45.5s6.5 32.5 19.5 45.5s28.5 19.5 46.5 19.5c17.333 0 32.666 -6.5 45.999 -19.5s20 -28.167 20 -45.5s-6.66699 -32.5 -20 -45.5s-28.666 -19.5 -45.999 -19.5
c-18 0 -33.5 6.5 -46.5 19.5z" />
    <glyph glyph-name="Yacute" unicode="&#xdd;" horiz-adv-x="578" 
d="M226 252l-211 448h134l125 -271l13 -76h4l13 76l125 271h134l-212 -448v-252h-125v252zM312 903h133l-112 -139h-100z" />
    <glyph glyph-name="Thorn" unicode="&#xde;" horiz-adv-x="644" 
d="M68 700h125v-116h135c53.333 0 100.166 -9.33301 140.499 -28s71.666 -45.667 93.999 -81s33.5 -77 33.5 -125s-11.167 -89.667 -33.5 -125s-53.666 -62.333 -93.999 -81s-87.166 -28 -140.499 -28h-135v-116h-125v700zM324 225c98 0 147 41.667 147 125
s-49 125 -147 125h-131v-250h131z" />
    <glyph glyph-name="germandbls" unicode="&#xdf;" horiz-adv-x="631" 
d="M305 23c-29.333 22 -48.0029 53.999 -56.0029 95.999v6l75 37c12 -48 41 -72 87 -72c21.333 0 38.5 6.66699 51.5 20s19.5 31.666 19.5 54.999c0 22.667 -6.66699 41.167 -20 55.5s-35.333 28.833 -66 43.5c-34 15.333 -59.667 31.333 -77 48s-26 38 -26 64
c0 17.333 4.33301 32.5 13 45.5s21.334 27.833 38.001 44.5c16.667 17.333 28.834 31.833 36.501 43.5s11.5 25.167 11.5 40.5c0 20 -7.33301 36 -22 48s-33 18 -55 18c-26.667 0 -48 -9 -64 -27s-24 -44 -24 -78v-511h-115v410h-85v90h85v9c0 42 9 78.167 27 108.5
s42.333 53.333 73 69s65 23.5 103 23.5c56 0 102.667 -13.833 140 -41.5s56 -65.5 56 -113.5c0 -26 -6.33301 -48.167 -19 -66.5s-30.334 -38.5 -53.001 -60.5c-10.667 -10 -18.5 -18 -23.5 -24s-7.5 -11.333 -7.5 -16c0 -7.33301 4.33301 -14.166 13 -20.499
s23.334 -14.833 44.001 -25.5c9.33301 -4 16.333 -7.33301 21 -10c72.667 -35.333 109 -89.333 109 -162c0 -53.333 -16.667 -96.666 -50 -129.999s-77.666 -50 -132.999 -50c-42 0 -77.667 11 -107 33z" />
    <glyph glyph-name="agrave" unicode="&#xe0;" horiz-adv-x="562" 
d="M85.5 30.5c-30.333 27 -45.5 63.168 -45.5 108.501c0 46 15.833 82.5 47.5 109.5s73.5 43.167 125.5 48.5l145 15v27c0 26 -8.66699 45.833 -26 59.5s-40.666 20.5 -69.999 20.5c-26 0 -47.167 -6.33301 -63.5 -19s-26.833 -31.334 -31.5 -56.001l-99 5l-5 4
c9.33301 50.667 32.666 89.5 69.999 116.5s81.666 40.5 132.999 40.5c60.667 0 109.667 -15.167 147 -45.5s56 -71.833 56 -124.5v-205c0 -33.333 13.333 -50 40 -50c6 0 13.333 1 22 3l3 -2v-82c-20.667 -6.66699 -41.667 -10 -63 -10c-24 0 -45.5 5.66699 -64.5 17
s-32.833 30 -41.5 56h-3c-21.333 -23.333 -45.833 -42 -73.5 -56s-57.5 -21 -89.5 -21c-45.333 0 -83.166 13.5 -113.499 40.5zM293 102.501c22 13 43.667 31.833 65 56.5v73l-130 -15c-26 -3.33301 -45.667 -11.5 -59 -24.5s-20 -28.833 -20 -47.5
c0 -20 6.66699 -35.333 20 -46s30.333 -16 51 -16c26.667 0 51 6.5 73 19.5zM108 703.001h133l79 -139h-101z" />
    <glyph glyph-name="aacute" unicode="&#xe1;" horiz-adv-x="562" 
d="M85.5 30.5c-30.333 27 -45.5 63.168 -45.5 108.501c0 46 15.833 82.5 47.5 109.5s73.5 43.167 125.5 48.5l145 15v27c0 26 -8.66699 45.833 -26 59.5s-40.666 20.5 -69.999 20.5c-26 0 -47.167 -6.33301 -63.5 -19s-26.833 -31.334 -31.5 -56.001l-99 5l-5 4
c9.33301 50.667 32.666 89.5 69.999 116.5s81.666 40.5 132.999 40.5c60.667 0 109.667 -15.167 147 -45.5s56 -71.833 56 -124.5v-205c0 -33.333 13.333 -50 40 -50c6 0 13.333 1 22 3l3 -2v-82c-20.667 -6.66699 -41.667 -10 -63 -10c-24 0 -45.5 5.66699 -64.5 17
s-32.833 30 -41.5 56h-3c-21.333 -23.333 -45.833 -42 -73.5 -56s-57.5 -21 -89.5 -21c-45.333 0 -83.166 13.5 -113.499 40.5zM293 102.501c22 13 43.667 31.833 65 56.5v73l-130 -15c-26 -3.33301 -45.667 -11.5 -59 -24.5s-20 -28.833 -20 -47.5
c0 -20 6.66699 -35.333 20 -46s30.333 -16 51 -16c26.667 0 51 6.5 73 19.5zM289 703.001h133l-112 -139h-100z" />
    <glyph glyph-name="acircumflex" unicode="&#xe2;" horiz-adv-x="562" 
d="M85.5 30.5c-30.333 27 -45.5 63.168 -45.5 108.501c0 46 15.833 82.5 47.5 109.5s73.5 43.167 125.5 48.5l145 15v27c0 26 -8.66699 45.833 -26 59.5s-40.666 20.5 -69.999 20.5c-26 0 -47.167 -6.33301 -63.5 -19s-26.833 -31.334 -31.5 -56.001l-99 5l-5 4
c9.33301 50.667 32.666 89.5 69.999 116.5s81.666 40.5 132.999 40.5c60.667 0 109.667 -15.167 147 -45.5s56 -71.833 56 -124.5v-205c0 -33.333 13.333 -50 40 -50c6 0 13.333 1 22 3l3 -2v-82c-20.667 -6.66699 -41.667 -10 -63 -10c-24 0 -45.5 5.66699 -64.5 17
s-32.833 30 -41.5 56h-3c-21.333 -23.333 -45.833 -42 -73.5 -56s-57.5 -21 -89.5 -21c-45.333 0 -83.166 13.5 -113.499 40.5zM293 102.501c22 13 43.667 31.833 65 56.5v73l-130 -15c-26 -3.33301 -45.667 -11.5 -59 -24.5s-20 -28.833 -20 -47.5
c0 -20 6.66699 -35.333 20 -46s30.333 -16 51 -16c26.667 0 51 6.5 73 19.5zM230 703.001h83l111 -139h-94l-59 60l-59 -60h-93z" />
    <glyph glyph-name="atilde" unicode="&#xe3;" horiz-adv-x="562" 
d="M85.5 30.5c-30.333 27 -45.5 63.168 -45.5 108.501c0 46 15.833 82.5 47.5 109.5s73.5 43.167 125.5 48.5l145 15v27c0 26 -8.66699 45.833 -26 59.5s-40.666 20.5 -69.999 20.5c-26 0 -47.167 -6.33301 -63.5 -19s-26.833 -31.334 -31.5 -56.001l-99 5l-5 4
c9.33301 50.667 32.666 89.5 69.999 116.5s81.666 40.5 132.999 40.5c60.667 0 109.667 -15.167 147 -45.5s56 -71.833 56 -124.5v-205c0 -33.333 13.333 -50 40 -50c6 0 13.333 1 22 3l3 -2v-82c-20.667 -6.66699 -41.667 -10 -63 -10c-24 0 -45.5 5.66699 -64.5 17
s-32.833 30 -41.5 56h-3c-21.333 -23.333 -45.833 -42 -73.5 -56s-57.5 -21 -89.5 -21c-45.333 0 -83.166 13.5 -113.499 40.5zM293 102.501c22 13 43.667 31.833 65 56.5v73l-130 -15c-26 -3.33301 -45.667 -11.5 -59 -24.5s-20 -28.833 -20 -47.5
c0 -20 6.66699 -35.333 20 -46s30.333 -16 51 -16c26.667 0 51 6.5 73 19.5zM292.5 575.501c-12.333 5.66699 -24.833 13.834 -37.5 24.501c-8 6.66699 -15.5 11.834 -22.5 15.501s-14.833 5.5 -23.5 5.5c-23.333 0 -38 -16.333 -44 -49h-78
c2.66699 43.333 15.167 75.833 37.5 97.5s48.166 32.5 77.499 32.5c20.667 0 37.167 -2.83301 49.5 -8.5s24.833 -13.834 37.5 -24.501c8 -6.66699 15.5 -11.834 22.5 -15.501s14.833 -5.5 23.5 -5.5c23.333 0 38 16.333 44 49h78
c-2.66699 -43.333 -15.167 -75.833 -37.5 -97.5s-48.166 -32.5 -77.499 -32.5c-20.667 0 -37.167 2.83301 -49.5 8.5z" />
    <glyph glyph-name="adieresis" unicode="&#xe4;" horiz-adv-x="562" 
d="M85.5 30.5c-30.333 27 -45.5 63.168 -45.5 108.501c0 46 15.833 82.5 47.5 109.5s73.5 43.167 125.5 48.5l145 15v27c0 26 -8.66699 45.833 -26 59.5s-40.666 20.5 -69.999 20.5c-26 0 -47.167 -6.33301 -63.5 -19s-26.833 -31.334 -31.5 -56.001l-99 5l-5 4
c9.33301 50.667 32.666 89.5 69.999 116.5s81.666 40.5 132.999 40.5c60.667 0 109.667 -15.167 147 -45.5s56 -71.833 56 -124.5v-205c0 -33.333 13.333 -50 40 -50c6 0 13.333 1 22 3l3 -2v-82c-20.667 -6.66699 -41.667 -10 -63 -10c-24 0 -45.5 5.66699 -64.5 17
s-32.833 30 -41.5 56h-3c-21.333 -23.333 -45.833 -42 -73.5 -56s-57.5 -21 -89.5 -21c-45.333 0 -83.166 13.5 -113.499 40.5zM293 102.501c22 13 43.667 31.833 65 56.5v73l-130 -15c-26 -3.33301 -45.667 -11.5 -59 -24.5s-20 -28.833 -20 -47.5
c0 -20 6.66699 -35.333 20 -46s30.333 -16 51 -16c26.667 0 51 6.5 73 19.5zM131.5 590.501c-13 13 -19.5 28.167 -19.5 45.5s6.5 32.5 19.5 45.5s28.5 19.5 46.5 19.5c17.333 0 32.666 -6.5 45.999 -19.5s20 -28.167 20 -45.5s-6.66699 -32.5 -20 -45.5
s-28.666 -19.5 -45.999 -19.5c-18 0 -33.5 6.5 -46.5 19.5zM319.5 590.501c-13 13 -19.5 28.167 -19.5 45.5s6.5 32.5 19.5 45.5s28.5 19.5 46.5 19.5c17.333 0 32.666 -6.5 45.999 -19.5s20 -28.167 20 -45.5s-6.66699 -32.5 -20 -45.5s-28.666 -19.5 -45.999 -19.5
c-18 0 -33.5 6.5 -46.5 19.5z" />
    <glyph glyph-name="aring" unicode="&#xe5;" horiz-adv-x="562" 
d="M85.5 30.5c-30.333 27 -45.5 63.168 -45.5 108.501c0 46 15.833 82.5 47.5 109.5s73.5 43.167 125.5 48.5l145 15v27c0 26 -8.66699 45.833 -26 59.5s-40.666 20.5 -69.999 20.5c-26 0 -47.167 -6.33301 -63.5 -19s-26.833 -31.334 -31.5 -56.001l-99 5l-5 4
c9.33301 50.667 32.666 89.5 69.999 116.5s81.666 40.5 132.999 40.5c60.667 0 109.667 -15.167 147 -45.5s56 -71.833 56 -124.5v-205c0 -33.333 13.333 -50 40 -50c6 0 13.333 1 22 3l3 -2v-82c-20.667 -6.66699 -41.667 -10 -63 -10c-24 0 -45.5 5.66699 -64.5 17
s-32.833 30 -41.5 56h-3c-21.333 -23.333 -45.833 -42 -73.5 -56s-57.5 -21 -89.5 -21c-45.333 0 -83.166 13.5 -113.499 40.5zM293 102.501c22 13 43.667 31.833 65 56.5v73l-130 -15c-26 -3.33301 -45.667 -11.5 -59 -24.5s-20 -28.833 -20 -47.5
c0 -20 6.66699 -35.333 20 -46s30.333 -16 51 -16c26.667 0 51 6.5 73 19.5zM204.5 561.001c-18.333 18.667 -27.5 41 -27.5 67s9.16699 48.333 27.5 67s40.833 28 67.5 28c26 0 48.167 -9.33301 66.5 -28s27.5 -41 27.5 -67s-9.16699 -48.333 -27.5 -67
s-40.5 -28 -66.5 -28c-26.667 0 -49.167 9.33301 -67.5 28zM297.5 602.001c7 6.66699 10.5 15.334 10.5 26.001s-3.5 19.334 -10.5 26.001s-15.5 10 -25.5 10c-10.667 0 -19.334 -3.33301 -26.001 -10s-10 -15.334 -10 -26.001s3.33301 -19.334 10 -26.001
s15.334 -10 26.001 -10c10 0 18.5 3.33301 25.5 10z" />
    <glyph glyph-name="ae" unicode="&#xe6;" horiz-adv-x="910" 
d="M97 30.5c-31.333 27 -47.0029 63.168 -47.0029 108.501c0 46.667 16.833 83.834 50.5 111.501s78.834 42.834 135.501 45.501l132 6v32c0 26 -8.66699 46.667 -26 62s-40.333 23 -69 23c-26 0 -47.333 -6.33301 -64 -19s-27.334 -31.334 -32.001 -56.001l-102 5l-2 4
c9.33301 50.667 32.833 89.5 70.5 116.5s82.167 40.5 133.5 40.5c37.333 0 70.5 -6.16699 99.5 -18.5s52.167 -29.5 69.5 -51.5c22.667 22.667 48.834 40 78.501 52s60.834 18 93.501 18c47.333 0 89.5 -10.167 126.5 -30.5s65.833 -49.833 86.5 -88.5
s31 -84.334 31 -137.001v-35h-382l-1 -9c4.66699 -38.667 19.5 -68.834 44.5 -90.501s57.167 -32.5 96.5 -32.5c34 0 62 7.83301 84 23.5s37.667 37.167 47 64.5l100 -6l3 -5c-16 -56 -44.167 -99 -84.5 -129s-90.833 -45 -151.5 -45c-44 0 -83.333 8.5 -118 25.5
s-63 41.167 -85 72.5h-3c-24.667 -31.333 -53.5 -55.5 -86.5 -72.5s-67.833 -25.5 -104.5 -25.5c-51.333 0 -92.666 13.5 -123.999 40.5zM753.997 302.001c-3.33301 36 -17.5 64.167 -42.5 84.5s-56.167 30.5 -93.5 30.5c-34.667 0 -64.5 -10.167 -89.5 -30.5
s-40.833 -48.5 -47.5 -84.5h273zM367.997 159.001v58l-117 -6c-30 -1.33301 -52.833 -8 -68.5 -20s-23.5 -27.667 -23.5 -47s6.5 -34.333 19.5 -45s30.833 -16 53.5 -16c50.667 0 96 25.333 136 76z" />
    <glyph glyph-name="ccedilla" unicode="&#xe7;" horiz-adv-x="572" 
d="M531 184l2.99707 -5.00488c-11.333 -58.667 -37.333 -104.5 -78 -137.5s-92 -50.167 -154 -51.5l-27 -43c14.667 6.66699 29.334 10 44.001 10c23.333 0 42.166 -6.33301 56.499 -19s21.5 -30.334 21.5 -53.001c0 -28 -9.5 -49.667 -28.5 -65s-44.167 -23 -75.5 -23
c-28.667 0 -51.834 6.66699 -69.501 20s-28.5 30 -32.5 50l2 5l67 3c6 -10.667 17 -16 33 -16c9.33301 0 16.5 2.33301 21.5 7s7.5 11.334 7.5 20.001s-2.66699 15.334 -8 20.001s-12.666 7 -21.999 7c-14.667 0 -27.667 -5.66699 -39 -17l-58 10l-1 4l39 87
c-58 12.667 -105 41.834 -141 87.501s-54 100.834 -54 165.501c0 50.667 11.167 95.667 33.5 135s53 70 92 92s82.5 33 130.5 33c65.333 0 119.333 -16.667 162 -50s68.667 -79.666 78 -138.999l-3 -5l-100 -6c-7.33301 30.667 -22.666 54.834 -45.999 72.501
s-53.333 26.5 -90 26.5c-42.667 0 -77.5 -14 -104.5 -42s-40.5 -67 -40.5 -117s13.5 -89 40.5 -117s61.833 -42 104.5 -42c36.667 0 66.334 8.5 89.001 25.5s38.334 41.5 47.001 73.5z" />
    <glyph glyph-name="egrave" unicode="&#xe8;" horiz-adv-x="564" 
d="M157 22.5c-38 21.667 -67.334 52.1699 -88.001 91.5029s-31 84.666 -31 135.999c0 50.667 11.5 95.667 34.5 135s53.5 70 91.5 92s79.333 33 124 33c47.333 0 89.5 -10.167 126.5 -30.5s65.833 -49.833 86.5 -88.5s31 -84.334 31 -137.001v-35h-383
c2.66699 -40.667 16.834 -72.834 42.501 -96.501s58.5 -35.5 98.5 -35.5c34 0 62 7.83301 84 23.5s37.667 37.167 47 64.5l100 -6l3 -5c-16 -56 -44.167 -99 -84.5 -129s-90.833 -45 -151.5 -45c-49.333 0 -93 10.833 -131 32.5zM423.999 302.003
c-3.33301 36 -17.5 64.167 -42.5 84.5s-56.167 30.5 -93.5 30.5c-34.667 0 -64.5 -10.167 -89.5 -30.5s-40.833 -48.5 -47.5 -84.5h273zM124.999 703.003h133l79 -139h-101z" />
    <glyph glyph-name="eacute" unicode="&#xe9;" horiz-adv-x="564" 
d="M157 22.5c-38 21.667 -67.334 52.1699 -88.001 91.5029s-31 84.666 -31 135.999c0 50.667 11.5 95.667 34.5 135s53.5 70 91.5 92s79.333 33 124 33c47.333 0 89.5 -10.167 126.5 -30.5s65.833 -49.833 86.5 -88.5s31 -84.334 31 -137.001v-35h-383
c2.66699 -40.667 16.834 -72.834 42.501 -96.501s58.5 -35.5 98.5 -35.5c34 0 62 7.83301 84 23.5s37.667 37.167 47 64.5l100 -6l3 -5c-16 -56 -44.167 -99 -84.5 -129s-90.833 -45 -151.5 -45c-49.333 0 -93 10.833 -131 32.5zM423.999 302.003
c-3.33301 36 -17.5 64.167 -42.5 84.5s-56.167 30.5 -93.5 30.5c-34.667 0 -64.5 -10.167 -89.5 -30.5s-40.833 -48.5 -47.5 -84.5h273zM304.999 703.003h133l-112 -139h-100z" />
    <glyph glyph-name="ecircumflex" unicode="&#xea;" horiz-adv-x="564" 
d="M157 22.5c-38 21.667 -67.334 52.1699 -88.001 91.5029s-31 84.666 -31 135.999c0 50.667 11.5 95.667 34.5 135s53.5 70 91.5 92s79.333 33 124 33c47.333 0 89.5 -10.167 126.5 -30.5s65.833 -49.833 86.5 -88.5s31 -84.334 31 -137.001v-35h-383
c2.66699 -40.667 16.834 -72.834 42.501 -96.501s58.5 -35.5 98.5 -35.5c34 0 62 7.83301 84 23.5s37.667 37.167 47 64.5l100 -6l3 -5c-16 -56 -44.167 -99 -84.5 -129s-90.833 -45 -151.5 -45c-49.333 0 -93 10.833 -131 32.5zM423.999 302.003
c-3.33301 36 -17.5 64.167 -42.5 84.5s-56.167 30.5 -93.5 30.5c-34.667 0 -64.5 -10.167 -89.5 -30.5s-40.833 -48.5 -47.5 -84.5h273zM245.999 703.003h83l111 -139h-94l-59 60l-59 -60h-93z" />
    <glyph glyph-name="edieresis" unicode="&#xeb;" horiz-adv-x="564" 
d="M157 22.5c-38 21.667 -67.334 52.1699 -88.001 91.5029s-31 84.666 -31 135.999c0 50.667 11.5 95.667 34.5 135s53.5 70 91.5 92s79.333 33 124 33c47.333 0 89.5 -10.167 126.5 -30.5s65.833 -49.833 86.5 -88.5s31 -84.334 31 -137.001v-35h-383
c2.66699 -40.667 16.834 -72.834 42.501 -96.501s58.5 -35.5 98.5 -35.5c34 0 62 7.83301 84 23.5s37.667 37.167 47 64.5l100 -6l3 -5c-16 -56 -44.167 -99 -84.5 -129s-90.833 -45 -151.5 -45c-49.333 0 -93 10.833 -131 32.5zM423.999 302.003
c-3.33301 36 -17.5 64.167 -42.5 84.5s-56.167 30.5 -93.5 30.5c-34.667 0 -64.5 -10.167 -89.5 -30.5s-40.833 -48.5 -47.5 -84.5h273zM147.499 590.503c-13 13 -19.5 28.167 -19.5 45.5s6.5 32.5 19.5 45.5s28.5 19.5 46.5 19.5c17.333 0 32.666 -6.5 45.999 -19.5
s20 -28.167 20 -45.5s-6.66699 -32.5 -20 -45.5s-28.666 -19.5 -45.999 -19.5c-18 0 -33.5 6.5 -46.5 19.5zM335.499 590.503c-13 13 -19.5 28.167 -19.5 45.5s6.5 32.5 19.5 45.5s28.5 19.5 46.5 19.5c17.333 0 32.666 -6.5 45.999 -19.5s20 -28.167 20 -45.5
s-6.66699 -32.5 -20 -45.5s-28.666 -19.5 -45.999 -19.5c-18 0 -33.5 6.5 -46.5 19.5z" />
    <glyph glyph-name="igrave" unicode="&#xec;" horiz-adv-x="238" 
d="M62 500h114v-500h-114v500zM-44 703h133l79 -139h-101z" />
    <glyph glyph-name="iacute" unicode="&#xed;" horiz-adv-x="238" 
d="M62 500h114v-500h-114v500zM136 703h133l-112 -139h-100z" />
    <glyph glyph-name="icircumflex" unicode="&#xee;" horiz-adv-x="238" 
d="M62 500h114v-500h-114v500zM77 703h83l111 -139h-94l-59 60l-59 -60h-93z" />
    <glyph glyph-name="idieresis" unicode="&#xef;" horiz-adv-x="238" 
d="M62 500h114v-500h-114v500zM-21.5 590.5c-13 13 -19.5 28.167 -19.5 45.5s6.5 32.5 19.5 45.5s28.5 19.5 46.5 19.5c17.333 0 32.666 -6.5 45.999 -19.5s20 -28.167 20 -45.5s-6.66699 -32.5 -20 -45.5s-28.666 -19.5 -45.999 -19.5c-18 0 -33.5 6.5 -46.5 19.5z
M166.5 590.5c-13 13 -19.5 28.167 -19.5 45.5s6.5 32.5 19.5 45.5s28.5 19.5 46.5 19.5c17.333 0 32.666 -6.5 45.999 -19.5s20 -28.167 20 -45.5s-6.66699 -32.5 -20 -45.5s-28.666 -19.5 -45.999 -19.5c-18 0 -33.5 6.5 -46.5 19.5z" />
    <glyph glyph-name="eth" unicode="&#xf0;" horiz-adv-x="614" 
d="M566 324c0 -66 -10.5 -124.167 -31.5 -174.5s-51.833 -89.5 -92.5 -117.5s-89 -42 -145 -42c-52.667 0 -98.667 11.167 -138 33.5s-69.333 52.333 -90 90s-31 78.834 -31 123.501c0 45.333 10.333 86.833 31 124.5s50.167 67.667 88.5 90s82.833 33.5 133.5 33.5
c30.667 0 60 -5.5 88 -16.5s52 -27.167 72 -48.5c-7.33301 60 -28 109 -62 147l-73 -55l-50 67l53 40c-29.333 13.333 -64 22.666 -104 27.999l-5 7l16 86c69.333 -6 129 -25 179 -57l68 51l50 -66l-53 -40c64 -72.667 96 -174 96 -304zM401 133c26 28 39 62.667 39 104
c0 42 -13 77 -39 105s-60.667 42 -104 42s-78.166 -14 -104.499 -42s-39.5 -63 -39.5 -105c0 -41.333 13.167 -76 39.5 -104s61.166 -42 104.499 -42s78 14 104 42z" />
    <glyph glyph-name="ntilde" unicode="&#xf1;" horiz-adv-x="578" 
d="M64 500l114 0.00195312v-65c20.667 21.333 45.834 39.166 75.501 53.499s61.5 21.5 95.5 21.5c53.333 0 94.833 -15.167 124.5 -45.5s44.5 -70.5 44.5 -120.5v-344h-114v315c0 30.667 -7.83301 54.167 -23.5 70.5s-38.5 24.5 -68.5 24.5
c-25.333 0 -49.833 -7.83301 -73.5 -23.5s-43.834 -35.834 -60.501 -60.501v-326h-114v500zM311.5 575.502c-12.333 5.66699 -24.833 13.834 -37.5 24.501c-8 6.66699 -15.5 11.834 -22.5 15.501s-14.833 5.5 -23.5 5.5c-23.333 0 -38 -16.333 -44 -49h-78
c2.66699 43.333 15.167 75.833 37.5 97.5s48.166 32.5 77.499 32.5c20.667 0 37.167 -2.83301 49.5 -8.5s24.833 -13.834 37.5 -24.501c8 -6.66699 15.5 -11.834 22.5 -15.501s14.833 -5.5 23.5 -5.5c23.333 0 38 16.333 44 49h78
c-2.66699 -43.333 -15.167 -75.833 -37.5 -97.5s-48.166 -32.5 -77.499 -32.5c-20.667 0 -37.167 2.83301 -49.5 8.5z" />
    <glyph glyph-name="ograve" unicode="&#xf2;" horiz-adv-x="605" 
d="M165.5 24c-40.333 22.667 -71.666 53.667 -93.999 93s-33.5 83.666 -33.5 132.999s11.167 93.666 33.5 132.999s53.666 70.333 93.999 93s86.166 34 137.499 34s97 -11.333 137 -34s71.167 -53.667 93.5 -93s33.5 -83.666 33.5 -132.999s-11.167 -93.666 -33.5 -132.999
s-53.5 -70.333 -93.5 -93s-85.667 -34 -137 -34s-97.166 11.333 -137.499 34zM411 133.5c28 28.333 42 67.166 42 116.499s-14 88.166 -42 116.499s-64 42.5 -108 42.5s-80.167 -14.167 -108.5 -42.5s-42.5 -67.166 -42.5 -116.499s14.167 -88.166 42.5 -116.499
s64.5 -42.5 108.5 -42.5s80 14.167 108 42.5zM140 703h133l79 -139h-101z" />
    <glyph glyph-name="oacute" unicode="&#xf3;" horiz-adv-x="605" 
d="M165.5 24c-40.333 22.667 -71.666 53.667 -93.999 93s-33.5 83.666 -33.5 132.999s11.167 93.666 33.5 132.999s53.666 70.333 93.999 93s86.166 34 137.499 34s97 -11.333 137 -34s71.167 -53.667 93.5 -93s33.5 -83.666 33.5 -132.999s-11.167 -93.666 -33.5 -132.999
s-53.5 -70.333 -93.5 -93s-85.667 -34 -137 -34s-97.166 11.333 -137.499 34zM411 133.5c28 28.333 42 67.166 42 116.499s-14 88.166 -42 116.499s-64 42.5 -108 42.5s-80.167 -14.167 -108.5 -42.5s-42.5 -67.166 -42.5 -116.499s14.167 -88.166 42.5 -116.499
s64.5 -42.5 108.5 -42.5s80 14.167 108 42.5zM320 703h133l-112 -139h-100z" />
    <glyph glyph-name="ocircumflex" unicode="&#xf4;" horiz-adv-x="605" 
d="M165.5 24c-40.333 22.667 -71.666 53.667 -93.999 93s-33.5 83.666 -33.5 132.999s11.167 93.666 33.5 132.999s53.666 70.333 93.999 93s86.166 34 137.499 34s97 -11.333 137 -34s71.167 -53.667 93.5 -93s33.5 -83.666 33.5 -132.999s-11.167 -93.666 -33.5 -132.999
s-53.5 -70.333 -93.5 -93s-85.667 -34 -137 -34s-97.166 11.333 -137.499 34zM411 133.5c28 28.333 42 67.166 42 116.499s-14 88.166 -42 116.499s-64 42.5 -108 42.5s-80.167 -14.167 -108.5 -42.5s-42.5 -67.166 -42.5 -116.499s14.167 -88.166 42.5 -116.499
s64.5 -42.5 108.5 -42.5s80 14.167 108 42.5zM261 703h83l111 -139h-94l-59 60l-59 -60h-93z" />
    <glyph glyph-name="otilde" unicode="&#xf5;" horiz-adv-x="605" 
d="M165.5 24c-40.333 22.667 -71.666 53.667 -93.999 93s-33.5 83.666 -33.5 132.999s11.167 93.666 33.5 132.999s53.666 70.333 93.999 93s86.166 34 137.499 34s97 -11.333 137 -34s71.167 -53.667 93.5 -93s33.5 -83.666 33.5 -132.999s-11.167 -93.666 -33.5 -132.999
s-53.5 -70.333 -93.5 -93s-85.667 -34 -137 -34s-97.166 11.333 -137.499 34zM411 133.5c28 28.333 42 67.166 42 116.499s-14 88.166 -42 116.499s-64 42.5 -108 42.5s-80.167 -14.167 -108.5 -42.5s-42.5 -67.166 -42.5 -116.499s14.167 -88.166 42.5 -116.499
s64.5 -42.5 108.5 -42.5s80 14.167 108 42.5zM323.5 575.5c-12.333 5.66699 -24.833 13.834 -37.5 24.501c-8 6.66699 -15.5 11.834 -22.5 15.501s-14.833 5.5 -23.5 5.5c-23.333 0 -38 -16.333 -44 -49h-78c2.66699 43.333 15.167 75.833 37.5 97.5
s48.166 32.5 77.499 32.5c20.667 0 37.167 -2.83301 49.5 -8.5s24.833 -13.834 37.5 -24.501c8 -6.66699 15.5 -11.834 22.5 -15.501s14.833 -5.5 23.5 -5.5c23.333 0 38 16.333 44 49h78c-2.66699 -43.333 -15.167 -75.833 -37.5 -97.5s-48.166 -32.5 -77.499 -32.5
c-20.667 0 -37.167 2.83301 -49.5 8.5z" />
    <glyph glyph-name="odieresis" unicode="&#xf6;" horiz-adv-x="605" 
d="M165.5 24c-40.333 22.667 -71.666 53.667 -93.999 93s-33.5 83.666 -33.5 132.999s11.167 93.666 33.5 132.999s53.666 70.333 93.999 93s86.166 34 137.499 34s97 -11.333 137 -34s71.167 -53.667 93.5 -93s33.5 -83.666 33.5 -132.999s-11.167 -93.666 -33.5 -132.999
s-53.5 -70.333 -93.5 -93s-85.667 -34 -137 -34s-97.166 11.333 -137.499 34zM411 133.5c28 28.333 42 67.166 42 116.499s-14 88.166 -42 116.499s-64 42.5 -108 42.5s-80.167 -14.167 -108.5 -42.5s-42.5 -67.166 -42.5 -116.499s14.167 -88.166 42.5 -116.499
s64.5 -42.5 108.5 -42.5s80 14.167 108 42.5zM162.5 590.5c-13 13 -19.5 28.167 -19.5 45.5s6.5 32.5 19.5 45.5s28.5 19.5 46.5 19.5c17.333 0 32.666 -6.5 45.999 -19.5s20 -28.167 20 -45.5s-6.66699 -32.5 -20 -45.5s-28.666 -19.5 -45.999 -19.5
c-18 0 -33.5 6.5 -46.5 19.5zM350.5 590.5c-13 13 -19.5 28.167 -19.5 45.5s6.5 32.5 19.5 45.5s28.5 19.5 46.5 19.5c17.333 0 32.666 -6.5 45.999 -19.5s20 -28.167 20 -45.5s-6.66699 -32.5 -20 -45.5s-28.666 -19.5 -45.999 -19.5c-18 0 -33.5 6.5 -46.5 19.5z" />
    <glyph glyph-name="divide" unicode="&#xf7;" horiz-adv-x="508" 
d="M199 447.5c-15.333 15.667 -23 34.167 -23 55.5s7.66699 39.833 23 55.5s33.666 23.5 54.999 23.5s39.833 -7.83301 55.5 -23.5s23.5 -34.167 23.5 -55.5s-7.83301 -39.833 -23.5 -55.5s-34.167 -23.5 -55.5 -23.5s-39.666 7.83301 -54.999 23.5zM47 368h413v-96h-413v96
zM199 81.5c-15.333 15.667 -23 34.167 -23 55.5s7.66699 39.833 23 55.5s33.666 23.5 54.999 23.5s39.833 -7.83301 55.5 -23.5s23.5 -34.167 23.5 -55.5s-7.83301 -39.833 -23.5 -55.5s-34.167 -23.5 -55.5 -23.5s-39.666 7.83301 -54.999 23.5z" />
    <glyph glyph-name="oslash" unicode="&#xf8;" horiz-adv-x="605" 
d="M541.5 367.5c17 -35.667 25.502 -74.832 25.502 -117.499c0 -49.333 -11.167 -93.666 -33.5 -132.999s-53.5 -70.333 -93.5 -93s-85.667 -34 -137 -34c-28 0 -55 3.66699 -81 11l-23 -43l-85 45l22 40c-31.333 24 -55.5 53.667 -72.5 89s-25.5 74.666 -25.5 117.999
c0 49.333 11.167 93.666 33.5 132.999s53.666 70.333 93.999 93s86.166 34 137.499 34c28 0 55 -3.66699 81 -11l23 43l85 -45l-22 -41c30.667 -23.333 54.5 -52.833 71.5 -88.5zM188.002 140.002l145 265.999c-8.66699 2 -18.667 3 -30 3
c-44 0 -80.167 -14.167 -108.5 -42.5s-42.5 -67.166 -42.5 -116.499c0 -44 12 -80.667 36 -110zM411.002 133.501c28 28.333 42 67.167 42 116.5c0 45.333 -12 82 -36 110l-144 -266c9.33301 -2 19.333 -3 30 -3c44 0 80 14.167 108 42.5z" />
    <glyph glyph-name="ugrave" unicode="&#xf9;" horiz-adv-x="578" 
d="M104.5 36.5c-29.667 31 -44.501 73.168 -44.501 126.501v337h114v-315c0 -30.667 8.16699 -54.167 24.5 -70.5s39.5 -24.5 69.5 -24.5c26 0 50.333 7.66699 73 23s42.334 35.666 59.001 60.999v326h114v-500h-114v64c-20 -22 -44.667 -39.833 -74 -53.5
s-61.333 -20.5 -96 -20.5c-54 0 -95.833 15.5 -125.5 46.5zM123.999 703.001h133l79 -139h-101z" />
    <glyph glyph-name="uacute" unicode="&#xfa;" horiz-adv-x="578" 
d="M104.5 36.5c-29.667 31 -44.501 73.168 -44.501 126.501v337h114v-315c0 -30.667 8.16699 -54.167 24.5 -70.5s39.5 -24.5 69.5 -24.5c26 0 50.333 7.66699 73 23s42.334 35.666 59.001 60.999v326h114v-500h-114v64c-20 -22 -44.667 -39.833 -74 -53.5
s-61.333 -20.5 -96 -20.5c-54 0 -95.833 15.5 -125.5 46.5zM303.999 703.001h133l-112 -139h-100z" />
    <glyph glyph-name="ucircumflex" unicode="&#xfb;" horiz-adv-x="578" 
d="M104.5 36.5c-29.667 31 -44.501 73.168 -44.501 126.501v337h114v-315c0 -30.667 8.16699 -54.167 24.5 -70.5s39.5 -24.5 69.5 -24.5c26 0 50.333 7.66699 73 23s42.334 35.666 59.001 60.999v326h114v-500h-114v64c-20 -22 -44.667 -39.833 -74 -53.5
s-61.333 -20.5 -96 -20.5c-54 0 -95.833 15.5 -125.5 46.5zM244.999 703.001h83l111 -139h-94l-59 60l-59 -60h-93z" />
    <glyph glyph-name="udieresis" unicode="&#xfc;" horiz-adv-x="578" 
d="M104.5 36.5c-29.667 31 -44.501 73.168 -44.501 126.501v337h114v-315c0 -30.667 8.16699 -54.167 24.5 -70.5s39.5 -24.5 69.5 -24.5c26 0 50.333 7.66699 73 23s42.334 35.666 59.001 60.999v326h114v-500h-114v64c-20 -22 -44.667 -39.833 -74 -53.5
s-61.333 -20.5 -96 -20.5c-54 0 -95.833 15.5 -125.5 46.5zM146.499 590.501c-13 13 -19.5 28.167 -19.5 45.5s6.5 32.5 19.5 45.5s28.5 19.5 46.5 19.5c17.333 0 32.666 -6.5 45.999 -19.5s20 -28.167 20 -45.5s-6.66699 -32.5 -20 -45.5s-28.666 -19.5 -45.999 -19.5
c-18 0 -33.5 6.5 -46.5 19.5zM334.499 590.501c-13 13 -19.5 28.167 -19.5 45.5s6.5 32.5 19.5 45.5s28.5 19.5 46.5 19.5c17.333 0 32.666 -6.5 45.999 -19.5s20 -28.167 20 -45.5s-6.66699 -32.5 -20 -45.5s-28.666 -19.5 -45.999 -19.5c-18 0 -33.5 6.5 -46.5 19.5z" />
    <glyph glyph-name="yacute" unicode="&#xfd;" horiz-adv-x="553" 
d="M222 17l-202 483h126l119 -283l8 -67h5l136 350h119l-281 -700h-117zM301 703h133l-112 -139h-100z" />
    <glyph glyph-name="thorn" unicode="&#xfe;" horiz-adv-x="608" 
d="M64 700l113.998 -0.00195312v-255c42 43.333 95.333 65 160 65c40 0 77.833 -10.167 113.5 -30.5s64.334 -50.166 86.001 -89.499s32.5 -86 32.5 -140s-10.833 -100.667 -32.5 -140s-50.667 -69.166 -87 -89.499s-76.166 -30.5 -119.499 -30.5c-30 0 -58.5 5 -85.5 15
s-49.5 24 -67.5 42v-247h-114v900zM414.998 129.498c26.667 27.667 40 67.8311 40 120.498s-13.333 92.834 -40 120.501s-61 41.5 -103 41.5c-36.667 0 -68.167 -12 -94.5 -36s-39.5 -53.667 -39.5 -89v-73c0 -23.333 6 -44.666 18 -63.999s28.333 -34.5 49 -45.5
s43 -16.5 67 -16.5c42 0 76.333 13.833 103 41.5z" />
    <glyph glyph-name="ydieresis" unicode="&#xff;" horiz-adv-x="553" 
d="M222 17l-202 483h126l119 -283l8 -67h5l136 350h119l-281 -700h-117zM143.5 590.5c-13 13 -19.5 28.167 -19.5 45.5s6.5 32.5 19.5 45.5s28.5 19.5 46.5 19.5c17.333 0 32.666 -6.5 45.999 -19.5s20 -28.167 20 -45.5s-6.66699 -32.5 -20 -45.5
s-28.666 -19.5 -45.999 -19.5c-18 0 -33.5 6.5 -46.5 19.5zM331.5 590.5c-13 13 -19.5 28.167 -19.5 45.5s6.5 32.5 19.5 45.5s28.5 19.5 46.5 19.5c17.333 0 32.666 -6.5 45.999 -19.5s20 -28.167 20 -45.5s-6.66699 -32.5 -20 -45.5s-28.666 -19.5 -45.999 -19.5
c-18 0 -33.5 6.5 -46.5 19.5z" />
    <glyph glyph-name="Amacron" unicode="&#x100;" horiz-adv-x="672" 
d="M277 700h118l259 -700h-131l-45 127h-285l-43 -127h-132zM440 236l-91 264l-11 76h-3l-12 -76l-92 -264h209zM212 875h249v-84h-249v84z" />
    <glyph glyph-name="amacron" unicode="&#x101;" horiz-adv-x="562" 
d="M85.5 30.5c-30.333 27 -45.5 63.168 -45.5 108.501c0 46 15.833 82.5 47.5 109.5s73.5 43.167 125.5 48.5l145 15v27c0 26 -8.66699 45.833 -26 59.5s-40.666 20.5 -69.999 20.5c-26 0 -47.167 -6.33301 -63.5 -19s-26.833 -31.334 -31.5 -56.001l-99 5l-5 4
c9.33301 50.667 32.666 89.5 69.999 116.5s81.666 40.5 132.999 40.5c60.667 0 109.667 -15.167 147 -45.5s56 -71.833 56 -124.5v-205c0 -33.333 13.333 -50 40 -50c6 0 13.333 1 22 3l3 -2v-82c-20.667 -6.66699 -41.667 -10 -63 -10c-24 0 -45.5 5.66699 -64.5 17
s-32.833 30 -41.5 56h-3c-21.333 -23.333 -45.833 -42 -73.5 -56s-57.5 -21 -89.5 -21c-45.333 0 -83.166 13.5 -113.499 40.5zM293 102.501c22 13 43.667 31.833 65 56.5v73l-130 -15c-26 -3.33301 -45.667 -11.5 -59 -24.5s-20 -28.833 -20 -47.5
c0 -20 6.66699 -35.333 20 -46s30.333 -16 51 -16c26.667 0 51 6.5 73 19.5zM147 665.001h249v-84h-249v84z" />
    <glyph glyph-name="Abreve" unicode="&#x102;" horiz-adv-x="672" 
d="M277 700h118l259 -700h-131l-45 127h-285l-43 -127h-132zM440 236l-91 264l-11 76h-3l-12 -76l-92 -264h209zM238 797c-24 24.667 -35.999 57 -35.999 97h89c0 -14.667 4.33301 -26.667 13 -36s19.667 -14 33 -14s24.166 4.66699 32.499 14s12.5 21.333 12.5 36h89
c0 -40 -11.833 -72.333 -35.5 -97s-56.5 -37 -98.5 -37s-75 12.333 -99 37z" />
    <glyph glyph-name="abreve" unicode="&#x103;" horiz-adv-x="562" 
d="M85.5 30.5c-30.333 27 -45.5 63.168 -45.5 108.501c0 46 15.833 82.5 47.5 109.5s73.5 43.167 125.5 48.5l145 15v27c0 26 -8.66699 45.833 -26 59.5s-40.666 20.5 -69.999 20.5c-26 0 -47.167 -6.33301 -63.5 -19s-26.833 -31.334 -31.5 -56.001l-99 5l-5 4
c9.33301 50.667 32.666 89.5 69.999 116.5s81.666 40.5 132.999 40.5c60.667 0 109.667 -15.167 147 -45.5s56 -71.833 56 -124.5v-205c0 -33.333 13.333 -50 40 -50c6 0 13.333 1 22 3l3 -2v-82c-20.667 -6.66699 -41.667 -10 -63 -10c-24 0 -45.5 5.66699 -64.5 17
s-32.833 30 -41.5 56h-3c-21.333 -23.333 -45.833 -42 -73.5 -56s-57.5 -21 -89.5 -21c-45.333 0 -83.166 13.5 -113.499 40.5zM293 102.501c22 13 43.667 31.833 65 56.5v73l-130 -15c-26 -3.33301 -45.667 -11.5 -59 -24.5s-20 -28.833 -20 -47.5
c0 -20 6.66699 -35.333 20 -46s30.333 -16 51 -16c26.667 0 51 6.5 73 19.5zM173 597.001c-24 24.667 -35.999 57 -35.999 97h89c0 -14.667 4.33301 -26.667 13 -36s19.667 -14 33 -14s24.166 4.66699 32.499 14s12.5 21.333 12.5 36h89c0 -40 -11.833 -72.333 -35.5 -97
s-56.5 -37 -98.5 -37s-75 12.333 -99 37z" />
    <glyph glyph-name="Aogonek" unicode="&#x104;" horiz-adv-x="672" 
d="M504.5 -164c-19 17.333 -28.501 39.999 -28.501 67.999c0 20 4.66699 38.333 14 55s20.333 30.334 33 41.001l-45 127h-285l-43 -127h-132l259 700h118l259 -700c-31.333 -6 -53.833 -16.5 -67.5 -31.5s-20.5 -30.167 -20.5 -45.5c0 -10 2.83301 -18.167 8.5 -24.5
s12.834 -9.5 21.501 -9.5c10 0 20.333 3 31 9l19 -68l-1 -5c-20 -10 -41.667 -15 -65 -15c-31.333 0 -56.5 8.66699 -75.5 26zM439.999 235.999l-91 264l-11 76h-3l-12 -76l-92 -264h209z" />
    <glyph glyph-name="aogonek" unicode="&#x105;" horiz-adv-x="562" 
d="M559 -167l-0.99707 -5c-16 -9.33301 -36 -14 -60 -14c-32.667 0 -58.334 8.33301 -77.001 25s-28 38.334 -28 65.001c0 18.667 4.33301 36 13 52s19.667 30 33 42c-36.667 8 -61.334 31 -74.001 69h-3c-21.333 -23.333 -45.833 -42 -73.5 -56s-57.5 -21 -89.5 -21
c-45.333 0 -83.166 13.5 -113.499 40.5s-45.5 63.167 -45.5 108.5c0 46 15.833 82.5 47.5 109.5s73.5 43.167 125.5 48.5l145 15v27c0 26 -8.66699 45.833 -26 59.5s-40.666 20.5 -69.999 20.5c-26 0 -47.167 -6.33301 -63.5 -19s-26.833 -31.334 -31.5 -56.001l-99 5l-5 4
c9.33301 50.667 32.666 89.5 69.999 116.5s81.666 40.5 132.999 40.5c60.667 0 109.667 -15.167 147 -45.5s56 -71.833 56 -124.5v-205c0 -33.333 13.333 -50 40 -50c6 0 13.333 1 22 3l3 -2v-82c-34 -31.333 -51 -58 -51 -80c0 -10 2.83301 -17.667 8.5 -23
s13.167 -8 22.5 -8c7.33301 0 15.666 2.33301 24.999 7zM358.003 232l-130 -15c-26 -3.33301 -45.667 -11.5 -59 -24.5s-20 -28.833 -20 -47.5c0 -20 6.66699 -35.333 20 -46s30.333 -16 51 -16c26.667 0 51 6.5 73 19.5s43.667 31.833 65 56.5v73z" />
    <glyph glyph-name="Cacute" unicode="&#x106;" horiz-adv-x="767" 
d="M224 35c-54 30 -96.832 72.332 -128.499 126.999s-47.5 117.334 -47.5 188.001s15.833 133.334 47.5 188.001s74.5 97 128.5 127s113.333 45 178 45c56 0 106.167 -9.83301 150.5 -29.5s80.666 -47.334 108.999 -83.001s47.5 -76.5 57.5 -122.5l-4 -8l-117 -9
c-12.667 44 -36.334 78.333 -71.001 103s-77 37 -127 37c-45.333 0 -85.166 -10.5 -119.499 -31.5s-60.666 -50.333 -78.999 -88s-27.5 -80.5 -27.5 -128.5s9.33301 -90.833 28 -128.5s45.167 -67 79.5 -88s74.5 -31.5 120.5 -31.5c49.333 0 91 12.333 125 37
s57.667 59 71 103l116 -9l5 -8c-18.667 -73.333 -55.834 -130.833 -111.501 -172.5s-124.167 -62.5 -205.5 -62.5c-64.667 0 -124 15 -178 45zM425.001 902.999h133l-112 -139h-100z" />
    <glyph glyph-name="cacute" unicode="&#x107;" horiz-adv-x="572" 
d="M163.5 23c-39 22 -69.6699 52.665 -92.0029 91.998s-33.5 84.333 -33.5 135s11.167 95.667 33.5 135s53 70 92 92s82.5 33 130.5 33c65.333 0 119.333 -16.667 162 -50s68.667 -79.666 78 -138.999l-3 -5l-100 -6c-7.33301 30.667 -22.666 54.834 -45.999 72.501
s-53.333 26.5 -90 26.5c-42.667 0 -77.5 -14 -104.5 -42s-40.5 -67 -40.5 -117s13.5 -89 40.5 -117s61.833 -42 104.5 -42c36.667 0 66.334 8.5 89.001 25.5s38.334 41.5 47.001 73.5l100 -6l3 -5c-12 -60 -39 -106.5 -81 -139.5s-95 -49.5 -159 -49.5
c-48 0 -91.5 11 -130.5 33zM310.997 702.998h133l-112 -139h-100z" />
    <glyph glyph-name="Ccircumflex" unicode="&#x108;" horiz-adv-x="767" 
d="M224 35c-54 30 -96.832 72.332 -128.499 126.999s-47.5 117.334 -47.5 188.001s15.833 133.334 47.5 188.001s74.5 97 128.5 127s113.333 45 178 45c56 0 106.167 -9.83301 150.5 -29.5s80.666 -47.334 108.999 -83.001s47.5 -76.5 57.5 -122.5l-4 -8l-117 -9
c-12.667 44 -36.334 78.333 -71.001 103s-77 37 -127 37c-45.333 0 -85.166 -10.5 -119.499 -31.5s-60.666 -50.333 -78.999 -88s-27.5 -80.5 -27.5 -128.5s9.33301 -90.833 28 -128.5s45.167 -67 79.5 -88s74.5 -31.5 120.5 -31.5c49.333 0 91 12.333 125 37
s57.667 59 71 103l116 -9l5 -8c-18.667 -73.333 -55.834 -130.833 -111.501 -172.5s-124.167 -62.5 -205.5 -62.5c-64.667 0 -124 15 -178 45zM359.001 902.999h83l111 -139h-94l-59 60l-59 -60h-93z" />
    <glyph glyph-name="ccircumflex" unicode="&#x109;" horiz-adv-x="572" 
d="M163.5 23c-39 22 -69.6699 52.665 -92.0029 91.998s-33.5 84.333 -33.5 135s11.167 95.667 33.5 135s53 70 92 92s82.5 33 130.5 33c65.333 0 119.333 -16.667 162 -50s68.667 -79.666 78 -138.999l-3 -5l-100 -6c-7.33301 30.667 -22.666 54.834 -45.999 72.501
s-53.333 26.5 -90 26.5c-42.667 0 -77.5 -14 -104.5 -42s-40.5 -67 -40.5 -117s13.5 -89 40.5 -117s61.833 -42 104.5 -42c36.667 0 66.334 8.5 89.001 25.5s38.334 41.5 47.001 73.5l100 -6l3 -5c-12 -60 -39 -106.5 -81 -139.5s-95 -49.5 -159 -49.5
c-48 0 -91.5 11 -130.5 33zM251.997 702.998h83l111 -139h-94l-59 60l-59 -60h-93z" />
    <glyph glyph-name="Cdotaccent" unicode="&#x10a;" horiz-adv-x="767" 
d="M224 35c-54 30 -96.832 72.332 -128.499 126.999s-47.5 117.334 -47.5 188.001s15.833 133.334 47.5 188.001s74.5 97 128.5 127s113.333 45 178 45c56 0 106.167 -9.83301 150.5 -29.5s80.666 -47.334 108.999 -83.001s47.5 -76.5 57.5 -122.5l-4 -8l-117 -9
c-12.667 44 -36.334 78.333 -71.001 103s-77 37 -127 37c-45.333 0 -85.166 -10.5 -119.499 -31.5s-60.666 -50.333 -78.999 -88s-27.5 -80.5 -27.5 -128.5s9.33301 -90.833 28 -128.5s45.167 -67 79.5 -88s74.5 -31.5 120.5 -31.5c49.333 0 91 12.333 125 37
s57.667 59 71 103l116 -9l5 -8c-18.667 -73.333 -55.834 -130.833 -111.501 -172.5s-124.167 -62.5 -205.5 -62.5c-64.667 0 -124 15 -178 45zM348.501 784.499c-14.333 14.333 -21.5 31.5 -21.5 51.5s7.16699 37.167 21.5 51.5s31.5 21.5 51.5 21.5
c20.667 0 38.167 -7.16699 52.5 -21.5s21.5 -31.5 21.5 -51.5s-7.16699 -37.167 -21.5 -51.5s-31.833 -21.5 -52.5 -21.5c-20 0 -37.167 7.16699 -51.5 21.5z" />
    <glyph glyph-name="cdotaccent" unicode="&#x10b;" horiz-adv-x="572" 
d="M163.5 23c-39 22 -69.6699 52.665 -92.0029 91.998s-33.5 84.333 -33.5 135s11.167 95.667 33.5 135s53 70 92 92s82.5 33 130.5 33c65.333 0 119.333 -16.667 162 -50s68.667 -79.666 78 -138.999l-3 -5l-100 -6c-7.33301 30.667 -22.666 54.834 -45.999 72.501
s-53.333 26.5 -90 26.5c-42.667 0 -77.5 -14 -104.5 -42s-40.5 -67 -40.5 -117s13.5 -89 40.5 -117s61.833 -42 104.5 -42c36.667 0 66.334 8.5 89.001 25.5s38.334 41.5 47.001 73.5l100 -6l3 -5c-12 -60 -39 -106.5 -81 -139.5s-95 -49.5 -159 -49.5
c-48 0 -91.5 11 -130.5 33zM241.497 584.498c-14.333 14.333 -21.5 31.5 -21.5 51.5s7.16699 37.167 21.5 51.5s31.5 21.5 51.5 21.5c20.667 0 38.167 -7.16699 52.5 -21.5s21.5 -31.5 21.5 -51.5s-7.16699 -37.167 -21.5 -51.5s-31.833 -21.5 -52.5 -21.5
c-20 0 -37.167 7.16699 -51.5 21.5z" />
    <glyph glyph-name="Ccaron" unicode="&#x10c;" horiz-adv-x="767" 
d="M224 35c-54 30 -96.832 72.332 -128.499 126.999s-47.5 117.334 -47.5 188.001s15.833 133.334 47.5 188.001s74.5 97 128.5 127s113.333 45 178 45c56 0 106.167 -9.83301 150.5 -29.5s80.666 -47.334 108.999 -83.001s47.5 -76.5 57.5 -122.5l-4 -8l-117 -9
c-12.667 44 -36.334 78.333 -71.001 103s-77 37 -127 37c-45.333 0 -85.166 -10.5 -119.499 -31.5s-60.666 -50.333 -78.999 -88s-27.5 -80.5 -27.5 -128.5s9.33301 -90.833 28 -128.5s45.167 -67 79.5 -88s74.5 -31.5 120.5 -31.5c49.333 0 91 12.333 125 37
s57.667 59 71 103l116 -9l5 -8c-18.667 -73.333 -55.834 -130.833 -111.501 -172.5s-124.167 -62.5 -205.5 -62.5c-64.667 0 -124 15 -178 45zM248.001 902.999h93l59 -60l59 60h94l-111 -139h-83z" />
    <glyph glyph-name="ccaron" unicode="&#x10d;" horiz-adv-x="572" 
d="M163.5 23c-39 22 -69.6699 52.665 -92.0029 91.998s-33.5 84.333 -33.5 135s11.167 95.667 33.5 135s53 70 92 92s82.5 33 130.5 33c65.333 0 119.333 -16.667 162 -50s68.667 -79.666 78 -138.999l-3 -5l-100 -6c-7.33301 30.667 -22.666 54.834 -45.999 72.501
s-53.333 26.5 -90 26.5c-42.667 0 -77.5 -14 -104.5 -42s-40.5 -67 -40.5 -117s13.5 -89 40.5 -117s61.833 -42 104.5 -42c36.667 0 66.334 8.5 89.001 25.5s38.334 41.5 47.001 73.5l100 -6l3 -5c-12 -60 -39 -106.5 -81 -139.5s-95 -49.5 -159 -49.5
c-48 0 -91.5 11 -130.5 33zM140.997 702.998h93l59 -60l59 60h94l-111 -139h-83z" />
    <glyph glyph-name="Dcaron" unicode="&#x10e;" horiz-adv-x="712" 
d="M68 700h226c75.333 0 140.833 -14.167 196.5 -42.5s98.5 -68.833 128.5 -121.5s45 -114.667 45 -186s-15 -133.333 -45 -186s-72.833 -93.167 -128.5 -121.5s-121.167 -42.5 -196.5 -42.5h-226v700zM290 110c78.667 0 139.834 20.1689 183.501 60.502
s65.5 100.166 65.5 179.499s-21.833 139.166 -65.5 179.499s-104.834 60.5 -183.501 60.5h-97v-480h97zM111 903.002h93l59 -60l59 60h94l-111 -139h-83z" />
    <glyph glyph-name="dcaron" unicode="&#x10f;" horiz-adv-x="726" 
d="M159 21c-36 20.667 -65.1641 50.6689 -87.4971 90.002s-33.5 85.666 -33.5 138.999c0 54 10.667 100.667 32 140s50.166 69.166 86.499 89.499s76.166 30.5 119.499 30.5c30.667 0 59.167 -5 85.5 -15s49.166 -24 68.499 -42v277h114v-730h-114v54
c-40 -42.667 -92.333 -64 -157 -64c-40 0 -78 10.333 -114 31zM390.503 124.002c26.333 24 39.499 53.6699 39.499 89.0029v73c0 35.333 -13.167 65.166 -39.5 89.499s-58.166 36.5 -95.499 36.5c-41.333 0 -75.333 -13.833 -102 -41.5s-40 -67.834 -40 -120.501
s13.333 -92.834 40 -120.501s61 -41.5 103 -41.5c36.667 0 68.167 12 94.5 36zM589.002 531.005c17.333 6.66699 31.998 16.1689 43.998 28.502s20 26.833 24 43.5c-17.333 1.33301 -31.666 7.66602 -42.999 18.999s-17 25.666 -17 42.999c0 18.667 6 34.167 18 46.5
s27.333 18.5 46 18.5s34.167 -6.66699 46.5 -20s18.5 -30.666 18.5 -51.999c0 -35.333 -10.667 -65.833 -32 -91.5s-52.666 -45.834 -93.999 -60.501z" />
    <glyph glyph-name="Dcroat" unicode="&#x110;" horiz-adv-x="741" 
d="M97 302h-78v96h78v302h226c75.333 0 140.833 -14.167 196.5 -42.5s98.5 -68.833 128.5 -121.5s45 -114.667 45 -186s-15 -133.333 -45 -186s-72.833 -93.167 -128.5 -121.5s-121.167 -42.5 -196.5 -42.5h-226v302zM319 112c78.667 0 139.834 19.833 183.501 59.5
s65.5 99.167 65.5 178.5s-21.833 138.833 -65.5 178.5s-104.834 59.5 -183.501 59.5h-97v-190h150v-96h-150v-190h97z" />
    <glyph glyph-name="dcroat" unicode="&#x111;" horiz-adv-x="620" 
d="M620 568l-75.9971 0.00195312v-568h-114v54c-40 -42.667 -92.333 -64 -157 -64c-40 0 -78 10.333 -114 31s-65.167 50.667 -87.5 90s-33.5 85.666 -33.5 138.999c0 54 10.667 100.667 32 140s50.166 69.166 86.499 89.499s76.166 30.5 119.499 30.5
c30.667 0 59.167 -5 85.5 -15s49.166 -24 68.499 -42v115h-165v83h165v79h114v-79h76v-83zM430.003 286.002c0 35.333 -13.168 65.1689 -39.501 89.502s-58.166 36.5 -95.499 36.5c-41.333 0 -75.333 -13.833 -102 -41.5s-40 -67.834 -40 -120.501
s13.333 -92.834 40 -120.501s61 -41.5 103 -41.5c36.667 0 68.167 12 94.5 36s39.5 53.667 39.5 89v73z" />
    <glyph glyph-name="Emacron" unicode="&#x112;" horiz-adv-x="576" 
d="M68 700h442v-110h-317v-185h290v-110h-290v-185h328v-110h-453v700zM170 875h249v-84h-249v84z" />
    <glyph glyph-name="emacron" unicode="&#x113;" horiz-adv-x="564" 
d="M157 22.5c-38 21.667 -67.334 52.1699 -88.001 91.5029s-31 84.666 -31 135.999c0 50.667 11.5 95.667 34.5 135s53.5 70 91.5 92s79.333 33 124 33c47.333 0 89.5 -10.167 126.5 -30.5s65.833 -49.833 86.5 -88.5s31 -84.334 31 -137.001v-35h-383
c2.66699 -40.667 16.834 -72.834 42.501 -96.501s58.5 -35.5 98.5 -35.5c34 0 62 7.83301 84 23.5s37.667 37.167 47 64.5l100 -6l3 -5c-16 -56 -44.167 -99 -84.5 -129s-90.833 -45 -151.5 -45c-49.333 0 -93 10.833 -131 32.5zM423.999 302.003
c-3.33301 36 -17.5 64.167 -42.5 84.5s-56.167 30.5 -93.5 30.5c-34.667 0 -64.5 -10.167 -89.5 -30.5s-40.833 -48.5 -47.5 -84.5h273zM162.999 665.003h249v-84h-249v84z" />
    <glyph glyph-name="Ebreve" unicode="&#x114;" horiz-adv-x="576" 
d="M68 700h442v-110h-317v-185h290v-110h-290v-185h328v-110h-453v700zM196 797c-24 24.667 -35.999 57 -35.999 97h89c0 -14.667 4.33301 -26.667 13 -36s19.667 -14 33 -14s24.166 4.66699 32.499 14s12.5 21.333 12.5 36h89c0 -40 -11.833 -72.333 -35.5 -97
s-56.5 -37 -98.5 -37s-75 12.333 -99 37z" />
    <glyph glyph-name="ebreve" unicode="&#x115;" horiz-adv-x="564" 
d="M157 22.5c-38 21.667 -67.334 52.1699 -88.001 91.5029s-31 84.666 -31 135.999c0 50.667 11.5 95.667 34.5 135s53.5 70 91.5 92s79.333 33 124 33c47.333 0 89.5 -10.167 126.5 -30.5s65.833 -49.833 86.5 -88.5s31 -84.334 31 -137.001v-35h-383
c2.66699 -40.667 16.834 -72.834 42.501 -96.501s58.5 -35.5 98.5 -35.5c34 0 62 7.83301 84 23.5s37.667 37.167 47 64.5l100 -6l3 -5c-16 -56 -44.167 -99 -84.5 -129s-90.833 -45 -151.5 -45c-49.333 0 -93 10.833 -131 32.5zM423.999 302.003
c-3.33301 36 -17.5 64.167 -42.5 84.5s-56.167 30.5 -93.5 30.5c-34.667 0 -64.5 -10.167 -89.5 -30.5s-40.833 -48.5 -47.5 -84.5h273zM188.999 597.003c-24 24.667 -35.999 57 -35.999 97h89c0 -14.667 4.33301 -26.667 13 -36s19.667 -14 33 -14
s24.166 4.66699 32.499 14s12.5 21.333 12.5 36h89c0 -40 -11.833 -72.333 -35.5 -97s-56.5 -37 -98.5 -37s-75 12.333 -99 37z" />
    <glyph glyph-name="Edotaccent" unicode="&#x116;" horiz-adv-x="576" 
d="M68 700h442v-110h-317v-185h290v-110h-290v-185h328v-110h-453v700zM242.5 784.5c-14.333 14.333 -21.5 31.5 -21.5 51.5s7.16699 37.167 21.5 51.5s31.5 21.5 51.5 21.5c20.667 0 38.167 -7.16699 52.5 -21.5s21.5 -31.5 21.5 -51.5s-7.16699 -37.167 -21.5 -51.5
s-31.833 -21.5 -52.5 -21.5c-20 0 -37.167 7.16699 -51.5 21.5z" />
    <glyph glyph-name="edotaccent" unicode="&#x117;" horiz-adv-x="564" 
d="M157 22.5c-38 21.667 -67.334 52.1699 -88.001 91.5029s-31 84.666 -31 135.999c0 50.667 11.5 95.667 34.5 135s53.5 70 91.5 92s79.333 33 124 33c47.333 0 89.5 -10.167 126.5 -30.5s65.833 -49.833 86.5 -88.5s31 -84.334 31 -137.001v-35h-383
c2.66699 -40.667 16.834 -72.834 42.501 -96.501s58.5 -35.5 98.5 -35.5c34 0 62 7.83301 84 23.5s37.667 37.167 47 64.5l100 -6l3 -5c-16 -56 -44.167 -99 -84.5 -129s-90.833 -45 -151.5 -45c-49.333 0 -93 10.833 -131 32.5zM423.999 302.003
c-3.33301 36 -17.5 64.167 -42.5 84.5s-56.167 30.5 -93.5 30.5c-34.667 0 -64.5 -10.167 -89.5 -30.5s-40.833 -48.5 -47.5 -84.5h273zM235.499 584.503c-14.333 14.333 -21.5 31.5 -21.5 51.5s7.16699 37.167 21.5 51.5s31.5 21.5 51.5 21.5
c20.667 0 38.167 -7.16699 52.5 -21.5s21.5 -31.5 21.5 -51.5s-7.16699 -37.167 -21.5 -51.5s-31.833 -21.5 -52.5 -21.5c-20 0 -37.167 7.16699 -51.5 21.5z" />
    <glyph glyph-name="Eogonek" unicode="&#x118;" horiz-adv-x="576" 
d="M68 700h442v-110h-317v-185h290v-110h-290v-185h328v-110h-453v700zM408 -165c-18.667 16.667 -27.998 38.3311 -27.998 64.998c0 20.667 5.16699 39.834 15.5 57.501s23.166 31.834 38.499 42.501h86c-34 -32 -51 -58.667 -51 -80c0 -9.33301 3 -16.833 9 -22.5
s13.333 -8.5 22 -8.5c8 0 16.667 2.33301 26 7l20 -67l-2 -5c-15.333 -9.33301 -35 -14 -59 -14c-32.667 0 -58.334 8.33301 -77.001 25z" />
    <glyph glyph-name="eogonek" unicode="&#x119;" horiz-adv-x="570" 
d="M255 -165c-18.667 16.667 -28 38.335 -28 65.002c0 18 4 34.833 12 50.5s18.333 29.167 31 40.5c-46 2.66699 -86.5 15.167 -121.5 37.5s-62.167 52.5 -81.5 90.5s-29 81.667 -29 131c0 50.667 11.5 95.667 34.5 135s53.5 70 91.5 92s79.333 33 124 33
c47.333 0 89.5 -10.167 126.5 -30.5s65.833 -49.833 86.5 -88.5s31 -84.334 31 -137.001v-35h-383c2.66699 -40.667 16.834 -72.834 42.501 -96.501s58.5 -35.5 98.5 -35.5c34 0 62 7.83301 84 23.5s37.667 37.167 47 64.5l100 -6l3 -5c-10 -36.667 -25.5 -67 -46.5 -91
s-48.5 -45.333 -82.5 -64c-52.667 -26.667 -79 -56 -79 -88c0 -10 3 -17.833 9 -23.5s13.333 -8.5 22 -8.5c8 0 16.667 2.33301 26 7l20 -67l-2 -5c-15.333 -9.33301 -35 -14 -59 -14c-32.667 0 -58.334 8.33301 -77.001 25zM424 302.001
c-3.33301 36 -17.5 64.167 -42.5 84.5s-56.167 30.5 -93.5 30.5c-34.667 0 -64.5 -10.167 -89.5 -30.5s-40.833 -48.5 -47.5 -84.5h273z" />
    <glyph glyph-name="Ecaron" unicode="&#x11a;" horiz-adv-x="576" 
d="M68 700h442v-110h-317v-185h290v-110h-290v-185h328v-110h-453v700zM142 903h93l59 -60l59 60h94l-111 -139h-83z" />
    <glyph glyph-name="ecaron" unicode="&#x11b;" horiz-adv-x="564" 
d="M157 22.5c-38 21.667 -67.334 52.1699 -88.001 91.5029s-31 84.666 -31 135.999c0 50.667 11.5 95.667 34.5 135s53.5 70 91.5 92s79.333 33 124 33c47.333 0 89.5 -10.167 126.5 -30.5s65.833 -49.833 86.5 -88.5s31 -84.334 31 -137.001v-35h-383
c2.66699 -40.667 16.834 -72.834 42.501 -96.501s58.5 -35.5 98.5 -35.5c34 0 62 7.83301 84 23.5s37.667 37.167 47 64.5l100 -6l3 -5c-16 -56 -44.167 -99 -84.5 -129s-90.833 -45 -151.5 -45c-49.333 0 -93 10.833 -131 32.5zM423.999 302.003
c-3.33301 36 -17.5 64.167 -42.5 84.5s-56.167 30.5 -93.5 30.5c-34.667 0 -64.5 -10.167 -89.5 -30.5s-40.833 -48.5 -47.5 -84.5h273zM134.999 703.003h93l59 -60l59 60h94l-111 -139h-83z" />
    <glyph glyph-name="Gcircumflex" unicode="&#x11c;" horiz-adv-x="772" 
d="M223.5 36c-54.333 30.667 -97.168 73.333 -128.501 128s-47 116.667 -47 186s15.5 131.333 46.5 186s73.5 97.334 127.5 128.001s114 46 180 46c80 0 148 -20.333 204 -61s92 -96 108 -166l-4 -7l-116 -9c-14 42.667 -37.167 75.5 -69.5 98.5s-73.5 34.5 -123.5 34.5
c-44.667 0 -84.334 -10.667 -119.001 -32s-61.334 -50.833 -80.001 -88.5s-28 -80.834 -28 -129.501s9.33301 -91.834 28 -129.501s45.334 -67 80.001 -88s75 -31.5 121 -31.5c58 0 104 15.5 138 46.5s54.333 74.5 61 130.5h-261v102h383v-57
c0 -64.667 -13.167 -122.167 -39.5 -172.5s-63.666 -89.666 -111.999 -117.999s-104.833 -42.5 -169.5 -42.5c-65.333 0 -125.166 15.333 -179.499 46zM360.998 902.999h83l111 -139h-94l-59 60l-59 -60h-93z" />
    <glyph glyph-name="gcircumflex" unicode="&#x11d;" horiz-adv-x="598" 
d="M137.5 -167c-37.667 28.667 -60.498 65.3301 -68.498 109.997l5 5l112 7c5.33301 -21.333 16.666 -38.166 33.999 -50.499s41.666 -18.5 72.999 -18.5c44 0 76.667 11.333 98 34s32 53.334 32 92.001v46c-22 -20 -44.5 -34.667 -67.5 -44s-50.833 -14 -83.5 -14
c-43.333 0 -82.833 10.333 -118.5 31s-63.834 50.167 -84.501 88.5s-31 83.5 -31 135.5c0 51.333 10.833 96.333 32.5 135s50.334 68.334 86.001 89.001s74.5 31 116.5 31c60.667 0 110.667 -19.667 150 -59v49h111v-489c0 -68.667 -21.167 -122.667 -63.5 -162
s-101.833 -59 -178.5 -59c-65.333 0 -116.833 14.333 -154.5 43zM386.502 131.996c24.333 24 36.5 55 36.5 93v58c0 38 -12.833 69.333 -38.5 94s-57.167 37 -94.5 37c-41.333 0 -75.166 -13 -101.499 -39s-39.5 -66 -39.5 -120s13.167 -94 39.5 -120
s60.166 -39 101.499 -39c40 0 72.167 12 96.5 36zM250.002 702.996h83l111 -139h-94l-59 60l-59 -60h-93z" />
    <glyph glyph-name="Gbreve" unicode="&#x11e;" horiz-adv-x="772" 
d="M223.5 36c-54.333 30.667 -97.168 73.333 -128.501 128s-47 116.667 -47 186s15.5 131.333 46.5 186s73.5 97.334 127.5 128.001s114 46 180 46c80 0 148 -20.333 204 -61s92 -96 108 -166l-4 -7l-116 -9c-14 42.667 -37.167 75.5 -69.5 98.5s-73.5 34.5 -123.5 34.5
c-44.667 0 -84.334 -10.667 -119.001 -32s-61.334 -50.833 -80.001 -88.5s-28 -80.834 -28 -129.501s9.33301 -91.834 28 -129.501s45.334 -67 80.001 -88s75 -31.5 121 -31.5c58 0 104 15.5 138 46.5s54.333 74.5 61 130.5h-261v102h383v-57
c0 -64.667 -13.167 -122.167 -39.5 -172.5s-63.666 -89.666 -111.999 -117.999s-104.833 -42.5 -169.5 -42.5c-65.333 0 -125.166 15.333 -179.499 46zM304.998 796.999c-24 24.667 -35.999 57 -35.999 97h89c0 -14.667 4.33301 -26.667 13 -36s19.667 -14 33 -14
s24.166 4.66699 32.499 14s12.5 21.333 12.5 36h89c0 -40 -11.833 -72.333 -35.5 -97s-56.5 -37 -98.5 -37s-75 12.333 -99 37z" />
    <glyph glyph-name="gbreve" unicode="&#x11f;" horiz-adv-x="598" 
d="M137.5 -167c-37.667 28.667 -60.498 65.3301 -68.498 109.997l5 5l112 7c5.33301 -21.333 16.666 -38.166 33.999 -50.499s41.666 -18.5 72.999 -18.5c44 0 76.667 11.333 98 34s32 53.334 32 92.001v46c-22 -20 -44.5 -34.667 -67.5 -44s-50.833 -14 -83.5 -14
c-43.333 0 -82.833 10.333 -118.5 31s-63.834 50.167 -84.501 88.5s-31 83.5 -31 135.5c0 51.333 10.833 96.333 32.5 135s50.334 68.334 86.001 89.001s74.5 31 116.5 31c60.667 0 110.667 -19.667 150 -59v49h111v-489c0 -68.667 -21.167 -122.667 -63.5 -162
s-101.833 -59 -178.5 -59c-65.333 0 -116.833 14.333 -154.5 43zM386.502 131.996c24.333 24 36.5 55 36.5 93v58c0 38 -12.833 69.333 -38.5 94s-57.167 37 -94.5 37c-41.333 0 -75.166 -13 -101.499 -39s-39.5 -66 -39.5 -120s13.167 -94 39.5 -120
s60.166 -39 101.499 -39c40 0 72.167 12 96.5 36zM194.002 596.996c-24 24.667 -35.999 57 -35.999 97h89c0 -14.667 4.33301 -26.667 13 -36s19.667 -14 33 -14s24.166 4.66699 32.499 14s12.5 21.333 12.5 36h89c0 -40 -11.833 -72.333 -35.5 -97s-56.5 -37 -98.5 -37
s-75 12.333 -99 37z" />
    <glyph glyph-name="Gdotaccent" unicode="&#x120;" horiz-adv-x="772" 
d="M223.5 36c-54.333 30.667 -97.168 73.333 -128.501 128s-47 116.667 -47 186s15.5 131.333 46.5 186s73.5 97.334 127.5 128.001s114 46 180 46c80 0 148 -20.333 204 -61s92 -96 108 -166l-4 -7l-116 -9c-14 42.667 -37.167 75.5 -69.5 98.5s-73.5 34.5 -123.5 34.5
c-44.667 0 -84.334 -10.667 -119.001 -32s-61.334 -50.833 -80.001 -88.5s-28 -80.834 -28 -129.501s9.33301 -91.834 28 -129.501s45.334 -67 80.001 -88s75 -31.5 121 -31.5c58 0 104 15.5 138 46.5s54.333 74.5 61 130.5h-261v102h383v-57
c0 -64.667 -13.167 -122.167 -39.5 -172.5s-63.666 -89.666 -111.999 -117.999s-104.833 -42.5 -169.5 -42.5c-65.333 0 -125.166 15.333 -179.499 46zM351.498 784.499c-14.333 14.333 -21.5 31.5 -21.5 51.5s7.16699 37.167 21.5 51.5s31.5 21.5 51.5 21.5
c20.667 0 38.167 -7.16699 52.5 -21.5s21.5 -31.5 21.5 -51.5s-7.16699 -37.167 -21.5 -51.5s-31.833 -21.5 -52.5 -21.5c-20 0 -37.167 7.16699 -51.5 21.5z" />
    <glyph glyph-name="gdotaccent" unicode="&#x121;" horiz-adv-x="598" 
d="M137.5 -167c-37.667 28.667 -60.498 65.3301 -68.498 109.997l5 5l112 7c5.33301 -21.333 16.666 -38.166 33.999 -50.499s41.666 -18.5 72.999 -18.5c44 0 76.667 11.333 98 34s32 53.334 32 92.001v46c-22 -20 -44.5 -34.667 -67.5 -44s-50.833 -14 -83.5 -14
c-43.333 0 -82.833 10.333 -118.5 31s-63.834 50.167 -84.501 88.5s-31 83.5 -31 135.5c0 51.333 10.833 96.333 32.5 135s50.334 68.334 86.001 89.001s74.5 31 116.5 31c60.667 0 110.667 -19.667 150 -59v49h111v-489c0 -68.667 -21.167 -122.667 -63.5 -162
s-101.833 -59 -178.5 -59c-65.333 0 -116.833 14.333 -154.5 43zM386.502 131.996c24.333 24 36.5 55 36.5 93v58c0 38 -12.833 69.333 -38.5 94s-57.167 37 -94.5 37c-41.333 0 -75.166 -13 -101.499 -39s-39.5 -66 -39.5 -120s13.167 -94 39.5 -120
s60.166 -39 101.499 -39c40 0 72.167 12 96.5 36zM240.502 584.496c-14.333 14.333 -21.5 31.5 -21.5 51.5s7.16699 37.167 21.5 51.5s31.5 21.5 51.5 21.5c20.667 0 38.167 -7.16699 52.5 -21.5s21.5 -31.5 21.5 -51.5s-7.16699 -37.167 -21.5 -51.5
s-31.833 -21.5 -52.5 -21.5c-20 0 -37.167 7.16699 -51.5 21.5z" />
    <glyph glyph-name="uni0122" unicode="&#x122;" horiz-adv-x="772" 
d="M223.5 36c-54.333 30.667 -97.168 73.333 -128.501 128s-47 116.667 -47 186s15.5 131.333 46.5 186s73.5 97.334 127.5 128.001s114 46 180 46c80 0 148 -20.333 204 -61s92 -96 108 -166l-4 -7l-116 -9c-14 42.667 -37.167 75.5 -69.5 98.5s-73.5 34.5 -123.5 34.5
c-44.667 0 -84.334 -10.667 -119.001 -32s-61.334 -50.833 -80.001 -88.5s-28 -80.834 -28 -129.501s9.33301 -91.834 28 -129.501s45.334 -67 80.001 -88s75 -31.5 121 -31.5c58 0 104 15.5 138 46.5s54.333 74.5 61 130.5h-261v102h383v-57
c0 -64.667 -13.167 -122.167 -39.5 -172.5s-63.666 -89.666 -111.999 -117.999s-104.833 -42.5 -169.5 -42.5c-65.333 0 -125.166 15.333 -179.499 46zM333.998 -291.001c18.667 14 33.668 28.499 45.001 43.499s18.666 32.5 21.999 52.5
c-20.667 0 -37.167 7.16699 -49.5 21.5s-18.5 30.5 -18.5 48.5c0 18.667 6.66699 34.834 20 48.501s30 20.5 50 20.5s36.5 -7 49.5 -21s19.5 -31 19.5 -51c0 -40 -10.5 -75.667 -31.5 -107s-50.5 -58 -88.5 -80z" />
    <glyph glyph-name="uni0123" unicode="&#x123;" horiz-adv-x="598" 
d="M137.5 -167c-37.667 28.667 -60.498 65.3301 -68.498 109.997l5 5l112 7c5.33301 -21.333 16.666 -38.166 33.999 -50.499s41.666 -18.5 72.999 -18.5c44 0 76.667 11.333 98 34s32 53.334 32 92.001v46c-22 -20 -44.5 -34.667 -67.5 -44s-50.833 -14 -83.5 -14
c-43.333 0 -82.833 10.333 -118.5 31s-63.834 50.167 -84.501 88.5s-31 83.5 -31 135.5c0 51.333 10.833 96.333 32.5 135s50.334 68.334 86.001 89.001s74.5 31 116.5 31c60.667 0 110.667 -19.667 150 -59v49h111v-489c0 -68.667 -21.167 -122.667 -63.5 -162
s-101.833 -59 -178.5 -59c-65.333 0 -116.833 14.333 -154.5 43zM386.502 131.996c24.333 24 36.5 55 36.5 93v58c0 38 -12.833 69.333 -38.5 94s-57.167 37 -94.5 37c-41.333 0 -75.166 -13 -101.499 -39s-39.5 -66 -39.5 -120s13.167 -94 39.5 -120
s60.166 -39 101.499 -39c40 0 72.167 12 96.5 36zM236.502 591.996c-13.667 14.667 -20.501 33.999 -20.501 57.999c0 39.333 12.333 75 37 107s59 56 103 72l12 -27c-45.333 -22 -71.666 -53 -78.999 -93c21.333 -1.33301 38 -8.83301 50 -22.5s18 -29.5 18 -47.5
c0 -19.333 -6.66699 -35.666 -20 -48.999s-30 -20 -50 -20s-36.833 7.33301 -50.5 22z" />
    <glyph glyph-name="Hcircumflex" unicode="&#x124;" horiz-adv-x="681" 
d="M68 700h125v-295h295v295h125v-700h-125v295h-295v-295h-125v700zM299 903h83l111 -139h-94l-59 60l-59 -60h-93z" />
    <glyph glyph-name="hcircumflex" unicode="&#x125;" horiz-adv-x="591" 
d="M64 730h113.999v-293c20 20.667 45.833 38 77.5 52s64.834 21 99.501 21c53.333 0 96 -15.167 128 -45.5s48 -71.5 48 -123.5v-341h-114v315c0 30.667 -9 54.167 -27 70.5s-41.667 24.5 -71 24.5c-26.667 0 -52.5 -7.16699 -77.5 -21.5s-46.167 -33.5 -63.5 -57.5v-331
h-114v730zM78.999 906h83l111 -139h-94l-59 60l-59 -60h-93z" />
    <glyph glyph-name="Hbar" unicode="&#x126;" horiz-adv-x="700" 
d="M77 496h-69v88h69v116h125v-116h295v116h125v-116h70v-88h-70v-496h-125v294h-295v-294h-125v496zM497 406v90h-295v-90h295z" />
    <glyph glyph-name="hbar" unicode="&#x127;" horiz-adv-x="630" 
d="M522 464.5c32 -30.333 47.999 -71.5 47.999 -123.5v-341h-114v315c0 30.667 -9 54.167 -27 70.5s-41.667 24.5 -71 24.5c-26.667 0 -52.5 -7.16699 -77.5 -21.5s-46.167 -33.5 -63.5 -57.5v-331h-114v568h-76v83h76v79h114v-79h164v-83h-164v-131
c20 20.667 45.833 38 77.5 52s64.834 21 99.501 21c53.333 0 96 -15.167 128 -45.5z" />
    <glyph glyph-name="Itilde" unicode="&#x128;" horiz-adv-x="261" 
d="M68 700h125v-700h-125v700zM151.5 775.5c-12.333 5.66699 -24.833 13.834 -37.5 24.501c-8 6.66699 -15.5 11.834 -22.5 15.501s-14.833 5.5 -23.5 5.5c-23.333 0 -38 -16.333 -44 -49h-78c2.66699 43.333 15.167 75.833 37.5 97.5s48.166 32.5 77.499 32.5
c20.667 0 37.167 -2.83301 49.5 -8.5s24.833 -13.834 37.5 -24.501c8 -6.66699 15.5 -11.834 22.5 -15.501s14.833 -5.5 23.5 -5.5c23.333 0 38 16.333 44 49h78c-2.66699 -43.333 -15.167 -75.833 -37.5 -97.5s-48.166 -32.5 -77.499 -32.5
c-20.667 0 -37.167 2.83301 -49.5 8.5z" />
    <glyph glyph-name="itilde" unicode="&#x129;" horiz-adv-x="238" 
d="M62 500h114v-500h-114v500zM139.5 575.5c-12.333 5.66699 -24.833 13.834 -37.5 24.501c-8 6.66699 -15.5 11.834 -22.5 15.501s-14.833 5.5 -23.5 5.5c-23.333 0 -38 -16.333 -44 -49h-78c2.66699 43.333 15.167 75.833 37.5 97.5s48.166 32.5 77.499 32.5
c20.667 0 37.167 -2.83301 49.5 -8.5s24.833 -13.834 37.5 -24.501c8 -6.66699 15.5 -11.834 22.5 -15.501s14.833 -5.5 23.5 -5.5c23.333 0 38 16.333 44 49h78c-2.66699 -43.333 -15.167 -75.833 -37.5 -97.5s-48.166 -32.5 -77.499 -32.5
c-20.667 0 -37.167 2.83301 -49.5 8.5z" />
    <glyph glyph-name="Imacron" unicode="&#x12a;" horiz-adv-x="261" 
d="M68 700h125v-700h-125v700zM6 875h249v-84h-249v84z" />
    <glyph glyph-name="imacron" unicode="&#x12b;" horiz-adv-x="238" 
d="M62 500h114v-500h-114v500zM-6 665h249v-84h-249v84z" />
    <glyph glyph-name="Ibreve" unicode="&#x12c;" horiz-adv-x="261" 
d="M68 700h125v-700h-125v700zM32 797c-24 24.667 -35.999 57 -35.999 97h89c0 -14.667 4.33301 -26.667 13 -36s19.667 -14 33 -14s24.166 4.66699 32.499 14s12.5 21.333 12.5 36h89c0 -40 -11.833 -72.333 -35.5 -97s-56.5 -37 -98.5 -37s-75 12.333 -99 37z" />
    <glyph glyph-name="ibreve" unicode="&#x12d;" horiz-adv-x="238" 
d="M62 500h114v-500h-114v500zM21 597c-24 24.667 -35.999 57 -35.999 97h89c0 -14.667 4.33301 -26.667 13 -36s19.667 -14 33 -14s24.166 4.66699 32.499 14s12.5 21.333 12.5 36h89c0 -40 -11.833 -72.333 -35.5 -97s-56.5 -37 -98.5 -37s-75 12.333 -99 37z" />
    <glyph glyph-name="Iogonek" unicode="&#x12e;" horiz-adv-x="261" 
d="M55 -164c-18.667 17.333 -27.999 40 -27.999 68c0 35.333 13.667 67.333 41 96v700h125v-700c-26.667 -9.33301 -46.167 -21.333 -58.5 -36s-18.5 -29 -18.5 -43c0 -10 2.83301 -17.833 8.5 -23.5s13.167 -8.5 22.5 -8.5c6.66699 0 15.334 2.33301 26.001 7l19 -67l-1 -5
c-16.667 -9.33301 -36.334 -14 -59.001 -14c-32.667 0 -58.334 8.66699 -77.001 26z" />
    <glyph glyph-name="iogonek" unicode="&#x12f;" horiz-adv-x="247" 
d="M67 584.5c-14.667 14.333 -22 31.5 -22 51.5s7.33301 37.167 22 51.5s32 21.5 52 21.5s37.167 -7.16699 51.5 -21.5s21.5 -31.5 21.5 -51.5s-7.16699 -37.167 -21.5 -51.5s-31.5 -21.5 -51.5 -21.5s-37.333 7.16699 -52 21.5zM47 -165
c-18.667 16.667 -27.998 38.667 -27.998 66c0 37.333 14.333 70.333 43 99v500h114v-500c-22.667 -10 -39.5 -22.333 -50.5 -37s-16.5 -28.667 -16.5 -42c0 -10 2.83301 -17.833 8.5 -23.5s13.167 -8.5 22.5 -8.5c7.33301 0 15.666 2.33301 24.999 7l20 -67l-1 -5
c-16.667 -9.33301 -36.667 -14 -60 -14c-32.667 0 -58.334 8.33301 -77.001 25z" />
    <glyph glyph-name="Idotaccent" unicode="&#x130;" horiz-adv-x="261" 
d="M68 700h125v-700h-125v700zM78.5 784.5c-14.333 14.333 -21.5 31.5 -21.5 51.5s7.16699 37.167 21.5 51.5s31.5 21.5 51.5 21.5c20.667 0 38.167 -7.16699 52.5 -21.5s21.5 -31.5 21.5 -51.5s-7.16699 -37.167 -21.5 -51.5s-31.833 -21.5 -52.5 -21.5
c-20 0 -37.167 7.16699 -51.5 21.5z" />
    <glyph glyph-name="dotlessi" unicode="&#x131;" horiz-adv-x="238" 
d="M62 500h114v-500h-114v500z" />
    <glyph glyph-name="IJ" unicode="&#x132;" horiz-adv-x="803" 
d="M68 700h125v-700h-125v700zM394.5 18.5c-33 19 -58.334 44.832 -76.001 77.499s-27.167 69.334 -28.5 110.001l5 6l114 9c0.666992 -41.333 9.66699 -72.5 27 -93.5s42.333 -31.5 75 -31.5s57.334 10 74.001 30s25 49 25 87v487h125v-477
c0 -72.667 -19.5 -129.667 -58.5 -171s-94.167 -62 -165.5 -62c-44.667 0 -83.5 9.5 -116.5 28.5z" />
    <glyph glyph-name="ij" unicode="&#x133;" horiz-adv-x="477" 
d="M69 586c-14 14 -21 30.667 -21 50s7 36 21 50s30.667 21 50 21s36 -7 50 -21s21 -30.667 21 -50s-7 -36 -21 -50s-30.667 -21 -50 -21s-36 7 -50 21zM62 500h114v-500h-114v500zM309 586c-14 14 -21 30.667 -21 50s7 36 21 50s30.667 21 50 21s36 -7 50 -21
s21 -30.667 21 -50s-7 -36 -21 -50s-30.667 -21 -50 -21s-36 7 -50 21zM202 -200l0.000976562 99l5 3c7.33301 -2.66699 15.166 -5 23.499 -7s16.833 -3 25.5 -3c30.667 0 46 17 46 51v557h114v-568c0 -47.333 -12.5 -82.833 -37.5 -106.5s-59.5 -35.5 -103.5 -35.5
c-24 0 -48.333 3.33301 -73 10z" />
    <glyph glyph-name="Jcircumflex" unicode="&#x134;" horiz-adv-x="542" 
d="M133.5 18.5c-33 19 -58.334 44.832 -76.001 77.499s-27.167 69.334 -28.5 110.001l5 6l114 9c0.666992 -41.333 9.66699 -72.5 27 -93.5s42.333 -31.5 75 -31.5s57.334 10 74.001 30s25 49 25 87v487h125v-477c0 -72.667 -19.5 -129.667 -58.5 -171
s-94.167 -62 -165.5 -62c-44.667 0 -83.5 9.5 -116.5 28.5zM369.999 902.999h83l111 -139h-94l-59 60l-59 -60h-93z" />
    <glyph glyph-name="jcircumflex" unicode="&#x135;" horiz-adv-x="240" 
d="M-36 -200l0.000976562 99l5 3c7.33301 -2.66699 15.166 -5 23.499 -7s16.833 -3 25.5 -3c30.667 0 46 17 46 51v557h114v-568c0 -47.333 -12.5 -82.833 -37.5 -106.5s-59.5 -35.5 -103.5 -35.5c-24 0 -48.333 3.33301 -73 10zM79.001 703h83l111 -139h-94l-59 60l-59 -60
h-93z" />
    <glyph glyph-name="uni0136" unicode="&#x136;" horiz-adv-x="630" 
d="M68 700h125v-290h3l249 290h145l-284 -328l296 -372h-157l-249 318h-3v-318h-125v700zM240 -291c18.667 14 33.668 28.499 45.001 43.499s18.666 32.5 21.999 52.5c-20.667 0 -37.167 7.16699 -49.5 21.5s-18.5 30.5 -18.5 48.5c0 18.667 6.66699 34.834 20 48.501
s30 20.5 50 20.5s36.5 -7 49.5 -21s19.5 -31 19.5 -51c0 -40 -10.5 -75.667 -31.5 -107s-50.5 -58 -88.5 -80z" />
    <glyph glyph-name="uni0137" unicode="&#x137;" horiz-adv-x="515" 
d="M64 730h114v-402h4l159 172h140l-207 -222l223 -278h-139l-176 217h-4v-217h-114v730zM187 -291c18.667 14 33.668 28.499 45.001 43.499s18.666 32.5 21.999 52.5c-20.667 0 -37.167 7.16699 -49.5 21.5s-18.5 30.5 -18.5 48.5c0 18.667 6.66699 34.834 20 48.501
s30 20.5 50 20.5s36.5 -7 49.5 -21s19.5 -31 19.5 -51c0 -40 -10.5 -75.667 -31.5 -107s-50.5 -58 -88.5 -80z" />
    <glyph glyph-name="kgreenlandic" unicode="&#x138;" horiz-adv-x="513" 
d="M64 500h113v-172h3l160 172h140l-206 -221l221 -279h-139l-176 217h-3v-217h-113v500z" />
    <glyph glyph-name="Lacute" unicode="&#x139;" horiz-adv-x="590" 
d="M68 700h125v-590h343v-110h-468v700zM155 903h133l-112 -139h-100z" />
    <glyph glyph-name="lacute" unicode="&#x13a;" horiz-adv-x="242" 
d="M64 730h114v-730h-114v730zM138 933h133l-112 -139h-100z" />
    <glyph glyph-name="uni013B" unicode="&#x13b;" horiz-adv-x="590" 
d="M68 700h125v-590h343v-110h-468v700zM238 -291c18.667 14 33.668 28.499 45.001 43.499s18.666 32.5 21.999 52.5c-20.667 0 -37.167 7.16699 -49.5 21.5s-18.5 30.5 -18.5 48.5c0 18.667 6.66699 34.834 20 48.501s30 20.5 50 20.5s36.5 -7 49.5 -21s19.5 -31 19.5 -51
c0 -40 -10.5 -75.667 -31.5 -107s-50.5 -58 -88.5 -80z" />
    <glyph glyph-name="uni013C" unicode="&#x13c;" horiz-adv-x="242" 
d="M64 730h114v-730h-114v730zM53 -291c18.667 14 33.668 28.499 45.001 43.499s18.666 32.5 21.999 52.5c-20.667 0 -37.167 7.16699 -49.5 21.5s-18.5 30.5 -18.5 48.5c0 18.667 6.66699 34.834 20 48.501s30 20.5 50 20.5s36.5 -7 49.5 -21s19.5 -31 19.5 -51
c0 -40 -10.5 -75.667 -31.5 -107s-50.5 -58 -88.5 -80z" />
    <glyph glyph-name="Lcaron" unicode="&#x13d;" horiz-adv-x="590" 
d="M68 700h125v-590h343v-110h-468v700zM380 531c17.333 6.66699 31.998 16.1689 43.998 28.502s20 26.833 24 43.5c-17.333 1.33301 -31.666 7.66602 -42.999 18.999s-17 25.666 -17 42.999c0 18.667 6 34.167 18 46.5s27.333 18.5 46 18.5s34.167 -6.66699 46.5 -20
s18.5 -30.666 18.5 -51.999c0 -35.333 -10.667 -65.833 -32 -91.5s-52.666 -45.834 -93.999 -60.501z" />
    <glyph glyph-name="lcaron" unicode="&#x13e;" horiz-adv-x="361" 
d="M64 730h114v-730h-114v730zM224 531c16.667 6.66699 31.167 16.335 43.5 29.002s20.5 27 24.5 43c-17.333 1.33301 -31.833 7.66602 -43.5 18.999s-17.5 25.666 -17.5 42.999c0 18.667 6.16699 34.167 18.5 46.5s27.833 18.5 46.5 18.5s34.167 -6.66699 46.5 -20
s18.5 -30.666 18.5 -51.999c0 -35.333 -10.667 -65.833 -32 -91.5s-53 -45.834 -95 -60.501z" />
    <glyph glyph-name="Ldot" unicode="&#x13f;" horiz-adv-x="590" 
d="M68 700h125v-590h343v-110h-468v700zM377.5 294.5c-15.667 15.667 -23.5 34.167 -23.5 55.5s7.83301 39.666 23.5 54.999s34.167 23 55.5 23s39.666 -7.66699 54.999 -23s23 -33.666 23 -54.999s-7.66699 -39.833 -23 -55.5s-33.666 -23.5 -54.999 -23.5
s-39.833 7.83301 -55.5 23.5z" />
    <glyph glyph-name="ldot" unicode="&#x140;" horiz-adv-x="434" 
d="M64 730h114v-730h-114v730zM251.5 294.5c-15.667 15.667 -23.5 34.167 -23.5 55.5s7.83301 39.666 23.5 54.999s34.167 23 55.5 23s39.666 -7.66699 54.999 -23s23 -33.666 23 -54.999s-7.66699 -39.833 -23 -55.5s-33.666 -23.5 -54.999 -23.5
s-39.833 7.83301 -55.5 23.5z" />
    <glyph glyph-name="Lslash" unicode="&#x141;" horiz-adv-x="631" 
d="M576 110v-110h-468v197l-46 -26l-44 77v10l90 52v390h125v-319l104 60l46 -81v-6l-150 -86v-158h343z" />
    <glyph glyph-name="lslash" unicode="&#x142;" horiz-adv-x="355" 
d="M355 410l-120 -69v-341h-115v274l-75 -43l-45 76v8l120 69v346h115v-279l75 43l45 -76v-8z" />
    <glyph glyph-name="Nacute" unicode="&#x143;" horiz-adv-x="696" 
d="M68 700h137l289 -487l6 -28h3v515h125v-700h-137l-289 487l-6 28h-3v-515h-125v700zM372 903h133l-112 -139h-100z" />
    <glyph glyph-name="nacute" unicode="&#x144;" horiz-adv-x="578" 
d="M64 500l114 0.00195312v-65c20.667 21.333 45.834 39.166 75.501 53.499s61.5 21.5 95.5 21.5c53.333 0 94.833 -15.167 124.5 -45.5s44.5 -70.5 44.5 -120.5v-344h-114v315c0 30.667 -7.83301 54.167 -23.5 70.5s-38.5 24.5 -68.5 24.5
c-25.333 0 -49.833 -7.83301 -73.5 -23.5s-43.834 -35.834 -60.501 -60.501v-326h-114v500zM308 703.002h133l-112 -139h-100z" />
    <glyph glyph-name="uni0145" unicode="&#x145;" horiz-adv-x="696" 
d="M68 700h137l289 -487l6 -28h3v515h125v-700h-137l-289 487l-6 28h-3v-515h-125v700zM280 -291c18.667 14 33.668 28.499 45.001 43.499s18.666 32.5 21.999 52.5c-20.667 0 -37.167 7.16699 -49.5 21.5s-18.5 30.5 -18.5 48.5c0 18.667 6.66699 34.834 20 48.501
s30 20.5 50 20.5s36.5 -7 49.5 -21s19.5 -31 19.5 -51c0 -40 -10.5 -75.667 -31.5 -107s-50.5 -58 -88.5 -80z" />
    <glyph glyph-name="uni0146" unicode="&#x146;" horiz-adv-x="578" 
d="M64 500l114 0.00195312v-65c20.667 21.333 45.834 39.166 75.501 53.499s61.5 21.5 95.5 21.5c53.333 0 94.833 -15.167 124.5 -45.5s44.5 -70.5 44.5 -120.5v-344h-114v315c0 30.667 -7.83301 54.167 -23.5 70.5s-38.5 24.5 -68.5 24.5
c-25.333 0 -49.833 -7.83301 -73.5 -23.5s-43.834 -35.834 -60.501 -60.501v-326h-114v500zM223 -290.998c18.667 14 33.668 28.499 45.001 43.499s18.666 32.5 21.999 52.5c-20.667 0 -37.167 7.16699 -49.5 21.5s-18.5 30.5 -18.5 48.5c0 18.667 6.66699 34.834 20 48.501
s30 20.5 50 20.5s36.5 -7 49.5 -21s19.5 -31 19.5 -51c0 -40 -10.5 -75.667 -31.5 -107s-50.5 -58 -88.5 -80z" />
    <glyph glyph-name="Ncaron" unicode="&#x147;" horiz-adv-x="696" 
d="M68 700h137l289 -487l6 -28h3v515h125v-700h-137l-289 487l-6 28h-3v-515h-125v700zM195 903h93l59 -60l59 60h94l-111 -139h-83z" />
    <glyph glyph-name="ncaron" unicode="&#x148;" horiz-adv-x="578" 
d="M64 500l114 0.00195312v-65c20.667 21.333 45.834 39.166 75.501 53.499s61.5 21.5 95.5 21.5c53.333 0 94.833 -15.167 124.5 -45.5s44.5 -70.5 44.5 -120.5v-344h-114v315c0 30.667 -7.83301 54.167 -23.5 70.5s-38.5 24.5 -68.5 24.5
c-25.333 0 -49.833 -7.83301 -73.5 -23.5s-43.834 -35.834 -60.501 -60.501v-326h-114v500zM138 703.002h93l59 -60l59 60h94l-111 -139h-83z" />
    <glyph glyph-name="Eng" unicode="&#x14a;" horiz-adv-x="696" 
d="M330 -199l27 106.999c16 -8 35.333 -12 58 -12c28.667 0 50.5 8.83301 65.5 26.5s22.5 43.5 22.5 77.5l-301 487l-6 28h-3v-515h-125v700h137l289 -469l6 -28h3v497h125v-682c0 -71.333 -17.667 -127.166 -53 -167.499s-88 -60.5 -158 -60.5
c-31.333 0 -60.333 3.66699 -87 11z" />
    <glyph glyph-name="eng" unicode="&#x14b;" horiz-adv-x="578" 
d="M304 -200l0.000976562 99.002l5 3c7.33301 -2.66699 15.166 -5 23.499 -7s16.833 -3 25.5 -3c30.667 0 46 17 46 51v372c0 30.667 -7.83301 54.167 -23.5 70.5s-38.5 24.5 -68.5 24.5c-25.333 0 -49.833 -7.83301 -73.5 -23.5s-43.834 -35.834 -60.501 -60.501v-326h-114
v500h114v-65c20.667 21.333 45.834 39.166 75.501 53.499s61.5 21.5 95.5 21.5c53.333 0 94.833 -15.167 124.5 -45.5s44.5 -70.5 44.5 -120.5v-412c0 -47.333 -12.5 -82.833 -37.5 -106.5s-59.5 -35.5 -103.5 -35.5c-24 0 -48.333 3.33301 -73 10z" />
    <glyph glyph-name="Omacron" unicode="&#x14c;" horiz-adv-x="803" 
d="M221.5 35.5c-53.667 30.333 -96 72.833 -127 127.5s-46.5 117 -46.5 187s15.5 132.333 46.5 187s73.333 97.167 127 127.5s113.5 45.5 179.5 45.5c66.667 0 126.834 -15.167 180.501 -45.5s96 -72.833 127 -127.5s46.5 -117 46.5 -187s-15.5 -132.333 -46.5 -187
s-73.333 -97.167 -127 -127.5s-113.834 -45.5 -180.501 -45.5c-66 0 -125.833 15.167 -179.5 45.5zM520.5 133.5c34.333 21 60.833 50.167 79.5 87.5s28 80.333 28 129s-9.33301 91.667 -28 129s-45.167 66.5 -79.5 87.5s-74.166 31.5 -119.499 31.5
s-85.166 -10.5 -119.499 -31.5s-60.833 -50.167 -79.5 -87.5s-28 -80.333 -28 -129s9.33301 -91.667 28 -129s45.167 -66.5 79.5 -87.5s74.166 -31.5 119.499 -31.5s85.166 10.5 119.499 31.5zM277 875h249v-84h-249v84z" />
    <glyph glyph-name="omacron" unicode="&#x14d;" horiz-adv-x="605" 
d="M165.5 24c-40.333 22.667 -71.666 53.667 -93.999 93s-33.5 83.666 -33.5 132.999s11.167 93.666 33.5 132.999s53.666 70.333 93.999 93s86.166 34 137.499 34s97 -11.333 137 -34s71.167 -53.667 93.5 -93s33.5 -83.666 33.5 -132.999s-11.167 -93.666 -33.5 -132.999
s-53.5 -70.333 -93.5 -93s-85.667 -34 -137 -34s-97.166 11.333 -137.499 34zM411 133.5c28 28.333 42 67.166 42 116.499s-14 88.166 -42 116.499s-64 42.5 -108 42.5s-80.167 -14.167 -108.5 -42.5s-42.5 -67.166 -42.5 -116.499s14.167 -88.166 42.5 -116.499
s64.5 -42.5 108.5 -42.5s80 14.167 108 42.5zM178 665h249v-84h-249v84z" />
    <glyph glyph-name="Obreve" unicode="&#x14e;" horiz-adv-x="803" 
d="M221.5 35.5c-53.667 30.333 -96 72.833 -127 127.5s-46.5 117 -46.5 187s15.5 132.333 46.5 187s73.333 97.167 127 127.5s113.5 45.5 179.5 45.5c66.667 0 126.834 -15.167 180.501 -45.5s96 -72.833 127 -127.5s46.5 -117 46.5 -187s-15.5 -132.333 -46.5 -187
s-73.333 -97.167 -127 -127.5s-113.834 -45.5 -180.501 -45.5c-66 0 -125.833 15.167 -179.5 45.5zM520.5 133.5c34.333 21 60.833 50.167 79.5 87.5s28 80.333 28 129s-9.33301 91.667 -28 129s-45.167 66.5 -79.5 87.5s-74.166 31.5 -119.499 31.5
s-85.166 -10.5 -119.499 -31.5s-60.833 -50.167 -79.5 -87.5s-28 -80.333 -28 -129s9.33301 -91.667 28 -129s45.167 -66.5 79.5 -87.5s74.166 -31.5 119.499 -31.5s85.166 10.5 119.499 31.5zM303 797c-24 24.667 -35.999 57 -35.999 97h89
c0 -14.667 4.33301 -26.667 13 -36s19.667 -14 33 -14s24.166 4.66699 32.499 14s12.5 21.333 12.5 36h89c0 -40 -11.833 -72.333 -35.5 -97s-56.5 -37 -98.5 -37s-75 12.333 -99 37z" />
    <glyph glyph-name="obreve" unicode="&#x14f;" horiz-adv-x="605" 
d="M165.5 24c-40.333 22.667 -71.666 53.667 -93.999 93s-33.5 83.666 -33.5 132.999s11.167 93.666 33.5 132.999s53.666 70.333 93.999 93s86.166 34 137.499 34s97 -11.333 137 -34s71.167 -53.667 93.5 -93s33.5 -83.666 33.5 -132.999s-11.167 -93.666 -33.5 -132.999
s-53.5 -70.333 -93.5 -93s-85.667 -34 -137 -34s-97.166 11.333 -137.499 34zM411 133.5c28 28.333 42 67.166 42 116.499s-14 88.166 -42 116.499s-64 42.5 -108 42.5s-80.167 -14.167 -108.5 -42.5s-42.5 -67.166 -42.5 -116.499s14.167 -88.166 42.5 -116.499
s64.5 -42.5 108.5 -42.5s80 14.167 108 42.5zM204 597c-24 24.667 -35.999 57 -35.999 97h89c0 -14.667 4.33301 -26.667 13 -36s19.667 -14 33 -14s24.166 4.66699 32.499 14s12.5 21.333 12.5 36h89c0 -40 -11.833 -72.333 -35.5 -97s-56.5 -37 -98.5 -37
s-75 12.333 -99 37z" />
    <glyph glyph-name="Ohungarumlaut" unicode="&#x150;" horiz-adv-x="803" 
d="M221.5 35.5c-53.667 30.333 -96 72.833 -127 127.5s-46.5 117 -46.5 187s15.5 132.333 46.5 187s73.333 97.167 127 127.5s113.5 45.5 179.5 45.5c66.667 0 126.834 -15.167 180.501 -45.5s96 -72.833 127 -127.5s46.5 -117 46.5 -187s-15.5 -132.333 -46.5 -187
s-73.333 -97.167 -127 -127.5s-113.834 -45.5 -180.501 -45.5c-66 0 -125.833 15.167 -179.5 45.5zM520.5 133.5c34.333 21 60.833 50.167 79.5 87.5s28 80.333 28 129s-9.33301 91.667 -28 129s-45.167 66.5 -79.5 87.5s-74.166 31.5 -119.499 31.5
s-85.166 -10.5 -119.499 -31.5s-60.833 -50.167 -79.5 -87.5s-28 -80.333 -28 -129s9.33301 -91.667 28 -129s45.167 -66.5 79.5 -87.5s74.166 -31.5 119.499 -31.5s85.166 10.5 119.499 31.5zM312 903h128l-98 -139h-95zM488 903h128l-98 -139h-95z" />
    <glyph glyph-name="ohungarumlaut" unicode="&#x151;" horiz-adv-x="605" 
d="M165.5 24c-40.333 22.667 -71.666 53.667 -93.999 93s-33.5 83.666 -33.5 132.999s11.167 93.666 33.5 132.999s53.666 70.333 93.999 93s86.166 34 137.499 34s97 -11.333 137 -34s71.167 -53.667 93.5 -93s33.5 -83.666 33.5 -132.999s-11.167 -93.666 -33.5 -132.999
s-53.5 -70.333 -93.5 -93s-85.667 -34 -137 -34s-97.166 11.333 -137.499 34zM411 133.5c28 28.333 42 67.166 42 116.499s-14 88.166 -42 116.499s-64 42.5 -108 42.5s-80.167 -14.167 -108.5 -42.5s-42.5 -67.166 -42.5 -116.499s14.167 -88.166 42.5 -116.499
s64.5 -42.5 108.5 -42.5s80 14.167 108 42.5zM213 703h128l-98 -139h-95zM389 703h128l-98 -139h-95z" />
    <glyph glyph-name="OE" unicode="&#x152;" horiz-adv-x="1136" 
d="M221.5 35.5c-53.667 30.333 -96 72.833 -127 127.5s-46.5 117 -46.5 187s15.5 132.333 46.5 187s73.333 97.167 127 127.5s113.5 45.5 179.5 45.5c44 0 85.333 -7.16699 124 -21.5s73 -34.833 103 -61.5v73h442v-110h-317v-185h290v-110h-290v-183h328v-112h-453v73
c-30 -26.667 -64.333 -47.167 -103 -61.5s-80 -21.5 -124 -21.5c-66 0 -125.833 15.167 -179.5 45.5zM520.5 133.5c34.333 21 60.833 50.167 79.5 87.5s28 80.333 28 129s-9.33301 91.667 -28 129s-45.167 66.5 -79.5 87.5s-74.166 31.5 -119.499 31.5
s-85.166 -10.5 -119.499 -31.5s-60.833 -50.167 -79.5 -87.5s-28 -80.333 -28 -129s9.33301 -91.667 28 -129s45.167 -66.5 79.5 -87.5s74.166 -31.5 119.499 -31.5s85.166 10.5 119.499 31.5z" />
    <glyph glyph-name="oe" unicode="&#x153;" horiz-adv-x="984" 
d="M165.5 24c-40.333 22.667 -71.6689 53.6709 -94.002 93.0039s-33.5 83.666 -33.5 132.999s11.167 93.666 33.5 132.999s53.666 70.333 93.999 93s86.166 34 137.499 34c44 0 83.5 -8.66699 118.5 -26s64.833 -42.333 89.5 -75c24 32 52.833 56.833 86.5 74.5
s70.5 26.5 110.5 26.5c47.333 0 89.333 -10.167 126 -30.5s65.334 -49.833 86.001 -88.5s31 -84.334 31 -137.001v-35h-383c2.66699 -40.667 16.834 -72.834 42.501 -96.501s58.834 -35.5 99.501 -35.5c34 0 61.833 7.66699 83.5 23s37.167 37 46.5 65l100 -6l3 -5
c-16 -56 -44.167 -99 -84.5 -129s-90.5 -45 -150.5 -45c-43.333 0 -81.833 8.33301 -115.5 25s-61.5 40.667 -83.5 72c-24 -31.333 -53.5 -55.333 -88.5 -72s-74.167 -25 -117.5 -25c-51.333 0 -97.166 11.333 -137.499 34zM842.997 302.004
c-3.33301 36 -17.498 64.167 -42.498 84.5s-56.167 30.5 -93.5 30.5c-34.667 0 -64.334 -10.167 -89.001 -30.5s-40.334 -48.5 -47.001 -84.5h272zM410.999 133.504c28 28.333 42 67.166 42 116.499s-14 88.166 -42 116.499s-64 42.5 -108 42.5
s-80.167 -14.167 -108.5 -42.5s-42.5 -67.166 -42.5 -116.499s14.167 -88.166 42.5 -116.499s64.5 -42.5 108.5 -42.5s80 14.167 108 42.5z" />
    <glyph glyph-name="Racute" unicode="&#x154;" horiz-adv-x="643" 
d="M68 700h242.999c53.333 0 99.833 -9.33301 139.5 -28s70.334 -45.167 92.001 -79.5s32.5 -74.5 32.5 -120.5c0 -44.667 -10.333 -83 -31 -115s-50.667 -59.667 -90 -83v-5l157 -269h-140l-141 247h-137v-247h-125v700zM319.999 357c40 0 71.667 10.168 95 30.501
s35 49.166 35 86.499c0 36.667 -11.5 65.167 -34.5 85.5s-54.833 30.5 -95.5 30.5h-127v-233h127zM315.999 903.001h133l-112 -139h-100z" />
    <glyph glyph-name="racute" unicode="&#x155;" horiz-adv-x="393" 
d="M64 500h113.999v-62c42 48 90 72 144 72c18 0 32.333 -2.66699 43 -8l-15 -92l-4 -3c-8 2 -19 3 -33 3c-28 0 -53.667 -8 -77 -24s-42.666 -39 -57.999 -69v-317h-114v500zM227.999 703h133l-112 -139h-100z" />
    <glyph glyph-name="uni0156" unicode="&#x156;" horiz-adv-x="643" 
d="M68 700h242.999c53.333 0 99.833 -9.33301 139.5 -28s70.334 -45.167 92.001 -79.5s32.5 -74.5 32.5 -120.5c0 -44.667 -10.333 -83 -31 -115s-50.667 -59.667 -90 -83v-5l157 -269h-140l-141 247h-137v-247h-125v700zM319.999 357c40 0 71.667 10.168 95 30.501
s35 49.166 35 86.499c0 36.667 -11.5 65.167 -34.5 85.5s-54.833 30.5 -95.5 30.5h-127v-233h127zM253.999 -290.999c18.667 14 33.668 28.499 45.001 43.499s18.666 32.5 21.999 52.5c-20.667 0 -37.167 7.16699 -49.5 21.5s-18.5 30.5 -18.5 48.5
c0 18.667 6.66699 34.834 20 48.501s30 20.5 50 20.5s36.5 -7 49.5 -21s19.5 -31 19.5 -51c0 -40 -10.5 -75.667 -31.5 -107s-50.5 -58 -88.5 -80z" />
    <glyph glyph-name="uni0157" unicode="&#x157;" horiz-adv-x="393" 
d="M64 500h113.999v-62c42 48 90 72 144 72c18 0 32.333 -2.66699 43 -8l-15 -92l-4 -3c-8 2 -19 3 -33 3c-28 0 -53.667 -8 -77 -24s-42.666 -39 -57.999 -69v-317h-114v500zM52.999 -291c18.667 14 33.668 28.499 45.001 43.499s18.666 32.5 21.999 52.5
c-20.667 0 -37.167 7.16699 -49.5 21.5s-18.5 30.5 -18.5 48.5c0 18.667 6.66699 34.834 20 48.501s30 20.5 50 20.5s36.5 -7 49.5 -21s19.5 -31 19.5 -51c0 -40 -10.5 -75.667 -31.5 -107s-50.5 -58 -88.5 -80z" />
    <glyph glyph-name="Rcaron" unicode="&#x158;" horiz-adv-x="643" 
d="M68 700h242.999c53.333 0 99.833 -9.33301 139.5 -28s70.334 -45.167 92.001 -79.5s32.5 -74.5 32.5 -120.5c0 -44.667 -10.333 -83 -31 -115s-50.667 -59.667 -90 -83v-5l157 -269h-140l-141 247h-137v-247h-125v700zM319.999 357c40 0 71.667 10.168 95 30.501
s35 49.166 35 86.499c0 36.667 -11.5 65.167 -34.5 85.5s-54.833 30.5 -95.5 30.5h-127v-233h127zM139.999 903.001h93l59 -60l59 60h94l-111 -139h-83z" />
    <glyph glyph-name="rcaron" unicode="&#x159;" horiz-adv-x="393" 
d="M64 500h113.999v-62c42 48 90 72 144 72c18 0 32.333 -2.66699 43 -8l-15 -92l-4 -3c-8 2 -19 3 -33 3c-28 0 -53.667 -8 -77 -24s-42.666 -39 -57.999 -69v-317h-114v500zM57.999 703h93l59 -60l59 60h94l-111 -139h-83z" />
    <glyph glyph-name="Sacute" unicode="&#x15a;" horiz-adv-x="623" 
d="M180 18c-40 18.667 -72.3301 45 -96.9971 79s-38.667 73.333 -42 118l4 5l117 11c4 -42 20.167 -74.667 48.5 -98s63.166 -35 104.499 -35c38.667 0 70.334 9.83301 95.001 29.5s37 47.5 37 83.5c0 37.333 -13.333 65.333 -40 84s-70.334 34.667 -131.001 48
c-66.667 15.333 -118.167 37.5 -154.5 66.5s-54.5 69.5 -54.5 121.5c0 36 10 67.5 30 94.5s47.333 47.833 82 62.5s73.667 22 117 22c71.333 0 128.166 -17.667 170.499 -53s66.833 -83 73.5 -143l-5 -6l-110 -6c-4.66699 35.333 -18 62.166 -40 80.499s-52 27.5 -90 27.5
c-32 0 -58 -6.66699 -78 -20s-30 -30.666 -30 -51.999c0 -27.333 12.833 -48 38.5 -62s68.834 -28.333 129.501 -43c68 -16 121 -40.667 159 -74s57 -80.333 57 -141c0 -46 -11.333 -86.167 -34 -120.5s-53.834 -60.833 -93.501 -79.5s-83.834 -28 -132.501 -28
c-47.333 0 -91 9.33301 -131 28zM332.003 903h133l-112 -139h-100z" />
    <glyph glyph-name="sacute" unicode="&#x15b;" horiz-adv-x="473" 
d="M99 31.5c-36.667 27.667 -59.668 66.166 -69.001 115.499l2 6l95 16c6.66699 -27.333 19 -48.333 37 -63s44.667 -22 80 -22c24 0 44.167 5.33301 60.5 16s24.5 25.334 24.5 44.001s-9.33301 33.5 -28 44.5s-51.667 22.5 -99 34.5
c-51.333 12.667 -89.666 30.834 -114.999 54.501s-38 54.834 -38 93.501c0 25.333 7.33301 48.666 22 69.999s35.334 38.166 62.001 50.499s57 18.5 91 18.5c54 0 97.667 -12.5 131 -37.5s53.333 -60.833 60 -107.5l-2 -5l-97 -13c-4.66699 24.667 -15.167 43.5 -31.5 56.5
s-36.833 19.5 -61.5 19.5c-19.333 0 -36.166 -4 -50.499 -12s-21.5 -19.667 -21.5 -35c0 -16 9.66699 -29.333 29 -40s53.333 -22.667 102 -36c52.667 -14 91.667 -32.333 117 -55s38 -53 38 -91c0 -30.667 -8 -58.5 -24 -83.5s-38.833 -44.667 -68.5 -59
s-63.834 -21.5 -102.501 -21.5c-58.667 0 -106.334 13.833 -143.001 41.5zM249.999 702.999h133l-112 -139h-100z" />
    <glyph glyph-name="Scircumflex" unicode="&#x15c;" horiz-adv-x="623" 
d="M180 18c-40 18.667 -72.3301 45 -96.9971 79s-38.667 73.333 -42 118l4 5l117 11c4 -42 20.167 -74.667 48.5 -98s63.166 -35 104.499 -35c38.667 0 70.334 9.83301 95.001 29.5s37 47.5 37 83.5c0 37.333 -13.333 65.333 -40 84s-70.334 34.667 -131.001 48
c-66.667 15.333 -118.167 37.5 -154.5 66.5s-54.5 69.5 -54.5 121.5c0 36 10 67.5 30 94.5s47.333 47.833 82 62.5s73.667 22 117 22c71.333 0 128.166 -17.667 170.499 -53s66.833 -83 73.5 -143l-5 -6l-110 -6c-4.66699 35.333 -18 62.166 -40 80.499s-52 27.5 -90 27.5
c-32 0 -58 -6.66699 -78 -20s-30 -30.666 -30 -51.999c0 -27.333 12.833 -48 38.5 -62s68.834 -28.333 129.501 -43c68 -16 121 -40.667 159 -74s57 -80.333 57 -141c0 -46 -11.333 -86.167 -34 -120.5s-53.834 -60.833 -93.501 -79.5s-83.834 -28 -132.501 -28
c-47.333 0 -91 9.33301 -131 28zM266.003 903h83l111 -139h-94l-59 60l-59 -60h-93z" />
    <glyph glyph-name="scircumflex" unicode="&#x15d;" horiz-adv-x="473" 
d="M99 31.5c-36.667 27.667 -59.668 66.166 -69.001 115.499l2 6l95 16c6.66699 -27.333 19 -48.333 37 -63s44.667 -22 80 -22c24 0 44.167 5.33301 60.5 16s24.5 25.334 24.5 44.001s-9.33301 33.5 -28 44.5s-51.667 22.5 -99 34.5
c-51.333 12.667 -89.666 30.834 -114.999 54.501s-38 54.834 -38 93.501c0 25.333 7.33301 48.666 22 69.999s35.334 38.166 62.001 50.499s57 18.5 91 18.5c54 0 97.667 -12.5 131 -37.5s53.333 -60.833 60 -107.5l-2 -5l-97 -13c-4.66699 24.667 -15.167 43.5 -31.5 56.5
s-36.833 19.5 -61.5 19.5c-19.333 0 -36.166 -4 -50.499 -12s-21.5 -19.667 -21.5 -35c0 -16 9.66699 -29.333 29 -40s53.333 -22.667 102 -36c52.667 -14 91.667 -32.333 117 -55s38 -53 38 -91c0 -30.667 -8 -58.5 -24 -83.5s-38.833 -44.667 -68.5 -59
s-63.834 -21.5 -102.501 -21.5c-58.667 0 -106.334 13.833 -143.001 41.5zM190.999 702.999h83l111 -139h-94l-59 60l-59 -60h-93z" />
    <glyph glyph-name="Scedilla" unicode="&#x15e;" horiz-adv-x="623" 
d="M539 101c-21.333 -34 -50.667 -60.501 -88 -79.501s-79.333 -29.5 -126 -31.5l-27 -43c14.667 6.66699 29.334 10 44.001 10c23.333 0 42.333 -6.33301 57 -19s22 -30.334 22 -53.001c0 -28 -9.5 -49.667 -28.5 -65s-44.167 -23 -75.5 -23
c-28.667 0 -51.834 6.5 -69.501 19.5s-28.5 29.833 -32.5 50.5l2 5l66 3c6 -10.667 17.333 -16 34 -16c8.66699 0 15.667 2.33301 21 7s8 11.334 8 20.001s-2.66699 15.334 -8 20.001s-13 7 -23 7c-14 0 -26.667 -5.66699 -38 -17l-58 10l-2 4l38 85
c-59.333 10 -108.666 34.5 -147.999 73.5s-61.333 87.833 -66 146.5l4 5l117 11c4 -42 20.167 -74.667 48.5 -98s63.166 -35 104.499 -35c38.667 0 70.334 9.83301 95.001 29.5s37 47.5 37 83.5c0 37.333 -13.333 65.333 -40 84s-70.334 34.667 -131.001 48
c-66.667 15.333 -118.167 37.5 -154.5 66.5s-54.5 69.5 -54.5 121.5c0 36 10 67.5 30 94.5s47.333 47.833 82 62.5s73.667 22 117 22c71.333 0 128.166 -17.667 170.499 -53s66.833 -83 73.5 -143l-5 -6l-110 -6c-4.66699 35.333 -18 62.166 -40 80.499s-52 27.5 -90 27.5
c-32 0 -58 -6.66699 -78 -20s-30 -30.666 -30 -51.999c0 -27.333 12.833 -48 38.5 -62s68.834 -28.333 129.501 -43c68 -16 121 -40.667 159 -74s57 -80.333 57 -141c0 -44 -10.667 -83 -32 -117z" />
    <glyph glyph-name="scedilla" unicode="&#x15f;" horiz-adv-x="473" 
d="M413.5 71c-15.667 -24.667 -38.0029 -44.168 -67.0029 -58.501s-62.5 -21.833 -100.5 -22.5l-27 -43c14.667 6.66699 29.334 10 44.001 10c23.333 0 42.166 -6.33301 56.499 -19s21.5 -30.334 21.5 -53.001c0 -28 -9.5 -49.667 -28.5 -65s-44.167 -23 -75.5 -23
c-28.667 0 -51.834 6.66699 -69.501 20s-28.5 30 -32.5 50l2 5l67 3c6 -10.667 17 -16 33 -16c9.33301 0 16.5 2.33301 21.5 7s7.5 11.334 7.5 20.001s-2.66699 15.334 -8 20.001s-12.666 7 -21.999 7c-14.667 0 -27.667 -5.66699 -39 -17l-58 10l-1 4l39 87
c-40.667 9.33301 -73.667 26.833 -99 52.5s-41.333 58.167 -48 97.5l2 6l95 16c6.66699 -27.333 19 -48.333 37 -63s44.667 -22 80 -22c24 0 44.167 5.33301 60.5 16s24.5 25.334 24.5 44.001s-9.33301 33.5 -28 44.5s-51.667 22.5 -99 34.5
c-51.333 12.667 -89.666 30.834 -114.999 54.501s-38 54.834 -38 93.501c0 25.333 7.33301 48.666 22 69.999s35.334 38.166 62.001 50.499s57 18.5 91 18.5c54 0 97.667 -12.5 131 -37.5s53.333 -60.833 60 -107.5l-2 -5l-97 -13c-4.66699 24.667 -15.167 43.5 -31.5 56.5
s-36.833 19.5 -61.5 19.5c-19.333 0 -36.166 -4 -50.499 -12s-21.5 -19.667 -21.5 -35c0 -16 9.66699 -29.333 29 -40s53.333 -22.667 102 -36c52.667 -14 91.667 -32.333 117 -55s38 -53 38 -91c0 -30.667 -7.83301 -58.334 -23.5 -83.001z" />
    <glyph glyph-name="Scaron" unicode="&#x160;" horiz-adv-x="623" 
d="M180 18c-40 18.667 -72.3301 45 -96.9971 79s-38.667 73.333 -42 118l4 5l117 11c4 -42 20.167 -74.667 48.5 -98s63.166 -35 104.499 -35c38.667 0 70.334 9.83301 95.001 29.5s37 47.5 37 83.5c0 37.333 -13.333 65.333 -40 84s-70.334 34.667 -131.001 48
c-66.667 15.333 -118.167 37.5 -154.5 66.5s-54.5 69.5 -54.5 121.5c0 36 10 67.5 30 94.5s47.333 47.833 82 62.5s73.667 22 117 22c71.333 0 128.166 -17.667 170.499 -53s66.833 -83 73.5 -143l-5 -6l-110 -6c-4.66699 35.333 -18 62.166 -40 80.499s-52 27.5 -90 27.5
c-32 0 -58 -6.66699 -78 -20s-30 -30.666 -30 -51.999c0 -27.333 12.833 -48 38.5 -62s68.834 -28.333 129.501 -43c68 -16 121 -40.667 159 -74s57 -80.333 57 -141c0 -46 -11.333 -86.167 -34 -120.5s-53.834 -60.833 -93.501 -79.5s-83.834 -28 -132.501 -28
c-47.333 0 -91 9.33301 -131 28zM155.003 903h93l59 -60l59 60h94l-111 -139h-83z" />
    <glyph glyph-name="scaron" unicode="&#x161;" horiz-adv-x="473" 
d="M99 31.5c-36.667 27.667 -59.668 66.166 -69.001 115.499l2 6l95 16c6.66699 -27.333 19 -48.333 37 -63s44.667 -22 80 -22c24 0 44.167 5.33301 60.5 16s24.5 25.334 24.5 44.001s-9.33301 33.5 -28 44.5s-51.667 22.5 -99 34.5
c-51.333 12.667 -89.666 30.834 -114.999 54.501s-38 54.834 -38 93.501c0 25.333 7.33301 48.666 22 69.999s35.334 38.166 62.001 50.499s57 18.5 91 18.5c54 0 97.667 -12.5 131 -37.5s53.333 -60.833 60 -107.5l-2 -5l-97 -13c-4.66699 24.667 -15.167 43.5 -31.5 56.5
s-36.833 19.5 -61.5 19.5c-19.333 0 -36.166 -4 -50.499 -12s-21.5 -19.667 -21.5 -35c0 -16 9.66699 -29.333 29 -40s53.333 -22.667 102 -36c52.667 -14 91.667 -32.333 117 -55s38 -53 38 -91c0 -30.667 -8 -58.5 -24 -83.5s-38.833 -44.667 -68.5 -59
s-63.834 -21.5 -102.501 -21.5c-58.667 0 -106.334 13.833 -143.001 41.5zM79.999 702.999h93l59 -60l59 60h94l-111 -139h-83z" />
    <glyph glyph-name="uni0162" unicode="&#x162;" horiz-adv-x="547" 
d="M294 0l-33 -53.001c14.667 6.66699 29.334 10 44.001 10c23.333 0 42.166 -6.33301 56.499 -19s21.5 -30.334 21.5 -53.001c0 -28 -9.5 -49.667 -28.5 -65s-44.167 -23 -75.5 -23c-28.667 0 -51.834 6.66699 -69.501 20s-28.5 30 -32.5 50l2 5l67 3
c6 -10.667 17 -16 33 -16c9.33301 0 16.5 2.33301 21.5 7s7.5 11.334 7.5 20.001s-2.66699 15.334 -8 20.001s-12.666 7 -21.999 7c-14.667 0 -27.667 -5.66699 -39 -17l-58 10l-1 4l41 90h-10v590h-177v110h479v-110h-177v-590h-42z" />
    <glyph glyph-name="uni0163" unicode="&#x163;" horiz-adv-x="380" 
d="M231 402l-0.000976562 -263.001c0 -16.667 4.83301 -29.5 14.5 -38.5s23.834 -13.5 42.501 -13.5c15.333 0 31 2 47 6l3 -2v-91c-27.333 -6.66699 -55.333 -10 -84 -10h-8l-27 -43c14.667 6.66699 29.334 10 44.001 10c23.333 0 42.166 -6.33301 56.499 -19
s21.5 -30.334 21.5 -53.001c0 -28 -9.5 -49.667 -28.5 -65s-44.167 -23 -75.5 -23c-28.667 0 -51.834 6.66699 -69.501 20s-28.5 30 -32.5 50l2 5l67 3c6 -10.667 17 -16 33 -16c9.33301 0 16.5 2.33301 21.5 7s7.5 11.334 7.5 20.001s-2.66699 15.334 -8 20.001
s-12.666 7 -21.999 7c-14.667 0 -27.667 -5.66699 -39 -17l-58 10l-1 4l43 95c-20.667 10.667 -36.667 26.5 -48 47.5s-17 46.5 -17 76.5v273h-93v98h93v147h9l106 -37v-110h112v-98h-112z" />
    <glyph glyph-name="Tcaron" unicode="&#x164;" horiz-adv-x="547" 
d="M211 590h-177v110h479v-110h-177v-590h-125v590zM121 903h93l59 -60l59 60h94l-111 -139h-83z" />
    <glyph glyph-name="tcaron" unicode="&#x165;" horiz-adv-x="380" 
d="M153 25.5c-24.667 23.667 -37 58.167 -37 103.5v273h-93v98h93v147h9l106 -37v-110h112v-98h-112v-263c0 -16.667 4.83301 -29.5 14.5 -38.5s23.834 -13.5 42.501 -13.5c15.333 0 31 2 47 6l3 -2v-91c-27.333 -6.66699 -55.333 -10 -84 -10
c-42.667 0 -76.334 11.833 -101.001 35.5zM280 551c17.333 6.66699 31.998 16.1689 43.998 28.502s20 26.833 24 43.5c-17.333 1.33301 -31.666 7.66602 -42.999 18.999s-17 25.666 -17 42.999c0 18.667 6 34.167 18 46.5s27.333 18.5 46 18.5s34.167 -6.66699 46.5 -20
s18.5 -30.666 18.5 -51.999c0 -35.333 -10.667 -65.833 -32 -91.5s-52.666 -45.834 -93.999 -60.501z" />
    <glyph glyph-name="Tbar" unicode="&#x166;" horiz-adv-x="547" 
d="M211 326h-140v88h140v174h-177v112h479v-112h-177v-174h140v-88h-140v-326h-125v326z" />
    <glyph glyph-name="tbar" unicode="&#x167;" horiz-adv-x="380" 
d="M231 402v-112h93v-80h-93v-71c0 -16.667 4.83301 -29.5 14.5 -38.5s23.834 -13.5 42.501 -13.5c15.333 0 31 2 47 6l3 -2v-91c-27.333 -6.66699 -55.333 -10 -84 -10c-42.667 0 -76.334 11.833 -101.001 35.5s-37 58.167 -37 103.5v81h-78v80h78v112h-93v98h93v147h9
l106 -37v-110h112v-98h-112z" />
    <glyph glyph-name="Utilde" unicode="&#x168;" horiz-adv-x="676" 
d="M193 24c-40.667 22.667 -71.667 54.5 -93 95.5s-32 88.167 -32 141.5v439h125v-437c0 -52 12.167 -91.833 36.5 -119.5s60.5 -41.5 108.5 -41.5s84.167 13.833 108.5 41.5s36.5 67.5 36.5 119.5v437h125v-439c0 -53.333 -10.667 -100.5 -32 -141.5
s-52.333 -72.833 -93 -95.5s-89 -34 -145 -34s-104.333 11.333 -145 34zM358.5 775.5c-12.333 5.66699 -24.833 13.834 -37.5 24.501c-8 6.66699 -15.5 11.834 -22.5 15.501s-14.833 5.5 -23.5 5.5c-23.333 0 -38 -16.333 -44 -49h-78
c2.66699 43.333 15.167 75.833 37.5 97.5s48.166 32.5 77.499 32.5c20.667 0 37.167 -2.83301 49.5 -8.5s24.833 -13.834 37.5 -24.501c8 -6.66699 15.5 -11.834 22.5 -15.501s14.833 -5.5 23.5 -5.5c23.333 0 38 16.333 44 49h78
c-2.66699 -43.333 -15.167 -75.833 -37.5 -97.5s-48.166 -32.5 -77.499 -32.5c-20.667 0 -37.167 2.83301 -49.5 8.5z" />
    <glyph glyph-name="utilde" unicode="&#x169;" horiz-adv-x="578" 
d="M104.5 36.5c-29.667 31 -44.501 73.168 -44.501 126.501v337h114v-315c0 -30.667 8.16699 -54.167 24.5 -70.5s39.5 -24.5 69.5 -24.5c26 0 50.333 7.66699 73 23s42.334 35.666 59.001 60.999v326h114v-500h-114v64c-20 -22 -44.667 -39.833 -74 -53.5
s-61.333 -20.5 -96 -20.5c-54 0 -95.833 15.5 -125.5 46.5zM307.499 575.501c-12.333 5.66699 -24.833 13.834 -37.5 24.501c-8 6.66699 -15.5 11.834 -22.5 15.501s-14.833 5.5 -23.5 5.5c-23.333 0 -38 -16.333 -44 -49h-78c2.66699 43.333 15.167 75.833 37.5 97.5
s48.166 32.5 77.499 32.5c20.667 0 37.167 -2.83301 49.5 -8.5s24.833 -13.834 37.5 -24.501c8 -6.66699 15.5 -11.834 22.5 -15.501s14.833 -5.5 23.5 -5.5c23.333 0 38 16.333 44 49h78c-2.66699 -43.333 -15.167 -75.833 -37.5 -97.5s-48.166 -32.5 -77.499 -32.5
c-20.667 0 -37.167 2.83301 -49.5 8.5z" />
    <glyph glyph-name="Umacron" unicode="&#x16a;" horiz-adv-x="676" 
d="M193 24c-40.667 22.667 -71.667 54.5 -93 95.5s-32 88.167 -32 141.5v439h125v-437c0 -52 12.167 -91.833 36.5 -119.5s60.5 -41.5 108.5 -41.5s84.167 13.833 108.5 41.5s36.5 67.5 36.5 119.5v437h125v-439c0 -53.333 -10.667 -100.5 -32 -141.5
s-52.333 -72.833 -93 -95.5s-89 -34 -145 -34s-104.333 11.333 -145 34zM214 875h249v-84h-249v84z" />
    <glyph glyph-name="umacron" unicode="&#x16b;" horiz-adv-x="578" 
d="M104.5 36.5c-29.667 31 -44.501 73.168 -44.501 126.501v337h114v-315c0 -30.667 8.16699 -54.167 24.5 -70.5s39.5 -24.5 69.5 -24.5c26 0 50.333 7.66699 73 23s42.334 35.666 59.001 60.999v326h114v-500h-114v64c-20 -22 -44.667 -39.833 -74 -53.5
s-61.333 -20.5 -96 -20.5c-54 0 -95.833 15.5 -125.5 46.5zM162.999 665.001h249v-84h-249v84z" />
    <glyph glyph-name="Ubreve" unicode="&#x16c;" horiz-adv-x="676" 
d="M193 24c-40.667 22.667 -71.667 54.5 -93 95.5s-32 88.167 -32 141.5v439h125v-437c0 -52 12.167 -91.833 36.5 -119.5s60.5 -41.5 108.5 -41.5s84.167 13.833 108.5 41.5s36.5 67.5 36.5 119.5v437h125v-439c0 -53.333 -10.667 -100.5 -32 -141.5
s-52.333 -72.833 -93 -95.5s-89 -34 -145 -34s-104.333 11.333 -145 34zM240 797c-24 24.667 -35.999 57 -35.999 97h89c0 -14.667 4.33301 -26.667 13 -36s19.667 -14 33 -14s24.166 4.66699 32.499 14s12.5 21.333 12.5 36h89c0 -40 -11.833 -72.333 -35.5 -97
s-56.5 -37 -98.5 -37s-75 12.333 -99 37z" />
    <glyph glyph-name="ubreve" unicode="&#x16d;" horiz-adv-x="578" 
d="M104.5 36.5c-29.667 31 -44.501 73.168 -44.501 126.501v337h114v-315c0 -30.667 8.16699 -54.167 24.5 -70.5s39.5 -24.5 69.5 -24.5c26 0 50.333 7.66699 73 23s42.334 35.666 59.001 60.999v326h114v-500h-114v64c-20 -22 -44.667 -39.833 -74 -53.5
s-61.333 -20.5 -96 -20.5c-54 0 -95.833 15.5 -125.5 46.5zM188.999 597.001c-24 24.667 -35.999 57 -35.999 97h89c0 -14.667 4.33301 -26.667 13 -36s19.667 -14 33 -14s24.166 4.66699 32.499 14s12.5 21.333 12.5 36h89c0 -40 -11.833 -72.333 -35.5 -97
s-56.5 -37 -98.5 -37s-75 12.333 -99 37z" />
    <glyph glyph-name="Uring" unicode="&#x16e;" horiz-adv-x="676" 
d="M193 24c-40.667 22.667 -71.667 54.5 -93 95.5s-32 88.167 -32 141.5v439h125v-437c0 -52 12.167 -91.833 36.5 -119.5s60.5 -41.5 108.5 -41.5s84.167 13.833 108.5 41.5s36.5 67.5 36.5 119.5v437h125v-439c0 -53.333 -10.667 -100.5 -32 -141.5
s-52.333 -72.833 -93 -95.5s-89 -34 -145 -34s-104.333 11.333 -145 34zM271.5 761c-18.333 18.667 -27.5 41 -27.5 67s9.16699 48.333 27.5 67s40.833 28 67.5 28c26 0 48.167 -9.33301 66.5 -28s27.5 -41 27.5 -67s-9.16699 -48.333 -27.5 -67s-40.5 -28 -66.5 -28
c-26.667 0 -49.167 9.33301 -67.5 28zM364.5 802c7 6.66699 10.5 15.334 10.5 26.001s-3.5 19.334 -10.5 26.001s-15.5 10 -25.5 10c-10.667 0 -19.334 -3.33301 -26.001 -10s-10 -15.334 -10 -26.001s3.33301 -19.334 10 -26.001s15.334 -10 26.001 -10
c10 0 18.5 3.33301 25.5 10z" />
    <glyph glyph-name="uring" unicode="&#x16f;" horiz-adv-x="578" 
d="M104.5 36.5c-29.667 31 -44.501 73.168 -44.501 126.501v337h114v-315c0 -30.667 8.16699 -54.167 24.5 -70.5s39.5 -24.5 69.5 -24.5c26 0 50.333 7.66699 73 23s42.334 35.666 59.001 60.999v326h114v-500h-114v64c-20 -22 -44.667 -39.833 -74 -53.5
s-61.333 -20.5 -96 -20.5c-54 0 -95.833 15.5 -125.5 46.5zM220.499 561.001c-18.333 18.667 -27.5 41 -27.5 67s9.16699 48.333 27.5 67s40.833 28 67.5 28c26 0 48.167 -9.33301 66.5 -28s27.5 -41 27.5 -67s-9.16699 -48.333 -27.5 -67s-40.5 -28 -66.5 -28
c-26.667 0 -49.167 9.33301 -67.5 28zM313.499 602.001c7 6.66699 10.5 15.334 10.5 26.001s-3.5 19.334 -10.5 26.001s-15.5 10 -25.5 10c-10.667 0 -19.334 -3.33301 -26.001 -10s-10 -15.334 -10 -26.001s3.33301 -19.334 10 -26.001s15.334 -10 26.001 -10
c10 0 18.5 3.33301 25.5 10z" />
    <glyph glyph-name="Uhungarumlaut" unicode="&#x170;" horiz-adv-x="676" 
d="M193 24c-40.667 22.667 -71.667 54.5 -93 95.5s-32 88.167 -32 141.5v439h125v-437c0 -52 12.167 -91.833 36.5 -119.5s60.5 -41.5 108.5 -41.5s84.167 13.833 108.5 41.5s36.5 67.5 36.5 119.5v437h125v-439c0 -53.333 -10.667 -100.5 -32 -141.5
s-52.333 -72.833 -93 -95.5s-89 -34 -145 -34s-104.333 11.333 -145 34zM248 903h128l-98 -139h-95zM424 903h128l-98 -139h-95z" />
    <glyph glyph-name="uhungarumlaut" unicode="&#x171;" horiz-adv-x="578" 
d="M104.5 36.5c-29.667 31 -44.501 73.168 -44.501 126.501v337h114v-315c0 -30.667 8.16699 -54.167 24.5 -70.5s39.5 -24.5 69.5 -24.5c26 0 50.333 7.66699 73 23s42.334 35.666 59.001 60.999v326h114v-500h-114v64c-20 -22 -44.667 -39.833 -74 -53.5
s-61.333 -20.5 -96 -20.5c-54 0 -95.833 15.5 -125.5 46.5zM196.999 703.001h128l-98 -139h-95zM372.999 703.001h128l-98 -139h-95z" />
    <glyph glyph-name="Uogonek" unicode="&#x172;" horiz-adv-x="676" 
d="M311 -165c-18.667 16.667 -27.999 38.3359 -27.999 65.0029c0 18 4 34.667 12 50s18 28.666 30 39.999c-53.333 2 -99.333 14.5 -138 37.5s-68.167 54.667 -88.5 95s-30.5 86.5 -30.5 138.5v439h125v-437c0 -52 12.167 -91.833 36.5 -119.5s60.5 -41.5 108.5 -41.5
s84.167 13.833 108.5 41.5s36.5 67.5 36.5 119.5v437h125v-439c0 -60.667 -13.333 -112.834 -40 -156.501s-68.334 -76.5 -125.001 -98.5c-22.667 -9.33301 -40 -21.333 -52 -36s-18 -29.667 -18 -45c0 -10.667 3 -19.334 9 -26.001s13.667 -10 23 -10
c6.66699 0 15.334 2.33301 26.001 7l19 -67l-1 -5c-16 -9.33301 -36.333 -14 -61 -14c-32.667 0 -58.334 8.33301 -77.001 25z" />
    <glyph glyph-name="uogonek" unicode="&#x173;" horiz-adv-x="578" 
d="M384 -165c-18.667 16.667 -27.999 38.334 -27.999 65.001c0 38.667 14.667 72 44 100v64c-20 -22 -44.667 -39.833 -74 -53.5s-61.333 -20.5 -96 -20.5c-54 0 -95.833 15.5 -125.5 46.5s-44.5 73.167 -44.5 126.5v337h114v-315c0 -30.667 8.16699 -54.167 24.5 -70.5
s39.5 -24.5 69.5 -24.5c26 0 50.333 7.66699 73 23s42.334 35.666 59.001 60.999v326h114v-500c-24 -9.33301 -41.333 -21.333 -52 -36s-16 -29 -16 -43c0 -10 2.83301 -17.833 8.5 -23.5s13.167 -8.5 22.5 -8.5c7.33301 0 15.666 2.33301 24.999 7l20 -67l-1 -5
c-16 -9.33301 -36 -14 -60 -14c-32.667 0 -58.334 8.33301 -77.001 25z" />
    <glyph glyph-name="Wcircumflex" unicode="&#x174;" horiz-adv-x="988" 
d="M14 700h133l122 -464l16 -90h3l14 90l130 464h124l129 -464l15 -90h3l15 90l123 464h133l-203 -700h-133l-144 531l-144 -531h-133zM452 903h83l111 -139h-94l-59 60l-59 -60h-93z" />
    <glyph glyph-name="wcircumflex" unicode="&#x175;" horiz-adv-x="780" 
d="M20 500h119l81 -289l13 -84h2l14 84l87 289h109l85 -289l15 -84h2l13 84l82 289h118l-149 -500h-123l-98 362l-97 -362h-123zM349 703h83l111 -139h-94l-59 60l-59 -60h-93z" />
    <glyph glyph-name="Ycircumflex" unicode="&#x176;" horiz-adv-x="578" 
d="M226 252l-211 448h134l125 -271l13 -76h4l13 76l125 271h134l-212 -448v-252h-125v252zM247 903h83l111 -139h-94l-59 60l-59 -60h-93z" />
    <glyph glyph-name="ycircumflex" unicode="&#x177;" horiz-adv-x="553" 
d="M222 17l-202 483h126l119 -283l8 -67h5l136 350h119l-281 -700h-117zM242 703h83l111 -139h-94l-59 60l-59 -60h-93z" />
    <glyph glyph-name="Ydieresis" unicode="&#x178;" horiz-adv-x="578" 
d="M226 252l-211 448h134l125 -271l13 -76h4l13 76l125 271h134l-212 -448v-252h-125v252zM148.5 790.5c-13 13 -19.5 28.167 -19.5 45.5s6.5 32.5 19.5 45.5s28.5 19.5 46.5 19.5c17.333 0 32.666 -6.5 45.999 -19.5s20 -28.167 20 -45.5s-6.66699 -32.5 -20 -45.5
s-28.666 -19.5 -45.999 -19.5c-18 0 -33.5 6.5 -46.5 19.5zM336.5 790.5c-13 13 -19.5 28.167 -19.5 45.5s6.5 32.5 19.5 45.5s28.5 19.5 46.5 19.5c17.333 0 32.666 -6.5 45.999 -19.5s20 -28.167 20 -45.5s-6.66699 -32.5 -20 -45.5s-28.666 -19.5 -45.999 -19.5
c-18 0 -33.5 6.5 -46.5 19.5z" />
    <glyph glyph-name="Zacute" unicode="&#x179;" horiz-adv-x="596" 
d="M40 109l349 481h-331v110h480v-89l-361 -501h373v-110h-510v109zM322 903h133l-112 -139h-100z" />
    <glyph glyph-name="zacute" unicode="&#x17a;" horiz-adv-x="460" 
d="M37 83l247 320h-235v97h373v-79l-248 -324h248v-97h-385v83zM250 703h133l-112 -139h-100z" />
    <glyph glyph-name="Zdotaccent" unicode="&#x17b;" horiz-adv-x="596" 
d="M40 109l349 481h-331v110h480v-89l-361 -501h373v-110h-510v109zM246.5 784.5c-14.333 14.333 -21.5 31.5 -21.5 51.5s7.16699 37.167 21.5 51.5s31.5 21.5 51.5 21.5c20.667 0 38.167 -7.16699 52.5 -21.5s21.5 -31.5 21.5 -51.5s-7.16699 -37.167 -21.5 -51.5
s-31.833 -21.5 -52.5 -21.5c-20 0 -37.167 7.16699 -51.5 21.5z" />
    <glyph glyph-name="zdotaccent" unicode="&#x17c;" horiz-adv-x="460" 
d="M37 83l247 320h-235v97h373v-79l-248 -324h248v-97h-385v83zM181.5 584.5c-14.333 14.333 -21.5 31.5 -21.5 51.5s7.16699 37.167 21.5 51.5s31.5 21.5 51.5 21.5c20.667 0 38.167 -7.16699 52.5 -21.5s21.5 -31.5 21.5 -51.5s-7.16699 -37.167 -21.5 -51.5
s-31.833 -21.5 -52.5 -21.5c-20 0 -37.167 7.16699 -51.5 21.5z" />
    <glyph glyph-name="Zcaron" unicode="&#x17d;" horiz-adv-x="596" 
d="M40 109l349 481h-331v110h480v-89l-361 -501h373v-110h-510v109zM145 903h93l59 -60l59 60h94l-111 -139h-83z" />
    <glyph glyph-name="zcaron" unicode="&#x17e;" horiz-adv-x="460" 
d="M37 83l247 320h-235v97h373v-79l-248 -324h248v-97h-385v83zM81 703h93l59 -60l59 60h94l-111 -139h-83z" />
    <glyph glyph-name="florin" unicode="&#x192;" horiz-adv-x="368" 
d="M29 -200l-0.00195312 93.999l3 2c15.333 -6 29.333 -9 42 -9c13.333 0 23.833 4 31.5 12s11.5 20.333 11.5 37v474h-85v90h85v88c0 50.667 14.833 88.667 44.5 114s66.834 38 111.501 38c22.667 0 45.334 -3.33301 68.001 -10v-94l-4 -2c-18 6 -35 9 -51 9
c-16.667 0 -30 -4.66699 -40 -14s-15 -23.333 -15 -42v-87h108v-90h-108v-473c0 -47.333 -12.833 -83.666 -38.5 -108.999s-58.5 -38 -98.5 -38c-22 0 -43.667 3.33301 -65 10z" />
    <glyph glyph-name="uni01B5" unicode="&#x1b5;" horiz-adv-x="596" 
d="M550 110v-110h-510v109l143 197h-108v88h172l142 196h-331v110h480v-89l-156 -217h134v-88h-198l-141 -196h373z" />
    <glyph glyph-name="uni01B6" unicode="&#x1b6;" horiz-adv-x="460" 
d="M422 421l-100 -130h78v-80h-139l-87 -114h248v-97h-385v83l99 128h-76v80h138l86 112h-235v97h373v-79z" />
    <glyph glyph-name="AEacute" unicode="&#x1fc;" horiz-adv-x="968" 
d="M393 700h509v-110h-317v-185h290v-110h-290v-183h328v-112h-453v127h-235l-67 -127h-140zM460 236v356h-4l-22 -72l-151 -284h177zM575 903h133l-112 -139h-100z" />
    <glyph glyph-name="aeacute" unicode="&#x1fd;" horiz-adv-x="910" 
d="M97 30.5c-31.333 27 -47.0029 63.168 -47.0029 108.501c0 46.667 16.833 83.834 50.5 111.501s78.834 42.834 135.501 45.501l132 6v32c0 26 -8.66699 46.667 -26 62s-40.333 23 -69 23c-26 0 -47.333 -6.33301 -64 -19s-27.334 -31.334 -32.001 -56.001l-102 5l-2 4
c9.33301 50.667 32.833 89.5 70.5 116.5s82.167 40.5 133.5 40.5c37.333 0 70.5 -6.16699 99.5 -18.5s52.167 -29.5 69.5 -51.5c22.667 22.667 48.834 40 78.501 52s60.834 18 93.501 18c47.333 0 89.5 -10.167 126.5 -30.5s65.833 -49.833 86.5 -88.5
s31 -84.334 31 -137.001v-35h-382l-1 -9c4.66699 -38.667 19.5 -68.834 44.5 -90.501s57.167 -32.5 96.5 -32.5c34 0 62 7.83301 84 23.5s37.667 37.167 47 64.5l100 -6l3 -5c-16 -56 -44.167 -99 -84.5 -129s-90.833 -45 -151.5 -45c-44 0 -83.333 8.5 -118 25.5
s-63 41.167 -85 72.5h-3c-24.667 -31.333 -53.5 -55.5 -86.5 -72.5s-67.833 -25.5 -104.5 -25.5c-51.333 0 -92.666 13.5 -123.999 40.5zM753.997 302.001c-3.33301 36 -17.5 64.167 -42.5 84.5s-56.167 30.5 -93.5 30.5c-34.667 0 -64.5 -10.167 -89.5 -30.5
s-40.833 -48.5 -47.5 -84.5h273zM367.997 159.001v58l-117 -6c-30 -1.33301 -52.833 -8 -68.5 -20s-23.5 -27.667 -23.5 -47s6.5 -34.333 19.5 -45s30.833 -16 53.5 -16c50.667 0 96 25.333 136 76zM461.997 703.001h133l-112 -139h-100z" />
    <glyph glyph-name="uni0218" unicode="&#x218;" horiz-adv-x="623" 
d="M180 18c-40 18.667 -72.3301 45 -96.9971 79s-38.667 73.333 -42 118l4 5l117 11c4 -42 20.167 -74.667 48.5 -98s63.166 -35 104.499 -35c38.667 0 70.334 9.83301 95.001 29.5s37 47.5 37 83.5c0 37.333 -13.333 65.333 -40 84s-70.334 34.667 -131.001 48
c-66.667 15.333 -118.167 37.5 -154.5 66.5s-54.5 69.5 -54.5 121.5c0 36 10 67.5 30 94.5s47.333 47.833 82 62.5s73.667 22 117 22c71.333 0 128.166 -17.667 170.499 -53s66.833 -83 73.5 -143l-5 -6l-110 -6c-4.66699 35.333 -18 62.166 -40 80.499s-52 27.5 -90 27.5
c-32 0 -58 -6.66699 -78 -20s-30 -30.666 -30 -51.999c0 -27.333 12.833 -48 38.5 -62s68.834 -28.333 129.501 -43c68 -16 121 -40.667 159 -74s57 -80.333 57 -141c0 -46 -11.333 -86.167 -34 -120.5s-53.834 -60.833 -93.501 -79.5s-83.834 -28 -132.501 -28
c-47.333 0 -91 9.33301 -131 28zM242.003 -291c18.667 14 33.668 28.499 45.001 43.499s18.666 32.5 21.999 52.5c-20.667 0 -37.167 7.16699 -49.5 21.5s-18.5 30.5 -18.5 48.5c0 18.667 6.66699 34.834 20 48.501s30 20.5 50 20.5s36.5 -7 49.5 -21s19.5 -31 19.5 -51
c0 -40 -10.5 -75.667 -31.5 -107s-50.5 -58 -88.5 -80z" />
    <glyph glyph-name="uni0219" unicode="&#x219;" horiz-adv-x="473" 
d="M99 31.5c-36.667 27.667 -59.668 66.166 -69.001 115.499l2 6l95 16c6.66699 -27.333 19 -48.333 37 -63s44.667 -22 80 -22c24 0 44.167 5.33301 60.5 16s24.5 25.334 24.5 44.001s-9.33301 33.5 -28 44.5s-51.667 22.5 -99 34.5
c-51.333 12.667 -89.666 30.834 -114.999 54.501s-38 54.834 -38 93.501c0 25.333 7.33301 48.666 22 69.999s35.334 38.166 62.001 50.499s57 18.5 91 18.5c54 0 97.667 -12.5 131 -37.5s53.333 -60.833 60 -107.5l-2 -5l-97 -13c-4.66699 24.667 -15.167 43.5 -31.5 56.5
s-36.833 19.5 -61.5 19.5c-19.333 0 -36.166 -4 -50.499 -12s-21.5 -19.667 -21.5 -35c0 -16 9.66699 -29.333 29 -40s53.333 -22.667 102 -36c52.667 -14 91.667 -32.333 117 -55s38 -53 38 -91c0 -30.667 -8 -58.5 -24 -83.5s-38.833 -44.667 -68.5 -59
s-63.834 -21.5 -102.501 -21.5c-58.667 0 -106.334 13.833 -143.001 41.5zM168.999 -291.001c18.667 14 33.668 28.499 45.001 43.499s18.666 32.5 21.999 52.5c-20.667 0 -37.167 7.16699 -49.5 21.5s-18.5 30.5 -18.5 48.5c0 18.667 6.66699 34.834 20 48.501
s30 20.5 50 20.5s36.5 -7 49.5 -21s19.5 -31 19.5 -51c0 -40 -10.5 -75.667 -31.5 -107s-50.5 -58 -88.5 -80z" />
    <glyph glyph-name="uni021A" unicode="&#x21a;" horiz-adv-x="547" 
d="M211 590h-177v110h479v-110h-177v-590h-125v590zM205 -291c18.667 14 33.668 28.499 45.001 43.499s18.666 32.5 21.999 52.5c-20.667 0 -37.167 7.16699 -49.5 21.5s-18.5 30.5 -18.5 48.5c0 18.667 6.66699 34.834 20 48.501s30 20.5 50 20.5s36.5 -7 49.5 -21
s19.5 -31 19.5 -51c0 -40 -10.5 -75.667 -31.5 -107s-50.5 -58 -88.5 -80z" />
    <glyph glyph-name="uni021B" unicode="&#x21b;" horiz-adv-x="380" 
d="M153 25.5c-24.667 23.667 -37 58.167 -37 103.5v273h-93v98h93v147h9l106 -37v-110h112v-98h-112v-263c0 -16.667 4.83301 -29.5 14.5 -38.5s23.834 -13.5 42.501 -13.5c15.333 0 31 2 47 6l3 -2v-91c-27.333 -6.66699 -55.333 -10 -84 -10
c-42.667 0 -76.334 11.833 -101.001 35.5zM169 -291c18.667 14 33.668 28.499 45.001 43.499s18.666 32.5 21.999 52.5c-20.667 0 -37.167 7.16699 -49.5 21.5s-18.5 30.5 -18.5 48.5c0 18.667 6.66699 34.834 20 48.501s30 20.5 50 20.5s36.5 -7 49.5 -21
s19.5 -31 19.5 -51c0 -40 -10.5 -75.667 -31.5 -107s-50.5 -58 -88.5 -80z" />
    <glyph glyph-name="uni0237" unicode="&#x237;" horiz-adv-x="240" 
d="M-36 -200l0.000976562 99l5 3c7.33301 -2.66699 15.166 -5 23.499 -7s16.833 -3 25.5 -3c30.667 0 46 17 46 51v557h114v-568c0 -47.333 -12.5 -82.833 -37.5 -106.5s-59.5 -35.5 -103.5 -35.5c-24 0 -48.333 3.33301 -73 10z" />
    <glyph glyph-name="circumflex" unicode="&#x2c6;" horiz-adv-x="365" 
d="M141 703h83l111 -139h-94l-59 60l-59 -60h-93z" />
    <glyph glyph-name="caron" unicode="&#x2c7;" horiz-adv-x="365" 
d="M30 703h93l59 -60l59 60h94l-111 -139h-83z" />
    <glyph glyph-name="uni02C9" unicode="&#x2c9;" horiz-adv-x="249" 
d="M0 675h249v-84h-249v84z" />
    <glyph glyph-name="breve" unicode="&#x2d8;" horiz-adv-x="329" 
d="M66 597c-24 24.667 -35.999 57 -35.999 97h89c0 -14.667 4.33301 -26.667 13 -36s19.667 -14 33 -14s24.166 4.66699 32.499 14s12.5 21.333 12.5 36h89c0 -40 -11.833 -72.333 -35.5 -97s-56.5 -37 -98.5 -37s-75 12.333 -99 37z" />
    <glyph glyph-name="dotaccent" unicode="&#x2d9;" horiz-adv-x="207" 
d="M51.5 584.5c-14.333 14.333 -21.5 31.5 -21.5 51.5s7.16699 37.167 21.5 51.5s31.5 21.5 51.5 21.5c20.667 0 38.167 -7.16699 52.5 -21.5s21.5 -31.5 21.5 -51.5s-7.16699 -37.167 -21.5 -51.5s-31.833 -21.5 -52.5 -21.5c-20 0 -37.167 7.16699 -51.5 21.5z" />
    <glyph glyph-name="ring" unicode="&#x2da;" horiz-adv-x="249" 
d="M57.5 561c-18.333 18.667 -27.5 41 -27.5 67s9.16699 48.333 27.5 67s40.833 28 67.5 28c26 0 48.167 -9.33301 66.5 -28s27.5 -41 27.5 -67s-9.16699 -48.333 -27.5 -67s-40.5 -28 -66.5 -28c-26.667 0 -49.167 9.33301 -67.5 28zM150.5 602
c7 6.66699 10.5 15.334 10.5 26.001s-3.5 19.334 -10.5 26.001s-15.5 10 -25.5 10c-10.667 0 -19.334 -3.33301 -26.001 -10s-10 -15.334 -10 -26.001s3.33301 -19.334 10 -26.001s15.334 -10 26.001 -10c10 0 18.5 3.33301 25.5 10z" />
    <glyph glyph-name="ogonek" unicode="&#x2db;" horiz-adv-x="226" 
d="M58 -165c-18.667 16.667 -27.998 38.3311 -27.998 64.998c0 20.667 5.16699 39.834 15.5 57.501s23.166 31.834 38.499 42.501h86c-34 -32 -51 -58.667 -51 -80c0 -9.33301 3 -16.833 9 -22.5s13.333 -8.5 22 -8.5c8 0 16.667 2.33301 26 7l20 -67l-2 -5
c-15.333 -9.33301 -35 -14 -59 -14c-32.667 0 -58.334 8.33301 -77.001 25z" />
    <glyph glyph-name="tilde" unicode="&#x2dc;" horiz-adv-x="430" 
d="M235.5 575.5c-12.333 5.66699 -24.833 13.834 -37.5 24.501c-8 6.66699 -15.5 11.834 -22.5 15.501s-14.833 5.5 -23.5 5.5c-23.333 0 -38 -16.333 -44 -49h-78c2.66699 43.333 15.167 75.833 37.5 97.5s48.166 32.5 77.499 32.5c20.667 0 37.167 -2.83301 49.5 -8.5
s24.833 -13.834 37.5 -24.501c8 -6.66699 15.5 -11.834 22.5 -15.501s14.833 -5.5 23.5 -5.5c23.333 0 38 16.333 44 49h78c-2.66699 -43.333 -15.167 -75.833 -37.5 -97.5s-48.166 -32.5 -77.499 -32.5c-20.667 0 -37.167 2.83301 -49.5 8.5z" />
    <glyph glyph-name="hungarumlaut" unicode="&#x2dd;" horiz-adv-x="429" 
d="M95 703h128l-98 -139h-95zM271 703h128l-98 -139h-95z" />
    <glyph glyph-name="gravecomb" unicode="&#x300;" horiz-adv-x="0" 
d="M-212 703h133l79 -139h-101z" />
    <glyph glyph-name="acutecomb" unicode="&#x301;" horiz-adv-x="0" 
d="M-133 703h133l-112 -139h-100z" />
    <glyph glyph-name="uni0302" unicode="&#x302;" horiz-adv-x="0" 
d="M-194 703h83l111 -139h-94l-59 60l-59 -60h-93z" />
    <glyph glyph-name="tildecomb" unicode="&#x303;" horiz-adv-x="0" 
d="M-164.5 575.5c-12.333 5.66699 -24.833 13.834 -37.5 24.501c-8 6.66699 -15.5 11.834 -22.5 15.501s-14.833 5.5 -23.5 5.5c-23.333 0 -38 -16.333 -44 -49h-78c2.66699 43.333 15.167 75.833 37.5 97.5s48.166 32.5 77.499 32.5c20.667 0 37.167 -2.83301 49.5 -8.5
s24.833 -13.834 37.5 -24.501c8 -6.66699 15.5 -11.834 22.5 -15.501s14.833 -5.5 23.5 -5.5c23.333 0 38 16.333 44 49h78c-2.66699 -43.333 -15.167 -75.833 -37.5 -97.5s-48.166 -32.5 -77.499 -32.5c-20.667 0 -37.167 2.83301 -49.5 8.5z" />
    <glyph glyph-name="uni0304" unicode="&#x304;" horiz-adv-x="0" 
d="M-249 665h249v-84h-249v84z" />
    <glyph glyph-name="uni0306" unicode="&#x306;" horiz-adv-x="0" 
d="M-233 597c-24 24.667 -35.999 57 -35.999 97h89c0 -14.667 4.33301 -26.667 13 -36s19.667 -14 33 -14s24.166 4.66699 32.499 14s12.5 21.333 12.5 36h89c0 -40 -11.833 -72.333 -35.5 -97s-56.5 -37 -98.5 -37s-75 12.333 -99 37z" />
    <glyph glyph-name="uni0307" unicode="&#x307;" horiz-adv-x="0" 
d="M-125.5 584.5c-14.333 14.333 -21.5 31.5 -21.5 51.5s7.16699 37.167 21.5 51.5s31.5 21.5 51.5 21.5c20.667 0 38.167 -7.16699 52.5 -21.5s21.5 -31.5 21.5 -51.5s-7.16699 -37.167 -21.5 -51.5s-31.833 -21.5 -52.5 -21.5c-20 0 -37.167 7.16699 -51.5 21.5z" />
    <glyph glyph-name="uni0308" unicode="&#x308;" horiz-adv-x="0" 
d="M-300.5 590.5c-13 13 -19.5 28.167 -19.5 45.5s6.5 32.5 19.5 45.5s28.5 19.5 46.5 19.5c17.333 0 32.666 -6.5 45.999 -19.5s20 -28.167 20 -45.5s-6.66699 -32.5 -20 -45.5s-28.666 -19.5 -45.999 -19.5c-18 0 -33.5 6.5 -46.5 19.5zM-112.5 590.5
c-13 13 -19.5 28.167 -19.5 45.5s6.5 32.5 19.5 45.5s28.5 19.5 46.5 19.5c17.333 0 32.666 -6.5 45.999 -19.5s20 -28.167 20 -45.5s-6.66699 -32.5 -20 -45.5s-28.666 -19.5 -45.999 -19.5c-18 0 -33.5 6.5 -46.5 19.5z" />
    <glyph glyph-name="uni030A" unicode="&#x30a;" horiz-adv-x="0" 
d="M-161.5 561c-18.333 18.667 -27.5 41 -27.5 67s9.16699 48.333 27.5 67s40.833 28 67.5 28c26 0 48.167 -9.33301 66.5 -28s27.5 -41 27.5 -67s-9.16699 -48.333 -27.5 -67s-40.5 -28 -66.5 -28c-26.667 0 -49.167 9.33301 -67.5 28zM-68.5 602
c7 6.66699 10.5 15.334 10.5 26.001s-3.5 19.334 -10.5 26.001s-15.5 10 -25.5 10c-10.667 0 -19.334 -3.33301 -26.001 -10s-10 -15.334 -10 -26.001s3.33301 -19.334 10 -26.001s15.334 -10 26.001 -10c10 0 18.5 3.33301 25.5 10z" />
    <glyph glyph-name="uni030B" unicode="&#x30b;" horiz-adv-x="0" 
d="M-304 703h128l-98 -139h-95zM-128 703h128l-98 -139h-95z" />
    <glyph glyph-name="uni030C" unicode="&#x30c;" horiz-adv-x="0" 
d="M-305 703h93l59 -60l59 60h94l-111 -139h-83z" />
    <glyph glyph-name="uni0312" unicode="&#x312;" horiz-adv-x="0" 
d="M-131.5 592c-13.667 14.667 -20.501 33.999 -20.501 57.999c0 39.333 12.333 75 37 107s59 56 103 72l12 -27c-45.333 -22 -71.666 -53 -78.999 -93c21.333 -1.33301 38 -8.83301 50 -22.5s18 -29.5 18 -47.5c0 -19.333 -6.66699 -35.666 -20 -48.999s-30 -20 -50 -20
s-36.833 7.33301 -50.5 22z" />
    <glyph glyph-name="uni0326" unicode="&#x326;" horiz-adv-x="0" 
d="M-138 -291c18.667 14 33.668 28.499 45.001 43.499s18.666 32.5 21.999 52.5c-20.667 0 -37.167 7.16699 -49.5 21.5s-18.5 30.5 -18.5 48.5c0 18.667 6.66699 34.834 20 48.501s30 20.5 50 20.5s36.5 -7 49.5 -21s19.5 -31 19.5 -51c0 -40 -10.5 -75.667 -31.5 -107
s-50.5 -58 -88.5 -80z" />
    <glyph glyph-name="uni0327" unicode="&#x327;" horiz-adv-x="0" 
d="M-173.5 -183c-17.667 13.333 -28.5 29.999 -32.5 49.999l2 5l67 3c6 -10.667 17 -16 33 -16c9.33301 0 16.5 2.33301 21.5 7s7.5 11.334 7.5 20.001s-2.66699 15.334 -8 20.001s-12.666 7 -21.999 7c-14.667 0 -27.667 -5.66699 -39 -17l-58 10l-1 4l52 115h78l-49 -78
c14.667 6.66699 29.334 10 44.001 10c23.333 0 42.166 -6.33301 56.499 -19s21.5 -30.334 21.5 -53.001c0 -28 -9.5 -49.667 -28.5 -65s-44.167 -23 -75.5 -23c-28.667 0 -51.834 6.66699 -69.501 20z" />
    <glyph glyph-name="uni0328" unicode="&#x328;" horiz-adv-x="0" 
d="M-138 -165c-18.667 16.667 -27.998 38.3311 -27.998 64.998c0 20.667 5.16699 39.834 15.5 57.501s23.166 31.834 38.499 42.501h86c-34 -32 -51 -58.667 -51 -80c0 -9.33301 3 -16.833 9 -22.5s13.333 -8.5 22 -8.5c8 0 16.667 2.33301 26 7l20 -67l-2 -5
c-15.333 -9.33301 -35 -14 -59 -14c-32.667 0 -58.334 8.33301 -77.001 25z" />
    <glyph glyph-name="uni0335" unicode="&#x335;" horiz-adv-x="0" 
d="M-434 292h434v-83h-434v83z" />
    <glyph glyph-name="uni0336" unicode="&#x336;" horiz-adv-x="0" 
d="M-613 405h613v-110h-613v110z" />
    <glyph glyph-name="uni0337" unicode="&#x337;" horiz-adv-x="0" 
d="M-378 3l293 539l85 -45l-293 -539z" />
    <glyph glyph-name="uni0338" unicode="&#x338;" horiz-adv-x="0" 
d="M-494 4l402 739l92 -47l-402 -739z" />
    <glyph glyph-name="uni0374" unicode="&#x374;" horiz-adv-x="183" 
d="M52 703h131l-85 -196h-98z" />
    <glyph glyph-name="uni0375" unicode="&#x375;" horiz-adv-x="183" 
d="M131 -197h-131l85 197h98z" />
    <glyph glyph-name="uni037E" unicode="&#x37e;" horiz-adv-x="255" 
d="M73.5 376c-15.667 15.333 -23.5 33.668 -23.5 55.001s7.83301 39.833 23.5 55.5s34.167 23.5 55.5 23.5s39.666 -7.83301 54.999 -23.5s23 -34.167 23 -55.5c0 -20.667 -7.66699 -38.834 -23 -54.501s-33.666 -23.5 -54.999 -23.5s-39.833 7.66699 -55.5 23zM48 -124.998
c21.333 18 37.501 37.1699 48.501 57.5029s17.167 43.166 18.5 68.499c-18.667 2.66699 -34.167 11.5 -46.5 26.5s-18.5 32.167 -18.5 51.5c0 21.333 7.83301 39.666 23.5 54.999s34.167 23 55.5 23s39.666 -7.83301 54.999 -23.5s23 -34.834 23 -57.501
c0 -46 -11.5 -87 -34.5 -123s-56.833 -69.333 -101.5 -100z" />
    <glyph glyph-name="tonos" unicode="&#x384;" horiz-adv-x="183" 
d="M49 703h134l-83 -139h-100z" />
    <glyph glyph-name="dieresistonos" unicode="&#x385;" horiz-adv-x="351" 
d="M163 802h119l-67 -139h-86zM18.5 583.5c-12.333 12.333 -18.5 26.833 -18.5 43.5s6.16699 31 18.5 43s26.833 18 43.5 18s31 -6 43 -18s18 -26.333 18 -43s-6 -31.167 -18 -43.5s-26.333 -18.5 -43 -18.5s-31.167 6.16699 -43.5 18.5zM246.5 583.5
c-12.333 12.333 -18.5 26.833 -18.5 43.5s6.16699 31 18.5 43s26.833 18 43.5 18s31 -6 43 -18s18 -26.333 18 -43s-6 -31.167 -18 -43.5s-26.333 -18.5 -43 -18.5s-31.167 6.16699 -43.5 18.5z" />
    <glyph glyph-name="Alphatonos" unicode="&#x386;" horiz-adv-x="672" 
d="M277 700h118l259 -700h-131l-45 127h-285l-43 -127h-132zM440 236l-91 264l-11 76h-3l-12 -76l-92 -264h209zM57 700h134l-83 -139h-100z" />
    <glyph glyph-name="anoteleia" unicode="&#x387;" horiz-adv-x="253" 
d="M71.5 294.5c-15.667 15.667 -23.5 34.167 -23.5 55.5s7.83301 39.666 23.5 54.999s34.167 23 55.5 23s39.666 -7.66699 54.999 -23s23 -33.666 23 -54.999s-7.66699 -39.833 -23 -55.5s-33.666 -23.5 -54.999 -23.5s-39.833 7.83301 -55.5 23.5z" />
    <glyph glyph-name="Epsilontonos" unicode="&#x388;" horiz-adv-x="738" 
d="M231 700h442v-110h-317v-185h290v-110h-290v-185h328v-110h-453v700zM49 700h134l-83 -139h-100z" />
    <glyph glyph-name="Etatonos" unicode="&#x389;" horiz-adv-x="843" 
d="M231 700h125v-295h295v295h125v-700h-125v295h-295v-295h-125v700zM49 700h134l-83 -139h-100z" />
    <glyph glyph-name="Iotatonos" unicode="&#x38a;" horiz-adv-x="423" 
d="M231 700h125v-700h-125v700zM49 700h134l-83 -139h-100z" />
    <glyph glyph-name="Omicrontonos" unicode="&#x38c;" horiz-adv-x="885" 
d="M304.5 35.5c-53.667 30.333 -96 72.833 -127 127.5s-46.5 117 -46.5 187s15.5 132.333 46.5 187s73.333 97.167 127 127.5s113.5 45.5 179.5 45.5c66.667 0 126.834 -15.167 180.501 -45.5s96 -72.833 127 -127.5s46.5 -117 46.5 -187s-15.5 -132.333 -46.5 -187
s-73.333 -97.167 -127 -127.5s-113.834 -45.5 -180.501 -45.5c-66 0 -125.833 15.167 -179.5 45.5zM603.5 133.5c34.333 21 60.833 50.167 79.5 87.5s28 80.333 28 129s-9.33301 91.667 -28 129s-45.167 66.5 -79.5 87.5s-74.166 31.5 -119.499 31.5
s-85.166 -10.5 -119.499 -31.5s-60.833 -50.167 -79.5 -87.5s-28 -80.333 -28 -129s9.33301 -91.667 28 -129s45.167 -66.5 79.5 -87.5s74.166 -31.5 119.499 -31.5s85.166 10.5 119.499 31.5zM49 700h134l-83 -139h-100z" />
    <glyph glyph-name="Upsilontonos" unicode="&#x38e;" horiz-adv-x="784" 
d="M433 252l-211 448h134l125 -271l13 -76h4l13 76l125 271h134l-212 -448v-252h-125v252zM49 700h134l-83 -139h-100z" />
    <glyph glyph-name="Omegatonos" unicode="&#x38f;" horiz-adv-x="877" 
d="M169 108h110.004c-24 16 -47.333 38 -70 66s-41.334 60.5 -56.001 97.5s-22 75.167 -22 114.5c0 64 15.667 120.667 47 170s73.5 87.333 126.5 114s111.5 40 175.5 40s122.667 -13.333 176 -40s95.666 -64.667 126.999 -114s47 -106 47 -170
c0 -39.333 -7.33301 -77.5 -22 -114.5s-33.334 -69.5 -56.001 -97.5s-46 -50 -70 -66h110v-108h-266v108c30 14 58.5 34.5 85.5 61.5s49 58.333 66 94s25.5 72.834 25.5 111.501c0 44 -9.83301 83 -29.5 117s-46.334 60.167 -80.001 78.5s-71.5 27.5 -113.5 27.5
c-41.333 0 -79 -9.16699 -113 -27.5s-60.833 -44.5 -80.5 -78.5s-29.5 -73 -29.5 -117c0 -38.667 8.5 -75.834 25.5 -111.501s39.167 -67 66.5 -94s56 -47.5 86 -61.5v-108h-266v108zM49.0039 700h134l-83 -139h-100z" />
    <glyph glyph-name="iotadieresistonos" unicode="&#x390;" horiz-adv-x="312" 
d="M101 25c-24.667 23.333 -36.999 58 -36.999 104v371h114v-361c0 -16.667 5 -29.5 15 -38.5s24.333 -13.5 43 -13.5c16 0 31.333 2 46 6l4 -2v-91c-27.333 -6.66699 -55.333 -10 -84 -10c-42.667 0 -76.334 11.667 -101.001 35zM108.001 802h119l-67 -139h-86z
M-36.499 583.5c-12.333 12.333 -18.5 26.833 -18.5 43.5s6.16699 31 18.5 43s26.833 18 43.5 18s31 -6 43 -18s18 -26.333 18 -43s-6 -31.167 -18 -43.5s-26.333 -18.5 -43 -18.5s-31.167 6.16699 -43.5 18.5zM191.501 583.5c-12.333 12.333 -18.5 26.833 -18.5 43.5
s6.16699 31 18.5 43s26.833 18 43.5 18s31 -6 43 -18s18 -26.333 18 -43s-6 -31.167 -18 -43.5s-26.333 -18.5 -43 -18.5s-31.167 6.16699 -43.5 18.5z" />
    <glyph glyph-name="Alpha" unicode="&#x391;" horiz-adv-x="672" 
d="M277 700h118l259 -700h-131l-45 127h-285l-43 -127h-132zM440 236l-91 264l-11 76h-3l-12 -76l-92 -264h209z" />
    <glyph glyph-name="Beta" unicode="&#x392;" horiz-adv-x="646" 
d="M68 700l282 -0.000976562c44.667 0 83.834 -7.66699 117.501 -23s59.5 -36.5 77.5 -63.5s27 -57.167 27 -90.5c0 -34.667 -7.33301 -63.667 -22 -87s-35.667 -43 -63 -59v-4c35.333 -11.333 65 -31.666 89 -60.999s36 -65 36 -107c0 -40.667 -10.167 -76.5 -30.5 -107.5
s-49.333 -55 -87 -72s-81.834 -25.5 -132.501 -25.5h-294v700zM353 412.999c68 0 102 29.667 102 89c0 58.667 -34 88 -102 88h-160v-177h160zM382 109.999c33.333 0 59.666 8.16797 78.999 24.501s29 40.166 29 71.499s-9.66699 55.333 -29 72s-45.666 25 -78.999 25h-189
v-193h189z" />
    <glyph glyph-name="Gamma" unicode="&#x393;" horiz-adv-x="526" 
d="M68 700h424v-110h-299v-590h-125v700z" />
    <glyph glyph-name="uni0394" unicode="&#x394;" horiz-adv-x="702" 
d="M284 700h134l266 -700h-666zM508 110l-144 399l-12 76h-3l-11 -76l-144 -399h314z" />
    <glyph glyph-name="Epsilon" unicode="&#x395;" horiz-adv-x="576" 
d="M68 700h442v-110h-317v-185h290v-110h-290v-185h328v-110h-453v700z" />
    <glyph glyph-name="Zeta" unicode="&#x396;" horiz-adv-x="596" 
d="M40 109l349 481h-331v110h480v-89l-361 -501h373v-110h-510v109z" />
    <glyph glyph-name="Eta" unicode="&#x397;" horiz-adv-x="681" 
d="M68 700h125v-295h295v295h125v-700h-125v295h-295v-295h-125v700z" />
    <glyph glyph-name="Theta" unicode="&#x398;" horiz-adv-x="803" 
d="M221.5 35.5c-53.667 30.333 -96 72.833 -127 127.5s-46.5 117 -46.5 187s15.5 132.333 46.5 187s73.333 97.167 127 127.5s113.5 45.5 179.5 45.5c66.667 0 126.834 -15.167 180.501 -45.5s96 -72.833 127 -127.5s46.5 -117 46.5 -187s-15.5 -132.333 -46.5 -187
s-73.333 -97.167 -127 -127.5s-113.834 -45.5 -180.501 -45.5c-66 0 -125.833 15.167 -179.5 45.5zM520.5 133.5c34.333 21 60.833 50.167 79.5 87.5s28 80.333 28 129s-9.33301 91.667 -28 129s-45.167 66.5 -79.5 87.5s-74.166 31.5 -119.499 31.5
s-85.166 -10.5 -119.499 -31.5s-60.833 -50.167 -79.5 -87.5s-28 -80.333 -28 -129s9.33301 -91.667 28 -129s45.167 -66.5 79.5 -87.5s74.166 -31.5 119.499 -31.5s85.166 10.5 119.499 31.5zM280 402h242v-104h-242v104z" />
    <glyph glyph-name="Iota" unicode="&#x399;" horiz-adv-x="261" 
d="M68 700h125v-700h-125v700z" />
    <glyph glyph-name="Kappa" unicode="&#x39a;" horiz-adv-x="630" 
d="M68 700h125v-290h3l249 290h145l-284 -328l296 -372h-157l-249 318h-3v-318h-125v700z" />
    <glyph glyph-name="Lambda" unicode="&#x39b;" horiz-adv-x="672" 
d="M277 700h118l259 -700h-131l-174 500l-11 76h-3l-12 -76l-173 -500h-132z" />
    <glyph glyph-name="Mu" unicode="&#x39c;" horiz-adv-x="819" 
d="M68 700h125l216 -546l217 546h125v-700h-120v439h-4l-5 -44l-155 -395h-115l-155 395l-5 44h-4v-439h-120v700z" />
    <glyph glyph-name="Nu" unicode="&#x39d;" horiz-adv-x="696" 
d="M68 700h137l289 -487l6 -28h3v515h125v-700h-137l-289 487l-6 28h-3v-515h-125v700z" />
    <glyph glyph-name="Xi" unicode="&#x39e;" horiz-adv-x="641" 
d="M68 700h505v-110h-505v110zM109 405h423v-110h-423v110zM68 110h505v-110h-505v110z" />
    <glyph glyph-name="Omicron" unicode="&#x39f;" horiz-adv-x="803" 
d="M221.5 35.5c-53.667 30.333 -96 72.833 -127 127.5s-46.5 117 -46.5 187s15.5 132.333 46.5 187s73.333 97.167 127 127.5s113.5 45.5 179.5 45.5c66.667 0 126.834 -15.167 180.501 -45.5s96 -72.833 127 -127.5s46.5 -117 46.5 -187s-15.5 -132.333 -46.5 -187
s-73.333 -97.167 -127 -127.5s-113.834 -45.5 -180.501 -45.5c-66 0 -125.833 15.167 -179.5 45.5zM520.5 133.5c34.333 21 60.833 50.167 79.5 87.5s28 80.333 28 129s-9.33301 91.667 -28 129s-45.167 66.5 -79.5 87.5s-74.166 31.5 -119.499 31.5
s-85.166 -10.5 -119.499 -31.5s-60.833 -50.167 -79.5 -87.5s-28 -80.333 -28 -129s9.33301 -91.667 28 -129s45.167 -66.5 79.5 -87.5s74.166 -31.5 119.499 -31.5s85.166 10.5 119.499 31.5z" />
    <glyph glyph-name="Pi" unicode="&#x3a0;" horiz-adv-x="681" 
d="M68 700h545v-700h-125v590h-295v-590h-125v700z" />
    <glyph glyph-name="Rho" unicode="&#x3a1;" horiz-adv-x="644" 
d="M68 700h260c53.333 0 100.166 -9.33301 140.499 -28s71.666 -45.667 93.999 -81s33.5 -77 33.5 -125c0 -48.667 -11.167 -90.667 -33.5 -126s-53.666 -62.333 -93.999 -81s-87.166 -28 -140.499 -28h-135v-231h-125v700zM324 341c98 0 147 41.667 147 125
c0 82.667 -49 124 -147 124h-131v-249h131z" />
    <glyph glyph-name="Sigma" unicode="&#x3a3;" horiz-adv-x="582" 
d="M68 83l204 267l-204 267v83h459v-110h-293l178 -240l-178 -240h293v-110h-459v83z" />
    <glyph glyph-name="Tau" unicode="&#x3a4;" horiz-adv-x="547" 
d="M211 590h-177v110h479v-110h-177v-590h-125v590z" />
    <glyph glyph-name="Upsilon" unicode="&#x3a5;" horiz-adv-x="578" 
d="M226 252l-211 448h134l125 -271l13 -76h4l13 76l125 271h134l-212 -448v-252h-125v252z" />
    <glyph glyph-name="Phi" unicode="&#x3a6;" horiz-adv-x="904" 
d="M704 596c47.333 -22.667 84.5 -55.167 111.5 -97.5s40.5 -91.833 40.5 -148.5s-13.5 -106.167 -40.5 -148.5s-64.167 -74.833 -111.5 -97.5s-100 -34 -158 -34h-32v-70h-125v70h-31c-58 0 -110.667 11.333 -158 34s-84.5 55.167 -111.5 97.5s-40.5 91.833 -40.5 148.5
s13.5 106.167 40.5 148.5s64.167 74.833 111.5 97.5s100 34 158 34h31v70h125v-70h32c58 0 110.667 -11.333 158 -34zM389 182v335.998h-28c-51.333 0 -94.666 -14.167 -129.999 -42.5s-53 -70.166 -53 -125.499s17.667 -97.166 53 -125.499s78.666 -42.5 129.999 -42.5h28z
M673 224.498c35.333 28.333 53 70.168 53 125.501s-17.667 97.166 -53 125.499s-79 42.5 -131 42.5h-28v-336h28c52 0 95.667 14.167 131 42.5z" />
    <glyph glyph-name="Chi" unicode="&#x3a7;" horiz-adv-x="630" 
d="M248 384l-185 316h134l118 -213l118 213h135l-185 -316l233 -384h-137l-164 278l-163 -278h-138z" />
    <glyph glyph-name="Psi" unicode="&#x3a8;" horiz-adv-x="849" 
d="M781 700v-261c0 -94 -26.5 -161.667 -79.5 -203s-124.5 -65 -214.5 -71v-165h-125v165c-90 6 -161.5 29.667 -214.5 71s-79.5 109 -79.5 203v261h125v-259c0 -55.333 13.5 -95.5 40.5 -120.5s69.833 -40.5 128.5 -46.5v426h125v-426c58.667 6 101.5 21.5 128.5 46.5
s40.5 65.167 40.5 120.5v259h125z" />
    <glyph glyph-name="uni03A9" unicode="&#x3a9;" horiz-adv-x="788" 
d="M86 108h110.004c-24 16 -47.333 38 -70 66s-41.334 60.5 -56.001 97.5s-22 75.167 -22 114.5c0 64 15.667 120.667 47 170s73.5 87.333 126.5 114s111.5 40 175.5 40s122.667 -13.333 176 -40s95.666 -64.667 126.999 -114s47 -106 47 -170
c0 -39.333 -7.33301 -77.5 -22 -114.5s-33.334 -69.5 -56.001 -97.5s-46 -50 -70 -66h110v-108h-266v108c30 14 58.5 34.5 85.5 61.5s49 58.333 66 94s25.5 72.834 25.5 111.501c0 44 -9.83301 83 -29.5 117s-46.334 60.167 -80.001 78.5s-71.5 27.5 -113.5 27.5
c-41.333 0 -79 -9.16699 -113 -27.5s-60.833 -44.5 -80.5 -78.5s-29.5 -73 -29.5 -117c0 -38.667 8.5 -75.834 25.5 -111.501s39.167 -67 66.5 -94s56 -47.5 86 -61.5v-108h-266v108z" />
    <glyph glyph-name="Iotadieresis" unicode="&#x3aa;" horiz-adv-x="261" 
d="M68 700h125v-700h-125v700zM-10.5 790.5c-13 13 -19.5 28.167 -19.5 45.5s6.5 32.5 19.5 45.5s28.5 19.5 46.5 19.5c17.333 0 32.666 -6.5 45.999 -19.5s20 -28.167 20 -45.5s-6.66699 -32.5 -20 -45.5s-28.666 -19.5 -45.999 -19.5c-18 0 -33.5 6.5 -46.5 19.5z
M177.5 790.5c-13 13 -19.5 28.167 -19.5 45.5s6.5 32.5 19.5 45.5s28.5 19.5 46.5 19.5c17.333 0 32.666 -6.5 45.999 -19.5s20 -28.167 20 -45.5s-6.66699 -32.5 -20 -45.5s-28.666 -19.5 -45.999 -19.5c-18 0 -33.5 6.5 -46.5 19.5z" />
    <glyph glyph-name="Upsilondieresis" unicode="&#x3ab;" horiz-adv-x="578" 
d="M226 252l-211 448h134l125 -271l13 -76h4l13 76l125 271h134l-212 -448v-252h-125v252zM148.5 790.5c-13 13 -19.5 28.167 -19.5 45.5s6.5 32.5 19.5 45.5s28.5 19.5 46.5 19.5c17.333 0 32.666 -6.5 45.999 -19.5s20 -28.167 20 -45.5s-6.66699 -32.5 -20 -45.5
s-28.666 -19.5 -45.999 -19.5c-18 0 -33.5 6.5 -46.5 19.5zM336.5 790.5c-13 13 -19.5 28.167 -19.5 45.5s6.5 32.5 19.5 45.5s28.5 19.5 46.5 19.5c17.333 0 32.666 -6.5 45.999 -19.5s20 -28.167 20 -45.5s-6.66699 -32.5 -20 -45.5s-28.666 -19.5 -45.999 -19.5
c-18 0 -33.5 6.5 -46.5 19.5z" />
    <glyph glyph-name="alphatonos" unicode="&#x3ac;" horiz-adv-x="635" 
d="M159 21c-36 20.667 -65.166 50.668 -87.499 90.001s-33.5 85.666 -33.5 138.999c0 54 10.667 100.667 32 140s50.166 69.166 86.499 89.499s76.166 30.5 119.499 30.5c30.667 0 59.167 -5 85.5 -15s49.166 -24 68.499 -42v47h114v-365c0 -16 3.5 -28.333 10.5 -37
s16.833 -13 29.5 -13c6.66699 0 14 1 22 3l3 -2v-82c-20 -6.66699 -41.333 -10 -64 -10c-27.333 0 -50.166 5.83301 -68.499 17.5s-31.5 27.834 -39.5 48.501h-1c-43.333 -46.667 -97.666 -70 -162.999 -70c-40 0 -78 10.333 -114 31zM390.501 124.001
c26.333 24 39.499 53.6699 39.499 89.0029v73c0 35.333 -13.167 65.166 -39.5 89.499s-58.166 36.5 -95.499 36.5c-41.333 0 -75.333 -13.833 -102 -41.5s-40 -67.834 -40 -120.501s13.333 -92.834 40 -120.501s61 -41.5 103 -41.5c36.667 0 68.167 12 94.5 36zM288 703.004
h134l-83 -139h-100z" />
    <glyph glyph-name="epsilontonos" unicode="&#x3ad;" horiz-adv-x="516" 
d="M90.5 32.5c-38.333 28.333 -57.502 65.166 -57.502 110.499c0 30 9 56.167 27 78.5s42.333 37.5 73 45.5c-23.333 8.66699 -42.333 21.834 -57 39.501s-22 39.167 -22 64.5s8 48.5 24 69.5s39.5 37.833 70.5 50.5s68.167 19 111.5 19
c51.333 0 96.166 -11.167 134.499 -33.5s59.833 -56.5 64.5 -102.5l-56 -5l-47 -10c-2.66699 16.667 -13 30.334 -31 41.001s-40.333 16 -67 16c-27.333 0 -49.5 -4.66699 -66.5 -14s-25.5 -23 -25.5 -41c0 -17.333 7.33301 -30.333 22 -39s35.334 -13 62.001 -13h43v-91
h-42c-35.333 0 -61.5 -6.33301 -78.5 -19s-25.5 -29.334 -25.5 -50.001c0 -20 9 -36 27 -48s43.333 -18 76 -18c72 0 112 30.667 120 92l108 -9c-6.66699 -54.667 -30.667 -97.667 -72 -129s-93.666 -47 -156.999 -47c-67.333 0 -120.166 14.167 -158.499 42.5zM248.998 703
h134l-83 -139h-100z" />
    <glyph glyph-name="etatonos" unicode="&#x3ae;" horiz-adv-x="605" 
d="M431 315c0 30.667 -7.83008 54.167 -23.4971 70.5s-38.5 24.5 -68.5 24.5c-25.333 0 -49.833 -7.83301 -73.5 -23.5s-43.834 -35.834 -60.501 -60.501v-326h-114v365c0 16 -3.5 28.333 -10.5 37s-16.833 13 -29.5 13c-6.66699 0 -14 -1 -22 -3l-3 2v82
c20 6.66699 41.333 10 64 10c26 0 49.167 -6.16699 69.5 -18.5s34.166 -31.166 41.499 -56.499c20.667 22.667 46.167 41.5 76.5 56.5s63.166 22.5 98.499 22.5c53.333 0 94.833 -15.167 124.5 -45.5s44.5 -70.5 44.5 -120.5v-544h-114v515zM340.003 703h134l-83 -139h-100z
" />
    <glyph glyph-name="iotatonos" unicode="&#x3af;" horiz-adv-x="312" 
d="M101 25c-24.667 23.333 -36.999 58 -36.999 104v371h114v-361c0 -16.667 5 -29.5 15 -38.5s24.333 -13.5 43 -13.5c16 0 31.333 2 46 6l4 -2v-91c-27.333 -6.66699 -55.333 -10 -84 -10c-42.667 0 -76.334 11.667 -101.001 35zM115.001 703h134l-83 -139h-100z" />
    <glyph glyph-name="upsilondieresistonos" unicode="&#x3b0;" horiz-adv-x="568" 
d="M121.5 42.5c-41 35 -61.5 84.167 -61.5 147.5v310h114v-300c0 -32.667 9.16699 -59 27.5 -79s45.833 -30 82.5 -30s64.167 10 82.5 30s27.5 46.333 27.5 79v300h114v-310c0 -63.333 -20.5 -112.5 -61.5 -147.5s-95.167 -52.5 -162.5 -52.5s-121.5 17.5 -162.5 52.5z
M271 802h119l-67 -139h-86zM126.5 583.5c-12.333 12.333 -18.5 26.833 -18.5 43.5s6.16699 31 18.5 43s26.833 18 43.5 18s31 -6 43 -18s18 -26.333 18 -43s-6 -31.167 -18 -43.5s-26.333 -18.5 -43 -18.5s-31.167 6.16699 -43.5 18.5zM354.5 583.5
c-12.333 12.333 -18.5 26.833 -18.5 43.5s6.16699 31 18.5 43s26.833 18 43.5 18s31 -6 43 -18s18 -26.333 18 -43s-6 -31.167 -18 -43.5s-26.333 -18.5 -43 -18.5s-31.167 6.16699 -43.5 18.5z" />
    <glyph glyph-name="alpha" unicode="&#x3b1;" horiz-adv-x="635" 
d="M159 21c-36 20.667 -65.166 50.668 -87.499 90.001s-33.5 85.666 -33.5 138.999c0 54 10.667 100.667 32 140s50.166 69.166 86.499 89.499s76.166 30.5 119.499 30.5c30.667 0 59.167 -5 85.5 -15s49.166 -24 68.499 -42v47h114v-365c0 -16 3.5 -28.333 10.5 -37
s16.833 -13 29.5 -13c6.66699 0 14 1 22 3l3 -2v-82c-20 -6.66699 -41.333 -10 -64 -10c-27.333 0 -50.166 5.83301 -68.499 17.5s-31.5 27.834 -39.5 48.501h-1c-43.333 -46.667 -97.666 -70 -162.999 -70c-40 0 -78 10.333 -114 31zM390.501 124.001
c26.333 24 39.499 53.6699 39.499 89.0029v73c0 35.333 -13.167 65.166 -39.5 89.499s-58.166 36.5 -95.499 36.5c-41.333 0 -75.333 -13.833 -102 -41.5s-40 -67.834 -40 -120.501s13.333 -92.834 40 -120.501s61 -41.5 103 -41.5c36.667 0 68.167 12 94.5 36z" />
    <glyph glyph-name="beta" unicode="&#x3b2;" horiz-adv-x="609" 
d="M64 509c0 51.333 10.833 94.3311 32.5 128.998s50.667 60.334 87 77.001s77.166 25 122.499 25c44 0 83 -7.66699 117 -23s60.333 -36.666 79 -63.999s28 -58.666 28 -93.999c0 -32.667 -9 -63 -27 -91s-44.667 -48.333 -80 -61c46.667 -8.66699 83 -28.834 109 -60.501
s39 -75.5 39 -131.5c0 -51.333 -11.833 -93.833 -35.5 -127.5s-53.334 -58.167 -89.001 -73.5s-72.5 -23 -110.5 -23c-29.333 0 -57.666 4.16699 -84.999 12.5s-51.666 20.5 -72.999 36.5v-240h-114v709zM420.5 124.998c24.333 23.333 36.502 54.333 36.502 93
c0 46 -14.833 79.5 -44.5 100.5s-64.834 31.5 -105.501 31.5h-65v98h62c33.333 0 60.666 8.66699 81.999 26s32 41 32 71c0 30.667 -10.667 54.5 -32 71.5s-48.333 25.5 -81 25.5c-37.333 0 -67.833 -11.333 -91.5 -34s-35.5 -57 -35.5 -103v-350
c18.667 -20.667 41 -36.667 67 -48s53.333 -17 82 -17c38 0 69.167 11.667 93.5 35z" />
    <glyph glyph-name="gamma" unicode="&#x3b3;" horiz-adv-x="550" 
d="M218 -13l-198 513h120l119 -315l14 -77h4l15 77l119 315h119l-198 -513v-187h-114v187z" />
    <glyph glyph-name="delta" unicode="&#x3b4;" horiz-adv-x="550" 
d="M463.5 357.5c32.333 -39 48.5 -87.167 48.5 -144.5c0 -45.333 -10.333 -84.833 -31 -118.5s-48.834 -59.5 -84.501 -77.5s-75.5 -27 -119.5 -27c-46.667 0 -88.167 9.16699 -124.5 27.5s-64.5 44.166 -84.5 77.499s-30 72 -30 116c0 88.667 42.667 161 128 217
c-30 20.667 -52.5 42.834 -67.5 66.501s-22.5 50.167 -22.5 79.5c0 32 8.5 60.667 25.5 86s40.833 45 71.5 59s65.667 21 105 21c46 0 88.5 -11.333 127.5 -34s64.833 -58.667 77.5 -108l-1 -6l-92 -29c-7.33301 25.333 -20.833 44.5 -40.5 57.5s-43.167 19.5 -70.5 19.5
s-48.833 -6.16699 -64.5 -18.5s-23.167 -27.833 -22.5 -46.5c0 -14.667 5 -27.667 15 -39s22.833 -21.833 38.5 -31.5s40.834 -23.5 75.501 -41.5c62.667 -31.333 110.167 -66.5 142.5 -105.5zM365.5 124.5c21 22.333 31.499 51.168 31.499 86.501
c0 38 -12.167 70.333 -36.5 97s-60.166 51 -107.499 73c-66.667 -42.667 -100 -97.334 -100 -164.001c0 -36 11 -66 33 -90s52.667 -36 92 -36c37.333 0 66.5 11.167 87.5 33.5z" />
    <glyph glyph-name="epsilon" unicode="&#x3b5;" horiz-adv-x="516" 
d="M90.5 32.5c-38.333 28.333 -57.502 65.166 -57.502 110.499c0 30 9 56.167 27 78.5s42.333 37.5 73 45.5c-23.333 8.66699 -42.333 21.834 -57 39.501s-22 39.167 -22 64.5s8 48.5 24 69.5s39.5 37.833 70.5 50.5s68.167 19 111.5 19
c51.333 0 96.166 -11.167 134.499 -33.5s59.833 -56.5 64.5 -102.5l-56 -5l-47 -10c-2.66699 16.667 -13 30.334 -31 41.001s-40.333 16 -67 16c-27.333 0 -49.5 -4.66699 -66.5 -14s-25.5 -23 -25.5 -41c0 -17.333 7.33301 -30.333 22 -39s35.334 -13 62.001 -13h43v-91
h-42c-35.333 0 -61.5 -6.33301 -78.5 -19s-25.5 -29.334 -25.5 -50.001c0 -20 9 -36 27 -48s43.333 -18 76 -18c72 0 112 30.667 120 92l108 -9c-6.66699 -54.667 -30.667 -97.667 -72 -129s-93.666 -47 -156.999 -47c-67.333 0 -120.166 14.167 -158.499 42.5z" />
    <glyph glyph-name="zeta" unicode="&#x3b6;" horiz-adv-x="486" 
d="M331.5 -135c12.333 18.667 18.499 38.667 18.499 60c0 24.667 -7.16699 45.834 -21.5 63.501s-44.833 33.167 -91.5 46.5c-61.333 16.667 -107.666 40.667 -138.999 72s-47 73.666 -47 126.999c0 31.333 4.5 62.166 13.5 92.499s27.167 65.833 54.5 106.5
s67.333 87.667 120 141l58 58h-245v98h392v-77l-149 -163c-48.667 -52.667 -82.5 -98 -101.5 -136s-28.5 -74 -28.5 -108c0 -23.333 5.33301 -42.666 16 -57.999s25.5 -27.666 44.5 -36.999s44.5 -19 76.5 -29c108 -32.667 162 -91.334 162 -176.001
c0 -32.667 -5.5 -59.834 -16.5 -81.501s-26.167 -43.167 -45.5 -64.5h-126c24.667 24.667 43.167 46.334 55.5 65.001z" />
    <glyph glyph-name="eta" unicode="&#x3b7;" horiz-adv-x="605" 
d="M431 315c0 30.667 -7.83008 54.167 -23.4971 70.5s-38.5 24.5 -68.5 24.5c-25.333 0 -49.833 -7.83301 -73.5 -23.5s-43.834 -35.834 -60.501 -60.501v-326h-114v365c0 16 -3.5 28.333 -10.5 37s-16.833 13 -29.5 13c-6.66699 0 -14 -1 -22 -3l-3 2v82
c20 6.66699 41.333 10 64 10c26 0 49.167 -6.16699 69.5 -18.5s34.166 -31.166 41.499 -56.499c20.667 22.667 46.167 41.5 76.5 56.5s63.166 22.5 98.499 22.5c53.333 0 94.833 -15.167 124.5 -45.5s44.5 -70.5 44.5 -120.5v-544h-114v515z" />
    <glyph glyph-name="theta" unicode="&#x3b8;" horiz-adv-x="663" 
d="M185.5 35c-43 30 -76.667 73.167 -101 129.5s-36.5 123.166 -36.5 200.499s12.167 144.166 36.5 200.499s58 99.5 101 129.5s91.5 45 145.5 45c54.667 0 103.5 -15 146.5 -45s76.667 -73.167 101 -129.5s36.5 -123.166 36.5 -200.499s-12.167 -144.166 -36.5 -200.499
s-58 -99.5 -101 -129.5s-91.833 -45 -146.5 -45c-54 0 -102.5 15 -145.5 45zM498 414c-6 72.667 -23.667 128.334 -53 167.001s-67.333 58 -114 58c-46 0 -83.667 -19.333 -113 -58s-47.333 -94.334 -54 -167.001h334zM445 149c29.333 38.667 47 94.334 53 167.001h-334
c6.66699 -72.667 24.667 -128.334 54 -167.001s67 -58 113 -58c46.667 0 84.667 19.333 114 58z" />
    <glyph glyph-name="iota" unicode="&#x3b9;" horiz-adv-x="312" 
d="M101 25c-24.667 23.333 -36.999 58 -36.999 104v371h114v-361c0 -16.667 5 -29.5 15 -38.5s24.333 -13.5 43 -13.5c16 0 31.333 2 46 6l4 -2v-91c-27.333 -6.66699 -55.333 -10 -84 -10c-42.667 0 -76.334 11.667 -101.001 35z" />
    <glyph glyph-name="kappa" unicode="&#x3ba;" horiz-adv-x="515" 
d="M64 500h114v-172h4l103 111c20 22 41.5 37.5 64.5 46.5s52.5 13.833 88.5 14.5h12v-99c-21.333 -0.666992 -39.333 -4.16699 -54 -10.5s-28.667 -16.5 -42 -30.5l-80 -82l223 -278h-139l-176 217h-4v-217h-114v500z" />
    <glyph glyph-name="lambda" unicode="&#x3bb;" horiz-adv-x="591" 
d="M427 13c-22 15.333 -39.668 40.333 -53.001 75l-100 258h-4l-9 -63l-118 -283h-123l199 476l-48 120c-14 34.667 -35.333 52 -64 52c-11.333 0 -25.666 -3.33301 -42.999 -10l-2 3v86c26 8.66699 51.333 13 76 13c32.667 0 59.667 -8.33301 81 -25s40.333 -45.667 57 -87
l196 -491c8 -20 17 -34.167 27 -42.5s21.667 -12.5 35 -12.5c10.667 0 22 3 34 9l3 -3v-83c-13.333 -6 -25.5 -10 -36.5 -12s-23.167 -3 -36.5 -3c-25.333 0 -49 7.66699 -71 23z" />
    <glyph glyph-name="uni03BC" unicode="&#x3bc;" horiz-adv-x="609" 
d="M64 500h113.998v-315c0 -30.667 8.16699 -54.167 24.5 -70.5s39.5 -24.5 69.5 -24.5c26 0 50.333 7.66699 73 23s42.334 35.666 59.001 60.999v326h114v-365c0 -16 3.5 -28.333 10.5 -37s16.833 -13 29.5 -13c6.66699 0 14 1 22 3l3 -2v-82
c-20 -6.66699 -41.667 -10 -65 -10c-27.333 0 -50.5 6.33301 -69.5 19s-32.5 30.334 -40.5 53.001h-2c-21.333 -22.667 -46.666 -41 -75.999 -55s-61.333 -21 -96 -21c-20 0 -38.667 3 -56 9v-199h-114v700z" />
    <glyph glyph-name="nu" unicode="&#x3bd;" horiz-adv-x="550" 
d="M20 500h123l114 -306l16 -86h4l16 86l114 306h123l-192 -500h-125z" />
    </font>
</defs>
</svg>
